<?xml version="1.0" encoding="UTF-8"?>
<svg id="Capa_1" xmlns="http://www.w3.org/2000/svg" version="1.1" viewBox="0 0 334.55 351.28">
  <!-- Generator: Adobe Illustrator 29.1.0, SVG Export Plug-In . SVG Version: 2.1.0 Build 142)  -->
  <defs>
    <style>
      .st0 {
        fill: #fff;

      }
    </style>
  </defs>
  <path class="st0" d="M133.82,50.18v-16.73H33.46l16.73,16.73v267.64l41.82-41.82,41.82,41.82v-184l-16.73-16.73h16.73V50.18h0ZM100.37,243.95l-8.36,8.38-8.36-8.38v-110.13h16.73v110.13h-.01ZM100.37,117.09h-16.73V50.18h16.73s0,66.91,0,66.91Z"/>
  <polygon class="st0" points="301.1 33.46 284.37 50.18 284.37 100.37 250.91 100.37 250.91 50.18 234.19 50.18 234.19 243.99 242.55 252.35 250.91 243.99 250.91 133.82 242.55 117.09 284.37 117.09 284.37 317.82 242.55 276 200.73 317.82 200.73 50.18 200.73 33.46 301.1 33.46"/>
  <polygon class="st0" points="184 16.73 184 117.09 192.37 117.09 192.37 133.82 184 133.82 184 334.55 167.28 351.28 150.55 334.55 150.55 16.73 133.82 0 267.64 0 250.91 16.73 184 16.73"/>
  <polygon class="st0" points="110.17 0 126.9 16.73 16.73 16.73 0 0 110.17 0"/>
  <polygon class="st0" points="334.55 0 317.82 16.73 274.57 16.73 291.29 0 334.55 0"/>
</svg>
