<?xml version="1.0" standalone="no"?>
<!DOCTYPE svg PUBLIC "-//W3C//DTD SVG 20010904//EN"
 "http://www.w3.org/TR/2001/REC-SVG-20010904/DTD/svg10.dtd">
<svg version="1.0" xmlns="http://www.w3.org/2000/svg"
 width="300.000000pt" height="71.000000pt" viewBox="0 0 300.000000 71.000000"
 preserveAspectRatio="xMidYMid meet">
<metadata>
Created by potrace 1.10, written by Peter Selinger 2001-2011
</metadata>
<g transform="translate(0.000000,71.000000) scale(0.100000,-0.100000)"
fill="#cbd5e1f7" stroke="#cbd5e1f7">
<path d="M115 538 c-71 -25 -105 -95 -82 -164 15 -42 66 -84 101 -84 16 1 12
6 -17 21 -22 12 -35 24 -31 31 4 6 3 8 -3 5 -13 -8 -33 36 -33 73 0 39 56 95
104 104 20 4 70 4 111 0 65 -6 79 -10 96 -32 11 -15 19 -37 17 -51 -2 -21 -10
-27 -38 -31 l-35 -6 28 -7 c34 -9 53 3 60 40 7 39 -12 82 -44 98 -33 18 -187
19 -234 3z"/>
<path d="M450 523 l-31 -28 0 -145 c0 -152 7 -189 40 -212 12 -8 18 -17 15
-21 -10 -10 80 14 94 25 25 21 38 62 31 98 -6 34 -6 34 -8 -11 -2 -76 -65
-114 -117 -71 -36 29 -42 52 -42 184 0 114 2 130 20 150 11 13 17 16 13 8 -4
-8 1 -6 10 5 14 17 28 20 98 20 86 0 165 -25 151 -47 -4 -6 -3 -8 4 -4 16 10
52 -57 52 -96 0 -50 -26 -95 -71 -123 -51 -33 -79 -33 -79 0 0 14 -4 25 -8 25
-4 0 -6 -16 -4 -36 4 -34 6 -35 36 -29 90 19 141 89 134 186 -4 50 -9 64 -37
93 -41 42 -88 56 -190 56 -74 0 -83 -2 -111 -27z"/>
<path d="M979 545 c-3 -2 -14 -6 -25 -8 -73 -12 -144 -106 -144 -190 0 -74 11
-105 52 -152 53 -60 126 -85 196 -66 69 18 118 56 147 114 43 87 29 173 -38
241 -24 24 -60 47 -83 54 -42 12 -97 16 -105 7z m144 -56 c118 -78 121 -235 7
-314 -67 -46 -166 -45 -222 3 -10 8 -15 19 -11 25 3 5 1 7 -4 4 -6 -4 -23 12
-39 36 -23 34 -29 53 -29 98 0 48 4 60 32 92 17 19 33 34 36 31 2 -2 10 3 18
13 9 11 10 14 2 9 -7 -4 -13 -5 -13 -2 0 14 70 34 121 35 46 1 63 -4 102 -30z"/>
<path d="M987 359 c-12 -17 -13 -25 -4 -41 15 -23 55 -21 71 5 26 41 -39 76
-67 36z m51 -21 c-4 -27 -33 -36 -42 -13 -8 22 1 35 25 35 15 0 20 -6 17 -22z"/>
<path d="M1279 521 l-29 -29 0 -151 c0 -147 1 -153 26 -191 15 -22 29 -40 31
-40 2 0 2 3 0 8 -3 4 13 7 35 8 32 0 46 6 64 28 29 33 30 48 4 71 -19 17 -19
17 -8 -13 10 -26 9 -34 -7 -51 -21 -24 -68 -27 -87 -6 -43 48 -43 47 -42 177
0 113 2 131 21 155 25 34 70 41 98 16 46 -40 107 -85 111 -81 2 3 -25 32 -60
66 -76 74 -109 80 -157 33z"/>
<path d="M1510 522 c-35 -36 -36 -39 -11 -71 l19 -25 -3 34 c-1 23 3 39 14 47
21 16 85 17 75 1 -4 -6 -3 -8 4 -4 6 3 18 -4 26 -16 13 -18 16 -52 16 -163 0
-135 -1 -143 -23 -163 -36 -34 -71 -28 -125 21 -26 23 -58 51 -71 62 -24 20
-24 20 -13 0 6 -11 36 -44 67 -74 52 -50 58 -53 93 -48 22 4 46 17 60 32 21
25 22 35 22 184 0 182 -6 198 -79 208 -35 5 -44 2 -71 -25z"/>
<path d="M1760 532 c-51 -25 -83 -78 -77 -126 3 -22 14 -51 25 -65 21 -29 67
-55 85 -48 7 3 0 10 -15 15 -20 8 -26 16 -22 29 4 13 3 15 -4 5 -7 -11 -14 -8
-31 14 -28 36 -28 88 2 109 12 8 21 19 20 23 -2 4 2 7 7 7 6 0 15 7 20 15 7
11 32 16 94 18 122 6 186 -29 170 -93 -5 -19 -13 -25 -33 -25 -20 0 -23 -2
-11 -10 20 -13 26 -12 44 6 9 9 16 32 16 54 0 30 -6 43 -31 64 -28 24 -38 26
-127 26 -72 0 -106 -4 -132 -18z"/>
<path d="M2219 537 c-127 -47 -176 -177 -114 -303 60 -122 211 -147 319 -53
47 42 63 75 70 150 13 137 -144 254 -275 206z m123 -22 c38 -7 95 -60 120
-108 15 -31 19 -53 16 -94 -5 -59 -23 -90 -81 -137 -79 -64 -201 -41 -265 49
-28 41 -32 53 -32 114 0 68 1 70 45 116 44 47 112 77 155 69 8 -1 27 -5 42 -9z"/>
<path d="M2264 372 c-18 -12 -23 -50 -9 -62 19 -15 56 -9 69 12 8 13 6 22 -8
37 -20 22 -34 26 -52 13z m41 -37 c0 -30 -39 -27 -43 3 -3 20 0 23 20 20 15
-2 23 -10 23 -23z"/>
<path d="M2563 540 c-39 -16 -46 -46 -46 -197 1 -116 4 -148 17 -168 22 -33
58 -49 91 -41 43 11 98 76 65 76 -5 0 -10 -6 -10 -14 0 -19 -44 -46 -73 -46
-26 0 -52 22 -39 34 4 4 0 6 -8 4 -8 -2 -15 2 -15 7 -1 6 -5 18 -9 28 -14 31
-1 248 15 258 8 5 10 9 6 9 -5 0 -1 8 9 17 19 20 117 29 190 18 34 -5 55 -15
80 -42 19 -19 32 -38 29 -43 -3 -4 2 -11 11 -14 13 -5 16 -17 12 -62 -3 -31
-9 -59 -14 -62 -21 -16 -46 -52 -36 -52 21 0 63 76 71 129 5 33 4 51 -2 51 -6
0 -8 3 -4 6 12 12 -74 91 -112 102 -45 14 -196 15 -228 2z"/>
<path d="M596 404 c-19 -48 8 -75 45 -45 19 15 20 20 8 39 -16 26 -44 29 -53
6z m42 -21 c-5 -26 -38 -29 -38 -4 0 15 6 21 21 21 14 0 19 -5 17 -17z"/>
<path d="M2696 407 c-24 -18 -18 -61 10 -65 31 -4 50 23 36 53 -13 28 -21 30
-46 12z m34 -26 c0 -10 -6 -21 -14 -24 -19 -7 -25 0 -19 24 7 25 33 25 33 0z"/>
<path d="M316 372 c78 -50 85 -158 12 -202 -56 -34 -275 -25 -253 11 4 5 0 9
-7 9 -9 0 -15 14 -16 36 -2 30 0 35 13 30 10 -3 14 -2 10 5 -5 7 6 8 32 4 34
-5 35 -4 13 6 -14 6 -32 15 -41 19 -37 19 -67 -42 -45 -94 23 -55 48 -66 151
-66 146 0 205 40 205 140 0 36 -6 53 -27 77 -16 17 -39 34 -53 38 -22 6 -21 4
6 -13z"/>
<path d="M1955 380 c4 -6 11 -10 17 -10 16 0 46 -38 58 -76 16 -46 -1 -93 -43
-121 -29 -20 -46 -23 -133 -23 -88 1 -102 3 -127 24 -23 18 -28 30 -25 57 3
33 4 34 50 34 25 0 50 4 55 9 4 5 3 6 -4 2 -6 -3 -29 0 -51 7 -39 14 -40 13
-56 -14 -24 -40 -20 -64 18 -103 l33 -36 92 0 c105 0 145 13 184 59 50 60 25
166 -44 190 -18 6 -27 6 -24 1z"/>
<path d="M2932 362 c-1 -18 -6 -31 -11 -28 -5 4 -12 -7 -16 -24 -4 -16 -20
-41 -37 -55 -31 -26 -30 -32 3 -15 17 10 19 7 19 -19 0 -37 -34 -71 -71 -71
-18 0 -40 12 -64 36 -50 48 -59 34 -10 -16 51 -52 84 -53 132 -5 31 31 34 39
28 74 -5 30 -3 40 10 45 9 3 13 11 9 17 -3 6 -1 15 5 19 7 4 11 21 8 41 l-4
34 -1 -33z"/>
<path d="M746 245 c-22 -19 -47 -35 -56 -35 -10 0 -23 -7 -30 -15 -10 -12 -10
-15 3 -15 9 0 26 4 39 9 13 5 26 9 31 10 13 2 45 39 52 60 8 27 7 27 -39 -14z"/>
<path d="M2923 219 c-4 -44 -38 -84 -81 -94 -44 -11 -47 -25 -5 -25 54 0 97
43 99 98 1 35 -11 54 -13 21z"/>
<path d="M1197 194 c-21 -29 -89 -74 -112 -74 -8 0 -15 -5 -15 -11 0 -8 -17
-9 -52 -6 -34 4 -47 3 -38 -3 23 -14 123 -13 114 2 -4 7 -3 8 4 4 7 -4 18 -4
25 1 6 4 18 8 25 9 18 3 68 60 75 84 7 27 -4 25 -26 -6z"/>
<path d="M2043 188 c-32 -54 -82 -73 -190 -72 -50 0 -89 -4 -87 -8 9 -14 199
-9 236 7 32 13 80 65 61 65 -5 0 -3 4 4 8 7 4 9 13 4 21 -6 9 -14 3 -28 -21z"/>
<path d="M2456 186 c-22 -34 -138 -88 -171 -80 -15 4 -25 2 -25 -5 0 -7 20
-11 50 -11 28 0 50 4 50 10 0 5 6 7 14 4 8 -3 17 0 21 5 3 6 10 9 15 6 5 -3
14 4 20 16 7 11 14 18 17 15 9 -9 34 15 27 25 -3 5 2 12 10 15 9 3 13 10 10
15 -9 15 -21 10 -38 -15z"/>
<path d="M375 169 c-38 -42 -97 -59 -196 -56 -56 2 -84 0 -74 -5 13 -8 202 -5
243 3 17 3 55 56 50 70 -2 6 -12 1 -23 -12z"/>
<path d="M589 148 c-27 -29 -44 -38 -68 -38 -19 0 -30 -4 -26 -10 8 -14 58
-13 89 2 32 14 55 48 47 69 -5 12 -13 8 -42 -23z"/>
<path d="M2689 154 c-16 -16 -43 -28 -75 -33 -50 -9 -47 -12 19 -16 40 -2 79
24 85 58 4 22 1 22 -29 -9z"/>
<path d="M1412 139 c-21 -19 -43 -29 -63 -29 -17 0 -28 -4 -24 -10 8 -13 75
-13 75 1 0 5 5 7 10 4 6 -3 10 -1 10 5 0 6 5 8 10 5 6 -3 10 0 10 9 0 8 4 16
10 18 5 2 6 8 2 15 -5 8 -17 2 -40 -18z"/>
<path d="M1663 157 c-17 -28 -68 -54 -98 -51 -22 2 -26 1 -15 -6 20 -13 80
-12 80 1 0 5 4 8 9 4 5 -3 19 8 30 24 12 17 17 32 12 36 -5 3 -13 -1 -18 -8z"/>
</g>
</svg>
