<svg xmlns="http://www.w3.org/2000/svg" xmlns:v="https://svgstorm.com"
viewBox = "0 0 441 142"
width="441"
height="142">
<g fill="#cbd5e1f7" fill-opacity="0.0" stroke="#000000" stroke-opacity="0.00" stroke-width="0.3"><path d="
M 0.00 142.00 
L 441.00 142.00
L 441.00 0.00
L 0.00 0.00
L 0.00 142.00
M 80.00 76.00 
C 82.34 66.50 86.35 61.60 88.78 51.78 C 91.20 41.96 100.10 43.58 109.67 43.33 C 119.24 43.08 125.99 53.93 124.00 63.00 C 122.01 72.07 120.80 80.41 115.00 88.00
C 127.97 82.51 128.39 67.35 135.30 56.30 C 142.21 45.25 157.14 38.13 167.75 49.25 C 178.36 60.38 167.54 76.84 163.00 88.00
C 169.80 85.59 173.00 80.14 174.98 72.98 C 176.95 65.81 181.17 60.53 182.32 52.32 C 183.48 44.11 191.98 43.85 198.68 43.68 C 205.38 43.50 214.07 44.60 217.92 51.08 C 221.77 57.56 217.13 66.69 215.22 73.22 C 213.32 79.76 209.70 87.93 209.00 95.00
C 218.79 89.96 218.74 78.92 225.75 70.75 C 232.77 62.58 249.33 65.37 255.00 74.00
C 254.87 71.05 252.12 68.98 252.00 66.00
C 244.16 67.66 236.28 59.46 246.00 55.00
C 241.32 46.78 244.57 33.45 256.00 35.00 C 267.43 36.55 267.58 47.40 262.08 55.08 C 256.57 62.75 268.84 70.25 269.00 78.00
C 274.54 64.24 279.99 40.56 300.67 44.33 C 321.35 48.10 314.97 75.16 306.00 88.00
C 318.58 81.78 321.47 64.79 327.00 53.00
C 318.16 49.77 319.70 34.36 330.00 35.00 C 340.31 35.64 346.20 43.58 341.00 53.00
C 346.96 56.37 357.12 55.64 359.00 63.00
C 362.54 57.84 366.81 53.64 370.75 48.75 C 374.69 43.87 377.24 37.99 380.92 32.92 C 384.60 27.85 385.99 19.65 389.92 14.92 C 393.86 10.20 405.35 17.30 400.23 23.23 C 395.10 29.16 396.35 34.94 391.08 41.08 C 385.80 47.21 387.07 49.51 380.25 56.25 C 373.42 62.99 377.39 65.58 387.22 65.78 C 397.06 65.98 396.78 59.79 399.78 52.78 C 402.77 45.76 402.66 39.82 405.80 33.75 C 408.94 27.68 408.29 20.76 412.93 14.93 C 417.56 9.09 428.36 17.67 423.22 24.22 C 418.09 30.78 420.29 37.03 416.68 43.68 C 413.07 50.32 412.26 56.98 410.00 64.00
C 423.61 69.17 402.59 73.78 403.02 83.02 C 403.45 92.27 395.00 107.47 386.78 101.22 C 378.55 94.97 393.25 82.45 392.00 74.00
C 385.26 72.71 378.08 72.96 371.00 73.00
C 380.29 79.99 367.87 90.30 363.25 98.25 C 358.63 106.20 338.60 106.71 337.03 94.97 C 335.45 83.24 341.40 72.42 345.00 62.00
C 342.83 60.78 340.66 59.58 338.00 60.00
C 331.62 76.10 323.61 103.62 300.00 95.00
C 294.76 108.11 267.57 107.46 268.00 91.00
C 260.29 107.46 237.51 107.07 225.00 97.00
C 218.01 109.86 195.18 104.19 197.00 90.00 C 198.82 75.81 207.12 66.01 206.00 52.00
C 188.04 63.20 185.34 86.12 178.00 104.00
C 172.91 104.29 164.23 103.13 166.00 96.00
C 162.73 96.70 160.23 94.57 157.00 95.00
C 151.70 106.30 131.27 107.83 126.00 96.00
C 120.56 96.04 115.12 96.29 110.00 95.00
C 104.22 104.70 92.71 106.49 83.00 103.00
C 82.88 112.60 75.82 116.38 75.22 126.22 C 74.62 136.07 59.39 135.42 61.93 125.93 C 64.46 116.44 68.21 111.35 70.00 102.00
C 63.51 107.34 56.42 109.72 48.00 110.00 C 39.58 110.28 30.67 108.60 23.77 104.23 C 16.87 99.86 13.01 93.90 12.01 85.99 C 11.00 78.08 13.23 68.36 18.77 62.77 C 24.31 57.18 32.83 53.01 41.00 55.00 C 49.17 56.99 54.44 59.14 58.97 67.03 C 63.50 74.92 57.56 83.73 48.00 76.00
C 51.30 63.07 36.97 60.21 30.30 68.30 C 23.64 76.39 22.37 85.63 27.31 94.69 C 32.24 103.76 44.83 104.16 53.23 99.23 C 61.63 94.29 66.27 87.64 67.00 77.00 C 67.72 66.36 61.27 60.16 58.68 49.32 C 56.09 38.48 45.85 39.14 35.93 36.07 C 26.00 33.00 21.95 30.10 15.70 20.30 C 9.44 10.51 23.81 9.64 27.77 20.23 C 31.73 30.82 43.85 31.11 53.00 31.00
C 51.24 20.92 57.03 11.04 67.00 10.00 C 76.98 8.96 86.29 22.10 78.69 29.69 C 71.10 37.29 64.38 39.11 70.78 49.22 C 77.17 59.33 76.55 65.86 80.00 76.00 Z"/>
</g>
<g fill="None" fill-opacity="0.0" stroke="#cbd5e1f7" stroke-opacity="0.87" stroke-width="0.3"><path d="
M 80.00 76.00 
C 76.55 65.86 77.17 59.33 70.78 49.22 C 64.38 39.11 71.10 37.29 78.69 29.69 C 86.29 22.10 76.98 8.96 67.00 10.00 C 57.03 11.04 51.24 20.92 53.00 31.00
C 43.85 31.11 31.73 30.82 27.77 20.23 C 23.81 9.64 9.44 10.51 15.70 20.30 C 21.95 30.10 26.00 33.00 35.93 36.07 C 45.85 39.14 56.09 38.48 58.68 49.32 C 61.27 60.16 67.72 66.36 67.00 77.00 C 66.27 87.64 61.63 94.29 53.23 99.23 C 44.83 104.16 32.24 103.76 27.31 94.69 C 22.37 85.63 23.64 76.39 30.30 68.30 C 36.97 60.21 51.30 63.07 48.00 76.00
C 57.56 83.73 63.50 74.92 58.97 67.03 C 54.44 59.14 49.17 56.99 41.00 55.00 C 32.83 53.01 24.31 57.18 18.77 62.77 C 13.23 68.36 11.00 78.08 12.01 85.99 C 13.01 93.90 16.87 99.86 23.77 104.23 C 30.67 108.60 39.58 110.28 48.00 110.00 C 56.42 109.72 63.51 107.34 70.00 102.00
C 68.21 111.35 64.46 116.44 61.93 125.93 C 59.39 135.42 74.62 136.07 75.22 126.22 C 75.82 116.38 82.88 112.60 83.00 103.00
C 92.71 106.49 104.22 104.70 110.00 95.00
C 115.12 96.29 120.56 96.04 126.00 96.00
C 131.27 107.83 151.70 106.30 157.00 95.00
C 160.23 94.57 162.73 96.70 166.00 96.00
C 164.23 103.13 172.91 104.29 178.00 104.00
C 185.34 86.12 188.04 63.20 206.00 52.00
C 207.12 66.01 198.82 75.81 197.00 90.00 C 195.18 104.19 218.01 109.86 225.00 97.00
C 237.51 107.07 260.29 107.46 268.00 91.00
C 267.57 107.46 294.76 108.11 300.00 95.00
C 323.61 103.62 331.62 76.10 338.00 60.00
C 340.66 59.58 342.83 60.78 345.00 62.00
C 341.40 72.42 335.45 83.24 337.03 94.97 C 338.60 106.71 358.63 106.20 363.25 98.25 C 367.87 90.30 380.29 79.99 371.00 73.00
C 378.08 72.96 385.26 72.71 392.00 74.00
C 393.25 82.45 378.55 94.97 386.78 101.22 C 395.00 107.47 403.45 92.27 403.02 83.02 C 402.59 73.78 423.61 69.17 410.00 64.00
C 412.26 56.98 413.07 50.32 416.68 43.68 C 420.29 37.03 418.09 30.78 423.22 24.22 C 428.36 17.67 417.56 9.09 412.93 14.93 C 408.29 20.76 408.94 27.68 405.80 33.75 C 402.66 39.82 402.77 45.76 399.78 52.78 C 396.78 59.79 397.06 65.98 387.22 65.78 C 377.39 65.58 373.42 62.99 380.25 56.25 C 387.07 49.51 385.80 47.21 391.08 41.08 C 396.35 34.94 395.10 29.16 400.23 23.23 C 405.35 17.30 393.86 10.20 389.92 14.92 C 385.99 19.65 384.60 27.85 380.92 32.92 C 377.24 37.99 374.69 43.87 370.75 48.75 C 366.81 53.64 362.54 57.84 359.00 63.00
C 357.12 55.64 346.96 56.37 341.00 53.00
C 346.20 43.58 340.31 35.64 330.00 35.00 C 319.70 34.36 318.16 49.77 327.00 53.00
C 321.47 64.79 318.58 81.78 306.00 88.00
C 314.97 75.16 321.35 48.10 300.67 44.33 C 279.99 40.56 274.54 64.24 269.00 78.00
C 268.84 70.25 256.57 62.75 262.08 55.08 C 267.58 47.40 267.43 36.55 256.00 35.00 C 244.57 33.45 241.32 46.78 246.00 55.00
C 236.28 59.46 244.16 67.66 252.00 66.00
C 252.12 68.98 254.87 71.05 255.00 74.00
C 249.33 65.37 232.77 62.58 225.75 70.75 C 218.74 78.92 218.79 89.96 209.00 95.00
C 209.70 87.93 213.32 79.76 215.22 73.22 C 217.13 66.69 221.77 57.56 217.92 51.08 C 214.07 44.60 205.38 43.50 198.68 43.68 C 191.98 43.85 183.48 44.11 182.32 52.32 C 181.17 60.53 176.95 65.81 174.98 72.98 C 173.00 80.14 169.80 85.59 163.00 88.00
C 167.54 76.84 178.36 60.38 167.75 49.25 C 157.14 38.13 142.21 45.25 135.30 56.30 C 128.39 67.35 127.97 82.51 115.00 88.00
C 120.80 80.41 122.01 72.07 124.00 63.00 C 125.99 53.93 119.24 43.08 109.67 43.33 C 100.10 43.58 91.20 41.96 88.78 51.78 C 86.35 61.60 82.34 66.50 80.00 76.00
M 158.00 52.00 
C 160.60 58.99 158.00 66.37 156.00 73.00
C 147.23 68.38 146.72 81.60 149.00 87.00
C 144.93 89.50 142.57 94.45 138.00 96.00
C 136.33 80.25 143.49 60.03 158.00 52.00
M 299.00 73.00 
C 290.03 68.34 289.68 81.55 292.00 87.00
C 287.93 89.50 285.57 94.45 281.00 96.00
C 279.43 88.49 281.23 78.77 284.92 71.92 C 288.62 65.08 289.27 58.66 296.75 53.75 C 304.23 48.85 302.36 68.36 299.00 73.00
M 111.00 53.00 
C 113.36 59.69 110.28 66.73 108.00 73.00
C 98.67 68.43 101.95 81.26 101.00 86.00 C 100.05 90.74 93.47 95.57 89.00 96.00
C 91.46 80.44 97.28 61.69 111.00 53.00
M 363.00 72.00 
C 360.31 80.13 356.45 90.44 349.00 95.00
C 348.50 86.00 353.80 78.57 355.00 70.00
C 357.52 71.14 360.08 72.24 363.00 72.00
M 243.00 74.00 
C 242.56 81.33 249.85 83.29 256.00 83.00
C 256.07 91.60 243.85 99.74 236.75 94.25 C 229.66 88.75 234.11 74.35 243.00 74.00 Z"/>
</g>
<g fill="None" fill-opacity="0.0" stroke="#000000" stroke-opacity="0.00" stroke-width="0.3"><path d="
M 158.00 52.00 
C 143.49 60.03 136.33 80.25 138.00 96.00
C 142.57 94.45 144.93 89.50 149.00 87.00
C 146.72 81.60 147.23 68.38 156.00 73.00
C 158.00 66.37 160.60 58.99 158.00 52.00 Z"/>
</g>
<g fill="None" fill-opacity="0.0" stroke="#000000" stroke-opacity="0.00" stroke-width="0.3"><path d="
M 299.00 73.00 
C 302.36 68.36 304.23 48.85 296.75 53.75 C 289.27 58.66 288.62 65.08 284.92 71.92 C 281.23 78.77 279.43 88.49 281.00 96.00
C 285.57 94.45 287.93 89.50 292.00 87.00
C 289.68 81.55 290.03 68.34 299.00 73.00 Z"/>
</g>
<g fill="None" fill-opacity="0.0" stroke="#000000" stroke-opacity="0.00" stroke-width="0.3"><path d="
M 111.00 53.00 
C 97.28 61.69 91.46 80.44 89.00 96.00
C 93.47 95.57 100.05 90.74 101.00 86.00 C 101.95 81.26 98.67 68.43 108.00 73.00
C 110.28 66.73 113.36 59.69 111.00 53.00 Z"/>
</g>
<g fill="None" fill-opacity="0.0" stroke="#000000" stroke-opacity="0.00" stroke-width="0.3"><path d="
M 363.00 72.00 
C 360.08 72.24 357.52 71.14 355.00 70.00
C 353.80 78.57 348.50 86.00 349.00 95.00
C 356.45 90.44 360.31 80.13 363.00 72.00 Z"/>
</g>
<g fill="None" fill-opacity="0.0" stroke="#000000" stroke-opacity="0.00" stroke-width="0.3"><path d="
M 243.00 74.00 
C 234.11 74.35 229.66 88.75 236.75 94.25 C 243.85 99.74 256.07 91.60 256.00 83.00
C 249.85 83.29 242.56 81.33 243.00 74.00 Z"/>
</g>
<g fill="#000000" fill-opacity="0.00" stroke="None">
<path d="
M 0.00 142.00 
L 441.00 142.00
L 441.00 0.00
L 0.00 0.00
L 0.00 142.00
M 80.00 76.00 
C 82.34 66.50 86.35 61.60 88.78 51.78 C 91.20 41.96 100.10 43.58 109.67 43.33 C 119.24 43.08 125.99 53.93 124.00 63.00 C 122.01 72.07 120.80 80.41 115.00 88.00
C 127.97 82.51 128.39 67.35 135.30 56.30 C 142.21 45.25 157.14 38.13 167.75 49.25 C 178.36 60.38 167.54 76.84 163.00 88.00
C 169.80 85.59 173.00 80.14 174.98 72.98 C 176.95 65.81 181.17 60.53 182.32 52.32 C 183.48 44.11 191.98 43.85 198.68 43.68 C 205.38 43.50 214.07 44.60 217.92 51.08 C 221.77 57.56 217.13 66.69 215.22 73.22 C 213.32 79.76 209.70 87.93 209.00 95.00
C 218.79 89.96 218.74 78.92 225.75 70.75 C 232.77 62.58 249.33 65.37 255.00 74.00
C 254.87 71.05 252.12 68.98 252.00 66.00
C 244.16 67.66 236.28 59.46 246.00 55.00
C 241.32 46.78 244.57 33.45 256.00 35.00 C 267.43 36.55 267.58 47.40 262.08 55.08 C 256.57 62.75 268.84 70.25 269.00 78.00
C 274.54 64.24 279.99 40.56 300.67 44.33 C 321.35 48.10 314.97 75.16 306.00 88.00
C 318.58 81.78 321.47 64.79 327.00 53.00
C 318.16 49.77 319.70 34.36 330.00 35.00 C 340.31 35.64 346.20 43.58 341.00 53.00
C 346.96 56.37 357.12 55.64 359.00 63.00
C 362.54 57.84 366.81 53.64 370.75 48.75 C 374.69 43.87 377.24 37.99 380.92 32.92 C 384.60 27.85 385.99 19.65 389.92 14.92 C 393.86 10.20 405.35 17.30 400.23 23.23 C 395.10 29.16 396.35 34.94 391.08 41.08 C 385.80 47.21 387.07 49.51 380.25 56.25 C 373.42 62.99 377.39 65.58 387.22 65.78 C 397.06 65.98 396.78 59.79 399.78 52.78 C 402.77 45.76 402.66 39.82 405.80 33.75 C 408.94 27.68 408.29 20.76 412.93 14.93 C 417.56 9.09 428.36 17.67 423.22 24.22 C 418.09 30.78 420.29 37.03 416.68 43.68 C 413.07 50.32 412.26 56.98 410.00 64.00
C 423.61 69.17 402.59 73.78 403.02 83.02 C 403.45 92.27 395.00 107.47 386.78 101.22 C 378.55 94.97 393.25 82.45 392.00 74.00
C 385.26 72.71 378.08 72.96 371.00 73.00
C 380.29 79.99 367.87 90.30 363.25 98.25 C 358.63 106.20 338.60 106.71 337.03 94.97 C 335.45 83.24 341.40 72.42 345.00 62.00
C 342.83 60.78 340.66 59.58 338.00 60.00
C 331.62 76.10 323.61 103.62 300.00 95.00
C 294.76 108.11 267.57 107.46 268.00 91.00
C 260.29 107.46 237.51 107.07 225.00 97.00
C 218.01 109.86 195.18 104.19 197.00 90.00 C 198.82 75.81 207.12 66.01 206.00 52.00
C 188.04 63.20 185.34 86.12 178.00 104.00
C 172.91 104.29 164.23 103.13 166.00 96.00
C 162.73 96.70 160.23 94.57 157.00 95.00
C 151.70 106.30 131.27 107.83 126.00 96.00
C 120.56 96.04 115.12 96.29 110.00 95.00
C 104.22 104.70 92.71 106.49 83.00 103.00
C 82.88 112.60 75.82 116.38 75.22 126.22 C 74.62 136.07 59.39 135.42 61.93 125.93 C 64.46 116.44 68.21 111.35 70.00 102.00
C 63.51 107.34 56.42 109.72 48.00 110.00 C 39.58 110.28 30.67 108.60 23.77 104.23 C 16.87 99.86 13.01 93.90 12.01 85.99 C 11.00 78.08 13.23 68.36 18.77 62.77 C 24.31 57.18 32.83 53.01 41.00 55.00 C 49.17 56.99 54.44 59.14 58.97 67.03 C 63.50 74.92 57.56 83.73 48.00 76.00
C 51.30 63.07 36.97 60.21 30.30 68.30 C 23.64 76.39 22.37 85.63 27.31 94.69 C 32.24 103.76 44.83 104.16 53.23 99.23 C 61.63 94.29 66.27 87.64 67.00 77.00 C 67.72 66.36 61.27 60.16 58.68 49.32 C 56.09 38.48 45.85 39.14 35.93 36.07 C 26.00 33.00 21.95 30.10 15.70 20.30 C 9.44 10.51 23.81 9.64 27.77 20.23 C 31.73 30.82 43.85 31.11 53.00 31.00
C 51.24 20.92 57.03 11.04 67.00 10.00 C 76.98 8.96 86.29 22.10 78.69 29.69 C 71.10 37.29 64.38 39.11 70.78 49.22 C 77.17 59.33 76.55 65.86 80.00 76.00 Z"/>
</g>
<g fill="#cbd5e1f7" fill-opacity="0.87" stroke="None">
<path d="
M 80.00 76.00 
C 76.55 65.86 77.17 59.33 70.78 49.22 C 64.38 39.11 71.10 37.29 78.69 29.69 C 86.29 22.10 76.98 8.96 67.00 10.00 C 57.03 11.04 51.24 20.92 53.00 31.00
C 43.85 31.11 31.73 30.82 27.77 20.23 C 23.81 9.64 9.44 10.51 15.70 20.30 C 21.95 30.10 26.00 33.00 35.93 36.07 C 45.85 39.14 56.09 38.48 58.68 49.32 C 61.27 60.16 67.72 66.36 67.00 77.00 C 66.27 87.64 61.63 94.29 53.23 99.23 C 44.83 104.16 32.24 103.76 27.31 94.69 C 22.37 85.63 23.64 76.39 30.30 68.30 C 36.97 60.21 51.30 63.07 48.00 76.00
C 57.56 83.73 63.50 74.92 58.97 67.03 C 54.44 59.14 49.17 56.99 41.00 55.00 C 32.83 53.01 24.31 57.18 18.77 62.77 C 13.23 68.36 11.00 78.08 12.01 85.99 C 13.01 93.90 16.87 99.86 23.77 104.23 C 30.67 108.60 39.58 110.28 48.00 110.00 C 56.42 109.72 63.51 107.34 70.00 102.00
C 68.21 111.35 64.46 116.44 61.93 125.93 C 59.39 135.42 74.62 136.07 75.22 126.22 C 75.82 116.38 82.88 112.60 83.00 103.00
C 92.71 106.49 104.22 104.70 110.00 95.00
C 115.12 96.29 120.56 96.04 126.00 96.00
C 131.27 107.83 151.70 106.30 157.00 95.00
C 160.23 94.57 162.73 96.70 166.00 96.00
C 164.23 103.13 172.91 104.29 178.00 104.00
C 185.34 86.12 188.04 63.20 206.00 52.00
C 207.12 66.01 198.82 75.81 197.00 90.00 C 195.18 104.19 218.01 109.86 225.00 97.00
C 237.51 107.07 260.29 107.46 268.00 91.00
C 267.57 107.46 294.76 108.11 300.00 95.00
C 323.61 103.62 331.62 76.10 338.00 60.00
C 340.66 59.58 342.83 60.78 345.00 62.00
C 341.40 72.42 335.45 83.24 337.03 94.97 C 338.60 106.71 358.63 106.20 363.25 98.25 C 367.87 90.30 380.29 79.99 371.00 73.00
C 378.08 72.96 385.26 72.71 392.00 74.00
C 393.25 82.45 378.55 94.97 386.78 101.22 C 395.00 107.47 403.45 92.27 403.02 83.02 C 402.59 73.78 423.61 69.17 410.00 64.00
C 412.26 56.98 413.07 50.32 416.68 43.68 C 420.29 37.03 418.09 30.78 423.22 24.22 C 428.36 17.67 417.56 9.09 412.93 14.93 C 408.29 20.76 408.94 27.68 405.80 33.75 C 402.66 39.82 402.77 45.76 399.78 52.78 C 396.78 59.79 397.06 65.98 387.22 65.78 C 377.39 65.58 373.42 62.99 380.25 56.25 C 387.07 49.51 385.80 47.21 391.08 41.08 C 396.35 34.94 395.10 29.16 400.23 23.23 C 405.35 17.30 393.86 10.20 389.92 14.92 C 385.99 19.65 384.60 27.85 380.92 32.92 C 377.24 37.99 374.69 43.87 370.75 48.75 C 366.81 53.64 362.54 57.84 359.00 63.00
C 357.12 55.64 346.96 56.37 341.00 53.00
C 346.20 43.58 340.31 35.64 330.00 35.00 C 319.70 34.36 318.16 49.77 327.00 53.00
C 321.47 64.79 318.58 81.78 306.00 88.00
C 314.97 75.16 321.35 48.10 300.67 44.33 C 279.99 40.56 274.54 64.24 269.00 78.00
C 268.84 70.25 256.57 62.75 262.08 55.08 C 267.58 47.40 267.43 36.55 256.00 35.00 C 244.57 33.45 241.32 46.78 246.00 55.00
C 236.28 59.46 244.16 67.66 252.00 66.00
C 252.12 68.98 254.87 71.05 255.00 74.00
C 249.33 65.37 232.77 62.58 225.75 70.75 C 218.74 78.92 218.79 89.96 209.00 95.00
C 209.70 87.93 213.32 79.76 215.22 73.22 C 217.13 66.69 221.77 57.56 217.92 51.08 C 214.07 44.60 205.38 43.50 198.68 43.68 C 191.98 43.85 183.48 44.11 182.32 52.32 C 181.17 60.53 176.95 65.81 174.98 72.98 C 173.00 80.14 169.80 85.59 163.00 88.00
C 167.54 76.84 178.36 60.38 167.75 49.25 C 157.14 38.13 142.21 45.25 135.30 56.30 C 128.39 67.35 127.97 82.51 115.00 88.00
C 120.80 80.41 122.01 72.07 124.00 63.00 C 125.99 53.93 119.24 43.08 109.67 43.33 C 100.10 43.58 91.20 41.96 88.78 51.78 C 86.35 61.60 82.34 66.50 80.00 76.00
M 158.00 52.00 
C 160.60 58.99 158.00 66.37 156.00 73.00
C 147.23 68.38 146.72 81.60 149.00 87.00
C 144.93 89.50 142.57 94.45 138.00 96.00
C 136.33 80.25 143.49 60.03 158.00 52.00
M 299.00 73.00 
C 290.03 68.34 289.68 81.55 292.00 87.00
C 287.93 89.50 285.57 94.45 281.00 96.00
C 279.43 88.49 281.23 78.77 284.92 71.92 C 288.62 65.08 289.27 58.66 296.75 53.75 C 304.23 48.85 302.36 68.36 299.00 73.00
M 111.00 53.00 
C 113.36 59.69 110.28 66.73 108.00 73.00
C 98.67 68.43 101.95 81.26 101.00 86.00 C 100.05 90.74 93.47 95.57 89.00 96.00
C 91.46 80.44 97.28 61.69 111.00 53.00
M 363.00 72.00 
C 360.31 80.13 356.45 90.44 349.00 95.00
C 348.50 86.00 353.80 78.57 355.00 70.00
C 357.52 71.14 360.08 72.24 363.00 72.00
M 243.00 74.00 
C 242.56 81.33 249.85 83.29 256.00 83.00
C 256.07 91.60 243.85 99.74 236.75 94.25 C 229.66 88.75 234.11 74.35 243.00 74.00 Z"/>
</g>
<g fill="#000000" fill-opacity="0.00" stroke="None">
<path d="
M 158.00 52.00 
C 143.49 60.03 136.33 80.25 138.00 96.00
C 142.57 94.45 144.93 89.50 149.00 87.00
C 146.72 81.60 147.23 68.38 156.00 73.00
C 158.00 66.37 160.60 58.99 158.00 52.00 Z"/>
</g>
<g fill="#000000" fill-opacity="0.00" stroke="None">
<path d="
M 299.00 73.00 
C 302.36 68.36 304.23 48.85 296.75 53.75 C 289.27 58.66 288.62 65.08 284.92 71.92 C 281.23 78.77 279.43 88.49 281.00 96.00
C 285.57 94.45 287.93 89.50 292.00 87.00
C 289.68 81.55 290.03 68.34 299.00 73.00 Z"/>
</g>
<g fill="#000000" fill-opacity="0.00" stroke="None">
<path d="
M 111.00 53.00 
C 97.28 61.69 91.46 80.44 89.00 96.00
C 93.47 95.57 100.05 90.74 101.00 86.00 C 101.95 81.26 98.67 68.43 108.00 73.00
C 110.28 66.73 113.36 59.69 111.00 53.00 Z"/>
</g>
<g fill="#000000" fill-opacity="0.00" stroke="None">
<path d="
M 363.00 72.00 
C 360.08 72.24 357.52 71.14 355.00 70.00
C 353.80 78.57 348.50 86.00 349.00 95.00
C 356.45 90.44 360.31 80.13 363.00 72.00 Z"/>
</g>
<g fill="#000000" fill-opacity="0.00" stroke="None">
<path d="
M 243.00 74.00 
C 234.11 74.35 229.66 88.75 236.75 94.25 C 243.85 99.74 256.07 91.60 256.00 83.00
C 249.85 83.29 242.56 81.33 243.00 74.00 Z"/>
</g>
</svg>