<svg xmlns="http://www.w3.org/2000/svg" xmlns:v="https://svgstorm.com"
viewBox = "0 0 330 98"
width="330"
height="98">
<g fill="None" fill-opacity="0.0" stroke="#cbd5e1f7" stroke-opacity="0.00" stroke-width="0.3"><path d="
M 0.00 98.00 
L 330.00 98.00
L 330.00 0.00
L 0.00 0.00
L 0.00 98.00
M 74.00 12.00 
C 75.25 12.51 78.02 13.78 79.00 14.00
C 79.88 14.04 81.14 14.18 82.00 14.00
C 82.53 13.89 83.84 12.18 85.00 13.00
C 83.69 17.10 81.76 21.01 80.00 25.00
C 79.79 25.30 79.26 25.75 79.00 26.00
C 76.93 30.96 74.10 35.53 78.00 40.00
C 78.41 40.19 79.00 40.00 79.00 40.00
C 81.64 41.29 85.74 45.42 87.00 48.00
C 87.20 48.40 87.00 49.00 87.00 49.00
C 88.27 50.23 88.51 51.26 89.00 53.00
C 90.77 59.26 91.52 66.05 87.00 72.00
C 85.33 74.73 83.89 77.01 81.00 79.00
C 80.16 79.88 80.25 79.63 79.00 80.00
C 76.54 81.27 74.87 82.21 72.00 83.00
C 70.41 83.62 69.03 83.71 67.00 84.00
C 64.78 84.32 61.86 85.00 59.00 85.00
C 58.50 85.00 58.00 85.00 58.00 85.00
C 55.69 83.68 52.53 83.71 50.00 83.00
C 47.37 82.27 44.76 80.18 42.00 80.00
C 37.88 80.49 32.22 87.34 28.00 89.00
C 27.57 89.17 27.00 89.00 27.00 89.00
C 22.48 92.34 6.64 89.11 12.00 81.00
C 12.20 80.69 12.77 80.26 13.00 80.00
C 15.20 77.51 19.45 77.33 22.00 79.00
C 24.25 80.47 24.35 80.94 22.00 83.00
C 27.15 83.57 31.99 81.87 36.00 79.00
C 36.91 78.09 38.60 77.48 39.00 76.00
C 34.88 71.39 32.68 62.86 36.00 57.00
C 36.49 56.13 37.41 54.84 38.00 54.00
C 39.92 51.27 42.26 49.70 45.00 48.00
C 45.36 47.78 46.00 48.00 46.00 48.00
C 47.18 47.48 49.34 45.69 49.00 44.00
C 48.69 44.04 48.22 43.29 48.00 43.00
C 46.34 40.83 46.98 37.98 49.00 36.00
C 49.25 35.75 49.00 35.00 49.00 35.00
C 46.25 33.21 43.12 28.32 43.00 25.00
C 42.94 23.22 43.50 22.55 44.00 21.00
C 45.73 15.67 48.51 12.82 54.00 11.00
C 55.84 10.39 56.96 10.15 59.00 10.00
C 62.30 9.76 66.75 9.40 70.00 10.00
C 71.46 10.27 72.93 11.41 74.00 12.00
M 149.00 23.00 
C 149.50 23.00 150.00 23.00 150.00 23.00
C 154.58 23.34 158.12 26.97 160.00 31.00
C 160.53 32.15 160.70 32.76 161.00 34.00
C 161.81 35.95 162.49 37.64 163.00 40.00
C 164.50 46.87 164.25 53.41 162.00 60.00
C 160.27 65.06 158.35 68.05 154.00 71.00
C 152.64 71.92 150.85 73.66 149.00 74.00
C 140.50 75.57 132.92 69.43 130.00 62.00
C 129.83 61.57 130.00 61.00 130.00 61.00
C 129.55 58.61 128.74 56.33 128.00 54.00
C 127.85 53.55 128.00 53.00 128.00 53.00
C 128.00 51.33 127.99 49.67 128.00 48.00
C 128.02 44.99 128.52 42.72 129.00 40.00
C 130.09 33.81 132.98 23.71 141.00 23.00
C 141.50 22.96 142.50 23.00 143.00 23.00
C 145.07 22.02 146.95 21.40 149.00 23.00
M 171.00 23.00 
C 173.38 23.21 174.82 23.30 177.00 24.00
C 181.14 25.32 184.26 27.53 187.00 31.00
C 189.17 33.75 191.48 36.49 192.00 40.00
C 193.39 39.74 192.78 37.95 193.00 37.00
C 193.07 36.65 193.09 33.24 193.00 32.00
C 192.88 30.25 192.15 28.02 192.00 26.00
C 191.68 25.04 188.75 24.58 189.00 23.00
C 190.39 23.54 192.25 20.70 193.00 23.00
C 195.42 22.93 198.65 22.48 201.00 23.00
C 201.95 23.21 203.04 22.83 204.00 23.00
C 200.69 25.24 201.67 29.38 200.00 32.00
C 199.64 41.33 200.83 49.97 200.00 59.00
C 199.82 60.96 200.00 63.03 200.00 65.00
C 200.00 66.55 200.31 68.48 200.00 70.00
C 199.80 70.96 200.16 72.03 200.00 73.00
C 195.33 74.27 192.02 71.59 192.00 67.00
C 191.92 66.51 192.00 66.00 192.00 66.00
C 192.49 61.43 190.71 57.33 190.00 53.00
C 189.92 52.51 190.00 52.00 190.00 52.00
C 187.13 46.52 184.81 38.46 178.00 36.00
C 177.56 35.84 177.00 36.00 177.00 36.00
C 175.95 47.63 175.65 61.79 180.00 72.00
C 175.84 73.62 170.15 73.59 166.00 72.00
C 166.67 70.80 167.64 69.42 169.00 69.00
C 169.01 68.50 169.00 68.00 169.00 68.00
C 169.00 58.67 169.00 49.33 169.00 40.00
C 169.00 39.50 169.00 38.50 169.00 38.00
C 169.00 32.75 169.97 26.95 166.00 23.00
C 167.51 21.59 169.45 22.00 171.00 23.00
M 217.00 23.00 
C 220.85 22.86 224.50 22.79 228.00 24.00
C 229.19 24.41 230.78 23.68 232.00 24.00
C 232.00 26.00 232.00 28.00 232.00 30.00
C 232.06 31.48 232.58 34.66 232.00 36.00
C 231.67 36.75 224.26 30.01 223.00 29.00
C 222.64 29.22 222.00 29.00 222.00 29.00
C 218.30 28.67 214.75 30.99 215.00 35.00
C 215.59 36.98 217.53 39.60 219.00 41.00
C 219.90 41.71 222.97 43.39 224.00 44.00
C 226.52 45.19 228.78 46.02 231.00 48.00
C 234.74 51.33 238.48 58.30 235.00 63.00
C 235.00 63.50 235.00 64.00 235.00 64.00
C 234.55 66.03 233.36 67.60 232.00 69.00
C 231.02 70.01 229.39 71.33 228.00 72.00
C 225.97 72.98 223.26 73.79 221.00 74.00
C 219.79 74.11 218.20 74.18 217.00 74.00
C 213.82 73.53 207.50 71.06 206.00 68.00
C 204.80 65.56 205.64 65.33 206.00 63.00
C 206.46 59.98 206.69 56.09 209.00 54.00
C 209.97 55.91 210.59 57.90 211.00 60.00
C 211.08 60.49 211.00 61.00 211.00 61.00
C 212.77 62.24 215.21 65.49 217.00 66.00
C 218.70 66.30 222.36 66.49 224.00 66.00
C 225.14 65.54 226.61 62.08 227.00 61.00
C 227.16 60.56 227.00 60.00 227.00 60.00
C 225.67 54.22 219.35 50.98 215.00 48.00
C 213.76 47.54 213.98 47.68 213.00 47.00
C 210.24 45.10 208.10 42.98 207.00 40.00
C 206.23 37.93 205.84 36.37 206.00 34.00
C 206.17 31.49 207.02 30.86 208.00 29.00
C 208.66 27.24 208.66 27.26 210.00 26.00
C 212.40 23.74 214.66 23.09 217.00 23.00
M 259.00 23.00 
C 259.50 23.00 260.00 23.00 260.00 23.00
C 264.93 23.46 269.41 28.58 271.00 33.00
C 271.16 33.44 271.00 34.00 271.00 34.00
C 273.08 36.56 273.74 41.55 274.00 45.00
C 274.17 47.23 274.19 49.77 274.00 52.00
C 273.78 54.61 272.78 57.49 272.00 60.00
C 271.67 61.08 271.50 61.93 271.00 63.00
C 268.82 67.66 264.78 71.51 260.00 73.00
C 256.69 74.03 254.92 73.79 252.00 73.00
C 246.50 71.51 243.20 68.47 241.00 63.00
C 240.39 61.49 240.28 60.64 240.00 59.00
C 237.37 49.90 235.68 24.36 251.00 23.00
C 251.50 22.96 252.50 23.00 253.00 23.00
C 255.07 22.02 256.95 21.40 259.00 23.00
M 118.00 24.00 
C 118.30 23.76 119.00 24.00 119.00 24.00
C 126.77 25.52 129.74 36.28 125.08 43.08 C 120.41 49.87 111.00 50.01 104.00 46.00
C 103.75 46.26 104.00 47.00 104.00 47.00
C 104.00 55.23 101.95 65.47 107.00 72.00
C 103.13 74.06 98.28 72.52 94.00 73.00
C 93.73 72.94 92.15 72.15 92.00 72.00
C 90.28 70.35 93.61 70.22 94.00 69.00
C 94.29 66.75 94.00 64.27 94.00 62.00
C 94.00 58.00 94.00 54.00 94.00 50.00
C 94.00 49.50 94.00 49.00 94.00 49.00
C 94.00 40.40 95.94 30.09 91.00 23.00
C 98.33 23.00 105.67 23.00 113.00 23.00
C 113.50 23.00 114.00 23.00 114.00 23.00
C 115.75 22.77 116.89 22.86 118.00 24.00
M 302.00 24.00 
C 306.47 25.21 308.55 26.40 310.00 31.00
C 311.08 34.43 310.97 37.11 309.69 40.69 C 308.42 44.28 303.27 44.26 302.00 46.00
C 300.95 47.95 305.02 54.36 306.00 57.00
C 307.15 59.28 308.02 61.54 309.00 64.00
C 309.60 65.13 310.29 66.65 311.00 68.00
C 311.80 69.52 313.36 70.44 314.00 72.00
C 309.12 73.87 302.93 73.26 298.00 72.00
C 298.41 71.17 298.97 70.13 300.00 70.00
C 300.21 69.88 300.00 69.00 300.00 69.00
C 299.90 64.59 297.69 61.22 297.00 57.00
C 296.92 56.51 297.00 56.00 297.00 56.00
C 295.36 53.96 294.25 51.45 293.00 49.00
C 292.63 48.27 292.30 47.75 292.00 47.00
C 290.94 45.98 289.38 45.99 288.00 46.00
C 286.72 50.79 287.33 58.64 288.00 63.00
C 288.52 66.39 288.72 70.33 292.00 72.00
C 290.46 71.63 289.60 73.43 288.00 73.00
C 287.51 73.07 287.00 73.00 287.00 73.00
C 285.00 73.00 283.00 73.00 281.00 73.00
C 280.50 73.00 280.00 73.00 280.00 73.00
C 275.27 73.13 277.44 71.85 278.00 70.00
C 278.33 68.91 278.82 67.13 279.00 66.00
C 279.72 61.59 278.29 55.26 279.00 51.00 C 279.71 46.74 277.87 38.57 279.00 35.00 C 280.13 31.43 275.18 23.73 277.00 23.00
C 277.96 22.62 279.95 23.00 281.00 23.00
C 283.00 23.00 285.00 23.00 287.00 23.00
C 288.67 23.00 290.33 23.00 292.00 23.00
C 295.63 23.00 299.04 23.20 302.00 24.00 Z"/>
</g>
<g fill="None" fill-opacity="0.0" stroke="#cbd5e1f7" stroke-opacity="0.90" stroke-width="0.3"><path d="
M 54.00 11.00 
C 49.84 13.00 45.73 17.71 44.00 21.00
C 43.50 22.55 42.94 23.22 43.00 25.00
C 43.21 26.33 49.94 33.52 49.00 35.00
C 49.00 35.00 49.25 35.75 49.00 36.00
C 49.66 37.36 47.36 40.31 48.00 43.00
C 48.22 43.29 48.69 44.04 49.00 44.00
C 49.80 43.91 53.18 43.14 54.00 45.00
C 51.05 45.13 48.98 47.88 46.00 48.00
C 46.00 48.00 45.36 47.78 45.00 48.00
C 42.95 50.93 39.97 51.98 38.00 54.00
C 37.41 54.84 36.49 56.13 36.00 57.00
C 35.19 58.83 36.13 63.49 35.93 66.08 C 35.73 68.66 39.66 73.59 39.00 76.00
C 38.60 77.48 36.91 78.09 36.00 79.00
C 32.47 82.53 27.26 85.92 22.00 83.00
C 24.35 80.94 24.25 80.47 22.00 79.00
C 18.69 77.79 15.66 80.31 13.00 80.00
C 12.77 80.26 12.20 80.69 12.00 81.00
C 12.25 82.31 12.97 83.95 12.00 86.00
C 15.39 89.90 22.91 88.77 27.00 89.00
C 27.00 89.00 27.57 89.17 28.00 89.00
C 29.73 86.23 39.99 79.87 42.00 80.00
C 44.76 80.18 47.37 82.27 50.00 83.00
C 51.99 83.33 57.02 81.34 58.00 85.00
C 58.00 85.00 58.50 85.00 59.00 85.00
C 62.42 83.51 65.68 83.92 67.00 84.00
C 69.03 83.71 70.41 83.62 72.00 83.00
C 74.15 82.17 76.52 80.73 79.00 80.00
C 80.25 79.63 80.16 79.88 81.00 79.00
C 83.05 76.85 85.35 74.17 87.00 72.00
C 91.52 66.05 90.77 59.26 89.00 53.00
C 88.57 51.91 87.04 51.82 87.00 49.00
C 87.00 49.00 87.20 48.40 87.00 48.00
C 84.01 45.91 81.05 42.94 79.00 40.00
C 79.00 40.00 78.41 40.19 78.00 40.00
C 71.96 37.26 75.55 29.30 79.00 26.00
C 79.26 25.75 79.79 25.30 80.00 25.00
C 79.34 22.47 84.94 14.46 82.00 14.00
C 81.14 14.18 79.88 14.04 79.00 14.00
C 76.49 13.89 75.84 13.02 74.00 12.00
C 72.93 11.41 71.46 10.27 70.00 10.00
C 67.87 9.81 61.25 10.05 59.00 10.00
C 56.96 10.15 55.84 10.39 54.00 11.00
M 72.00 29.00 
C 71.62 30.32 69.00 38.05 67.00 34.00
C 66.83 33.66 66.85 31.35 67.00 31.00
C 64.71 30.86 62.63 32.45 60.00 32.00
C 55.59 31.25 50.48 21.48 56.00 20.00
C 56.16 19.56 56.00 19.00 56.00 19.00
C 54.34 16.39 64.31 11.00 68.07 14.93 C 71.83 18.85 73.55 23.67 72.00 29.00
M 66.00 41.00 
C 68.83 45.98 59.79 48.15 57.00 45.00
C 58.36 43.49 57.49 40.54 60.00 40.00
C 62.13 38.73 64.50 38.36 66.00 41.00
M 73.00 45.00 
C 75.46 46.12 75.67 48.08 76.00 49.00
C 76.65 50.85 76.26 53.17 79.00 54.00
C 78.08 55.13 77.52 59.86 77.00 56.00
C 75.29 54.92 69.53 49.59 69.00 48.00
C 68.51 46.53 70.63 45.37 69.00 44.00
C 70.56 43.59 71.69 44.46 73.00 45.00
M 60.00 51.00 
C 61.24 52.24 56.13 59.38 55.00 61.00
C 53.67 62.90 51.68 65.77 50.00 67.00
C 49.02 67.71 47.25 69.17 46.00 68.00
C 42.12 64.35 48.19 49.57 52.00 52.00
C 52.35 51.77 53.00 52.00 53.00 52.00
C 54.19 49.38 58.25 49.25 60.00 51.00
M 66.00 54.00 
C 70.07 58.14 63.02 64.23 60.00 59.00
C 59.83 58.70 63.91 51.88 66.00 54.00
M 79.00 60.00 
C 80.81 62.14 80.27 66.27 78.00 68.00
C 77.84 68.44 78.00 69.00 78.00 69.00
C 77.74 71.80 75.57 74.74 73.00 76.00
C 72.60 76.20 72.00 76.00 72.00 76.00
C 71.45 77.53 70.55 79.32 69.00 78.00
C 68.68 78.24 68.00 78.00 68.00 78.00
C 64.28 82.86 48.27 78.81 50.00 73.00
C 50.24 72.20 50.67 70.70 51.00 70.00
C 52.07 67.74 54.40 66.60 56.00 65.00
C 57.05 63.77 58.18 62.34 59.00 61.00
C 60.01 61.55 60.44 62.98 61.00 64.00
C 63.26 65.82 67.70 69.07 70.00 69.00
C 71.82 68.79 72.75 68.07 74.00 67.00
C 76.03 64.73 75.48 61.85 78.00 60.00
C 78.89 59.35 78.20 59.05 79.00 60.00 Z"/>
</g>
<g fill="None" fill-opacity="0.0" stroke="#cbd5e1f7" stroke-opacity="0.81" stroke-width="0.3"><path d="
M 70.00 10.00 
C 66.75 9.40 62.30 9.76 59.00 10.00
C 61.25 10.05 67.87 9.81 70.00 10.00 Z"/>
</g>
<g fill="None" fill-opacity="0.0" stroke="#cbd5e1f7" stroke-opacity="0.40" stroke-width="0.3"><path d="
M 44.00 21.00 
C 45.73 17.71 49.84 13.00 54.00 11.00
C 48.51 12.82 45.73 15.67 44.00 21.00 Z"/>
</g>
<g fill="None" fill-opacity="0.0" stroke="#cbd5e1f7" stroke-opacity="0.36" stroke-width="0.3"><path d="
M 79.00 14.00 
C 78.02 13.78 75.25 12.51 74.00 12.00
C 75.84 13.02 76.49 13.89 79.00 14.00 Z"/>
</g>
<g fill="None" fill-opacity="0.0" stroke="#cbd5e1f7" stroke-opacity="0.22" stroke-width="0.3"><path d="
M 82.00 14.00 
C 84.94 14.46 79.34 22.47 80.00 25.00
C 81.76 21.01 83.69 17.10 85.00 13.00
C 83.84 12.18 82.53 13.89 82.00 14.00 Z"/>
</g>
<g fill="None" fill-opacity="0.0" stroke="#cbd5e1f7" stroke-opacity="0.18" stroke-width="0.3"><path d="
M 56.00 19.00 
C 64.68 12.86 73.65 17.16 72.00 29.00
C 73.55 23.67 71.83 18.85 68.07 14.93 C 64.31 11.00 54.34 16.39 56.00 19.00 Z"/>
</g>
<g fill="None" fill-opacity="0.0" stroke="#000000" stroke-opacity="0.00" stroke-width="0.3"><path d="
M 56.00 19.00 
C 56.00 19.00 56.16 19.56 56.00 20.00
C 54.64 23.83 54.98 30.73 60.00 32.00
C 62.63 32.45 64.71 30.86 67.00 31.00
C 68.69 31.10 69.22 32.01 67.00 34.00
C 69.00 38.05 71.62 30.32 72.00 29.00
C 73.65 17.16 64.68 12.86 56.00 19.00 Z"/>
</g>
<g fill="None" fill-opacity="0.0" stroke="#cbd5e1f7" stroke-opacity="0.18" stroke-width="0.3"><path d="
M 60.00 32.00 
C 54.98 30.73 54.64 23.83 56.00 20.00
C 50.48 21.48 55.59 31.25 60.00 32.00 Z"/>
</g>
<g fill="None" fill-opacity="0.0" stroke="#cbd5e1f7" stroke-opacity="0.06" stroke-width="0.3"><path d="
M 143.00 23.00 
C 145.00 23.00 147.00 23.00 149.00 23.00
C 146.95 21.40 145.07 22.02 143.00 23.00 Z"/>
</g>
<g fill="None" fill-opacity="0.0" stroke="#cbd5e1f7" stroke-opacity="0.32" stroke-width="0.3"><path d="
M 169.00 38.00 
C 170.92 33.49 171.20 27.02 168.00 23.00
C 169.16 22.21 170.53 24.96 171.00 23.00
C 169.45 22.00 167.51 21.59 166.00 23.00
C 169.97 26.95 169.00 32.75 169.00 38.00 Z"/>
</g>
<g fill="None" fill-opacity="0.0" stroke="#cbd5e1f7" stroke-opacity="0.23" stroke-width="0.3"><path d="
M 192.00 26.00 
C 191.89 24.55 190.83 23.69 193.00 23.00
C 192.25 20.70 190.39 23.54 189.00 23.00
C 188.75 24.58 191.68 25.04 192.00 26.00 Z"/>
</g>
<g fill="None" fill-opacity="0.0" stroke="#cbd5e1f7" stroke-opacity="0.33" stroke-width="0.3"><path d="
M 210.00 26.00 
C 211.29 25.13 215.37 23.33 217.00 23.00
C 214.66 23.09 212.40 23.74 210.00 26.00 Z"/>
</g>
<g fill="None" fill-opacity="0.0" stroke="#cbd5e1f7" stroke-opacity="0.06" stroke-width="0.3"><path d="
M 253.00 23.00 
C 255.00 23.00 257.00 23.00 259.00 23.00
C 256.95 21.40 255.07 22.02 253.00 23.00 Z"/>
</g>
<g fill="None" fill-opacity="0.0" stroke="#cbd5e1f7" stroke-opacity="0.37" stroke-width="0.3"><path d="
M 94.00 49.00 
C 98.02 43.57 93.81 31.21 94.00 25.00
C 99.68 22.15 107.73 25.89 113.00 23.00
C 105.67 23.00 98.33 23.00 91.00 23.00
C 95.94 30.09 94.00 40.40 94.00 49.00 Z"/>
</g>
<g fill="None" fill-opacity="0.0" stroke="#cbd5e1f7" stroke-opacity="0.96" stroke-width="0.3"><path d="
M 94.00 49.00 
C 94.00 49.00 94.00 49.50 94.00 50.00
C 96.45 53.32 94.31 58.78 94.00 62.00
C 94.00 64.27 94.29 66.75 94.00 69.00
C 93.84 70.26 91.95 71.34 92.00 72.00
C 92.15 72.15 93.73 72.94 94.00 73.00
C 96.44 72.98 100.81 70.94 104.00 72.00
C 102.79 64.22 102.01 54.34 104.00 47.00
C 104.00 47.00 103.75 46.26 104.00 46.00
C 106.04 43.88 112.55 49.76 116.70 47.65 C 120.84 45.54 126.10 43.02 125.99 36.99 C 125.89 30.96 123.97 26.96 119.00 24.00
C 119.00 24.00 118.30 23.76 118.00 24.00
C 116.84 24.94 115.23 23.95 114.00 23.00
C 114.00 23.00 113.50 23.00 113.00 23.00
C 107.73 25.89 99.68 22.15 94.00 25.00
C 93.81 31.21 98.02 43.57 94.00 49.00
M 112.00 29.00 
C 112.69 29.36 114.24 30.44 115.00 31.00
C 122.14 36.26 114.60 46.37 107.31 41.69 C 100.01 37.01 101.95 23.81 112.00 29.00 Z"/>
</g>
<g fill="None" fill-opacity="0.0" stroke="#cbd5e1f7" stroke-opacity="0.44" stroke-width="0.3"><path d="
M 118.00 24.00 
C 116.89 22.86 115.75 22.77 114.00 23.00
C 115.23 23.95 116.84 24.94 118.00 24.00 Z"/>
</g>
<g fill="None" fill-opacity="0.0" stroke="#cbd5e1f7" stroke-opacity="0.27" stroke-width="0.3"><path d="
M 129.00 40.00 
C 130.76 33.95 134.52 25.30 141.00 23.00
C 132.98 23.71 130.09 33.81 129.00 40.00 Z"/>
</g>
<g fill="None" fill-opacity="0.0" stroke="#cbd5e1f7" stroke-opacity="0.92" stroke-width="0.3"><path d="
M 129.00 40.00 
C 128.52 42.72 128.02 44.99 128.00 48.00
C 128.13 49.86 129.86 50.88 128.00 53.00
C 128.00 53.00 127.85 53.55 128.00 54.00
C 130.16 55.55 131.26 59.09 130.00 61.00
C 130.00 61.00 129.83 61.57 130.00 62.00
C 136.07 65.84 139.10 74.84 149.00 74.00
C 150.85 73.66 152.64 71.92 154.00 71.00
C 157.02 68.18 160.27 63.66 162.00 60.00
C 164.25 53.41 164.50 46.87 163.00 40.00
C 162.44 38.21 161.52 36.16 161.00 34.00
C 160.70 32.76 160.53 32.15 160.00 31.00
C 157.53 27.47 153.18 25.55 150.00 23.00
C 150.00 23.00 149.50 23.00 149.00 23.00
C 147.00 23.00 145.00 23.00 143.00 23.00
C 142.50 23.00 141.50 22.96 141.00 23.00
C 134.52 25.30 130.76 33.95 129.00 40.00
M 150.00 34.00 
C 151.78 37.86 153.71 40.49 154.00 45.00
C 154.32 46.93 154.03 49.32 154.00 51.00
C 154.21 54.53 154.86 57.86 154.00 62.00
C 153.54 64.21 154.21 66.69 151.00 67.00
C 150.50 67.05 150.00 67.00 150.00 67.00
C 145.41 70.67 143.36 62.14 139.00 62.00
C 141.17 56.86 134.18 50.14 138.00 45.00
C 137.75 41.09 136.80 37.71 138.00 34.00
C 140.94 24.89 147.46 28.50 150.00 34.00 Z"/>
</g>
<g fill="None" fill-opacity="0.0" stroke="#cbd5e1f7" stroke-opacity="0.29" stroke-width="0.3"><path d="
M 160.00 31.00 
C 158.12 26.97 154.58 23.34 150.00 23.00
C 153.18 25.55 157.53 27.47 160.00 31.00 Z"/>
</g>
<g fill="None" fill-opacity="0.0" stroke="#cbd5e1f7" stroke-opacity="0.93" stroke-width="0.3"><path d="
M 169.00 38.00 
C 169.00 38.50 169.00 39.50 169.00 40.00
C 171.00 44.70 172.14 63.75 169.00 68.00
C 169.00 68.00 169.01 68.50 169.00 69.00
C 168.99 69.37 169.76 70.92 169.00 72.00
C 171.23 70.72 174.21 72.76 177.00 72.00
C 175.25 60.92 175.34 47.20 177.00 36.00
C 177.00 36.00 177.56 35.84 178.00 36.00
C 176.92 32.10 182.91 37.69 184.75 40.25 C 186.59 42.81 189.93 48.44 190.00 52.00
C 190.00 52.00 189.92 52.51 190.00 53.00
C 192.90 55.22 194.05 63.23 192.00 66.00
C 192.00 66.00 191.92 66.51 192.00 67.00
C 193.19 68.21 195.52 70.23 194.00 72.00
C 196.60 72.34 198.65 72.05 200.00 70.00
C 200.31 68.48 200.00 66.55 200.00 65.00
C 199.79 62.87 199.58 61.19 200.00 59.00
C 200.83 49.97 199.64 41.33 200.00 32.00
C 200.12 28.77 200.31 26.07 201.00 23.00
C 198.65 22.48 195.42 22.93 193.00 23.00
C 190.83 23.69 191.89 24.55 192.00 26.00
C 192.15 28.02 192.88 30.25 193.00 32.00
C 193.94 35.12 194.75 33.77 193.00 37.00
C 192.78 37.95 193.39 39.74 192.00 40.00
C 191.48 36.49 189.17 33.75 187.00 31.00
C 184.54 28.54 179.94 25.20 177.00 24.00
C 174.82 23.30 173.38 23.21 171.00 23.00
C 170.53 24.96 169.16 22.21 168.00 23.00
C 171.20 27.02 170.92 33.49 169.00 38.00 Z"/>
</g>
<g fill="None" fill-opacity="0.0" stroke="#cbd5e1f7" stroke-opacity="0.28" stroke-width="0.3"><path d="
M 200.00 32.00 
C 201.67 29.38 200.69 25.24 204.00 23.00
C 203.04 22.83 201.95 23.21 201.00 23.00
C 200.31 26.07 200.12 28.77 200.00 32.00 Z"/>
</g>
<g fill="None" fill-opacity="0.0" stroke="#cbd5e1f7" stroke-opacity="0.93" stroke-width="0.3"><path d="
M 210.00 26.00 
C 208.66 27.26 208.66 27.24 208.00 29.00
C 207.56 30.17 206.12 33.17 206.00 34.00
C 205.84 36.37 206.23 37.93 207.00 40.00
C 208.02 42.15 211.28 45.19 213.00 47.00
C 213.98 47.68 213.76 47.54 215.00 48.00
C 218.80 49.42 230.13 55.22 227.00 60.00
C 227.00 60.00 227.16 60.56 227.00 61.00
C 228.08 62.76 226.06 65.39 224.00 66.00
C 222.36 66.49 218.70 66.30 217.00 66.00
C 213.64 65.41 212.18 64.02 211.00 61.00
C 211.00 61.00 211.08 60.49 211.00 60.00
C 210.73 59.44 209.70 58.30 209.00 58.00
C 207.31 59.39 207.52 61.83 206.00 63.00
C 205.64 65.33 204.80 65.56 206.00 68.00
C 206.84 69.20 215.76 73.67 217.00 74.00
C 218.20 74.18 219.79 74.11 221.00 74.00
C 222.27 73.71 227.48 72.19 228.00 72.00
C 229.39 71.33 231.02 70.01 232.00 69.00
C 233.09 67.63 233.64 65.39 235.00 64.00
C 235.00 64.00 235.00 63.50 235.00 63.00
C 235.00 57.35 234.90 52.30 231.00 48.00
C 228.78 46.02 226.52 45.19 224.00 44.00
C 222.14 43.12 220.38 42.31 219.00 41.00
C 217.53 39.60 215.59 36.98 215.00 35.00
C 214.02 31.69 217.78 25.62 222.00 29.00
C 222.00 29.00 222.64 29.22 223.00 29.00
C 225.82 27.25 229.78 34.55 232.00 36.00
C 232.58 34.66 232.06 31.48 232.00 30.00
C 231.60 27.28 230.41 25.27 228.00 24.00
C 224.50 22.79 220.85 22.86 217.00 23.00
C 215.37 23.33 211.29 25.13 210.00 26.00 Z"/>
</g>
<g fill="None" fill-opacity="0.0" stroke="#cbd5e1f7" stroke-opacity="0.24" stroke-width="0.3"><path d="
M 240.00 59.00 
C 237.82 46.04 238.00 29.37 251.00 23.00
C 235.68 24.36 237.37 49.90 240.00 59.00 Z"/>
</g>
<g fill="None" fill-opacity="0.0" stroke="#cbd5e1f7" stroke-opacity="0.94" stroke-width="0.3"><path d="
M 240.00 59.00 
C 240.28 60.64 240.39 61.49 241.00 63.00
C 243.08 66.78 248.14 71.45 252.00 73.00
C 254.92 73.79 256.69 74.03 260.00 73.00
C 263.67 71.40 268.59 66.45 271.00 63.00
C 271.50 61.93 271.67 61.08 272.00 60.00
C 272.26 58.33 273.64 53.94 274.00 52.00
C 274.19 49.77 274.17 47.23 274.00 45.00
C 273.54 42.35 269.65 36.21 271.00 34.00
C 271.00 34.00 271.16 33.44 271.00 33.00
C 267.42 29.57 263.77 26.03 260.00 23.00
C 260.00 23.00 259.50 23.00 259.00 23.00
C 257.00 23.00 255.00 23.00 253.00 23.00
C 252.50 23.00 251.50 22.96 251.00 23.00
C 238.00 29.37 237.82 46.04 240.00 59.00
M 260.00 35.00 
C 260.17 35.33 260.74 35.76 261.00 36.00
C 265.58 40.24 264.69 47.95 264.00 53.00
C 264.00 54.33 264.03 55.67 264.00 57.00
C 264.98 64.29 257.25 73.74 252.00 63.00
C 251.80 62.60 252.00 62.00 252.00 62.00
C 248.20 59.63 248.30 53.91 248.00 51.00
C 247.57 49.11 247.22 46.91 247.00 45.00
C 246.90 44.78 245.35 46.61 245.36 44.29 C 245.36 41.96 246.54 43.25 247.00 42.00
C 247.13 40.04 247.48 37.91 248.00 36.00
C 248.21 34.45 247.42 31.64 250.00 30.00
C 249.50 30.32 252.63 28.87 252.00 29.00
C 254.40 25.93 260.22 31.16 260.00 35.00 Z"/>
</g>
<g fill="None" fill-opacity="0.0" stroke="#cbd5e1f7" stroke-opacity="0.30" stroke-width="0.3"><path d="
M 271.00 33.00 
C 269.41 28.58 264.93 23.46 260.00 23.00
C 263.77 26.03 267.42 29.57 271.00 33.00 Z"/>
</g>
<g fill="None" fill-opacity="0.0" stroke="#cbd5e1f7" stroke-opacity="0.29" stroke-width="0.3"><path d="
M 279.00 66.00 
C 282.88 53.51 280.20 35.07 277.00 23.00
C 275.18 23.73 280.13 31.43 279.00 35.00 C 277.87 38.57 279.71 46.74 279.00 51.00 C 278.29 55.26 279.72 61.59 279.00 66.00 Z"/>
</g>
<g fill="None" fill-opacity="0.0" stroke="#cbd5e1f7" stroke-opacity="0.94" stroke-width="0.3"><path d="
M 279.00 66.00 
C 278.82 67.13 278.33 68.91 278.00 70.00
C 278.04 70.19 279.70 72.64 280.00 73.00
C 280.00 73.00 280.50 73.00 281.00 73.00
C 282.81 71.59 285.22 71.61 287.00 73.00
C 287.00 73.00 287.51 73.07 288.00 73.00
C 289.04 71.59 288.05 64.35 288.00 63.00
C 287.33 58.64 286.72 50.79 288.00 46.00
C 289.17 41.62 290.87 44.19 292.00 47.00
C 292.30 47.75 292.63 48.27 293.00 49.00
C 294.99 51.23 296.27 52.92 297.00 56.00
C 297.00 56.00 296.92 56.51 297.00 57.00
C 299.15 59.51 302.17 66.17 300.00 69.00
C 300.00 69.00 300.21 69.88 300.00 70.00
C 301.23 73.38 307.24 71.13 311.00 72.00
C 310.33 70.73 310.00 68.79 311.00 68.00
C 310.29 66.65 309.60 65.13 309.00 64.00
C 307.88 61.90 306.89 59.42 306.00 57.00
C 305.02 54.36 300.95 47.95 302.00 46.00
C 303.14 43.88 308.56 43.00 308.92 39.92 C 309.28 36.83 310.54 34.23 310.00 31.00
C 308.55 26.40 306.47 25.21 302.00 24.00
C 299.58 23.71 293.37 23.22 292.00 23.00
C 290.33 23.00 288.67 23.00 287.00 23.00
C 284.98 23.20 283.01 23.28 281.00 23.00
C 279.95 23.00 277.96 22.62 277.00 23.00
C 280.20 35.07 282.88 53.51 279.00 66.00
M 301.00 37.00 
C 300.96 37.50 301.00 38.00 301.00 38.00
C 300.12 41.36 296.98 40.99 295.00 40.00
C 294.50 39.98 293.45 40.15 293.00 40.00
C 290.86 39.26 289.38 36.97 289.00 35.00
C 288.91 34.52 289.00 34.00 289.00 34.00
C 281.66 24.65 308.22 27.61 301.00 37.00 Z"/>
</g>
<g fill="None" fill-opacity="0.0" stroke="#cbd5e1f7" stroke-opacity="0.61" stroke-width="0.3"><path d="
M 287.00 23.00 
C 285.00 23.00 283.00 23.00 281.00 23.00
C 283.01 23.28 284.98 23.20 287.00 23.00 Z"/>
</g>
<g fill="None" fill-opacity="0.0" stroke="#cbd5e1f7" stroke-opacity="0.62" stroke-width="0.3"><path d="
M 302.00 24.00 
C 299.04 23.20 295.63 23.00 292.00 23.00
C 293.37 23.22 299.58 23.71 302.00 24.00 Z"/>
</g>
<g fill="None" fill-opacity="0.0" stroke="#cbd5e1f7" stroke-opacity="0.25" stroke-width="0.3"><path d="
M 104.00 46.00 
C 111.00 50.01 120.41 49.87 125.08 43.08 C 129.74 36.28 126.77 25.52 119.00 24.00
C 123.97 26.96 125.89 30.96 125.99 36.99 C 126.10 43.02 120.84 45.54 116.70 47.65 C 112.55 49.76 106.04 43.88 104.00 46.00 Z"/>
</g>
<g fill="None" fill-opacity="0.0" stroke="#cbd5e1f7" stroke-opacity="0.17" stroke-width="0.3"><path d="
M 187.00 31.00 
C 184.26 27.53 181.14 25.32 177.00 24.00
C 179.94 25.20 184.54 28.54 187.00 31.00 Z"/>
</g>
<g fill="None" fill-opacity="0.0" stroke="#cbd5e1f7" stroke-opacity="0.26" stroke-width="0.3"><path d="
M 232.00 30.00 
C 232.00 28.00 232.00 26.00 232.00 24.00
C 230.78 23.68 229.19 24.41 228.00 24.00
C 230.41 25.27 231.60 27.28 232.00 30.00 Z"/>
</g>
<g fill="None" fill-opacity="0.0" stroke="#cbd5e1f7" stroke-opacity="0.18" stroke-width="0.3"><path d="
M 49.00 35.00 
C 49.94 33.52 43.21 26.33 43.00 25.00
C 43.12 28.32 46.25 33.21 49.00 35.00 Z"/>
</g>
<g fill="None" fill-opacity="0.0" stroke="#cbd5e1f7" stroke-opacity="0.15" stroke-width="0.3"><path d="
M 78.00 40.00 
C 74.10 35.53 76.93 30.96 79.00 26.00
C 75.55 29.30 71.96 37.26 78.00 40.00 Z"/>
</g>
<g fill="None" fill-opacity="0.0" stroke="#cbd5e1f7" stroke-opacity="0.22" stroke-width="0.3"><path d="
M 115.00 31.00 
C 126.87 42.56 95.57 45.96 104.00 29.00
C 106.67 29.00 109.33 29.00 112.00 29.00
C 101.95 23.81 100.01 37.01 107.31 41.69 C 114.60 46.37 122.14 36.26 115.00 31.00 Z"/>
</g>
<g fill="None" fill-opacity="0.0" stroke="#cbd5e1f7" stroke-opacity="0.21" stroke-width="0.3"><path d="
M 138.00 34.00 
C 141.09 27.74 146.36 28.53 150.00 34.00
C 147.46 28.50 140.94 24.89 138.00 34.00 Z"/>
</g>
<g fill="None" fill-opacity="0.0" stroke="#cbd5e1f7" stroke-opacity="0.19" stroke-width="0.3"><path d="
M 215.00 35.00 
C 214.75 30.99 218.30 28.67 222.00 29.00
C 217.78 25.62 214.02 31.69 215.00 35.00 Z"/>
</g>
<g fill="None" fill-opacity="0.0" stroke="#cbd5e1f7" stroke-opacity="0.19" stroke-width="0.3"><path d="
M 223.00 29.00 
C 224.26 30.01 231.67 36.75 232.00 36.00
C 229.78 34.55 225.82 27.25 223.00 29.00 Z"/>
</g>
<g fill="None" fill-opacity="0.0" stroke="#cbd5e1f7" stroke-opacity="0.21" stroke-width="0.3"><path d="
M 252.00 29.00 
C 256.00 28.17 258.55 32.09 260.00 35.00
C 260.22 31.16 254.40 25.93 252.00 29.00 Z"/>
</g>
<g fill="None" fill-opacity="0.0" stroke="#cbd5e1f7" stroke-opacity="0.12" stroke-width="0.3"><path d="
M 289.00 34.00 
C 287.54 25.33 301.71 29.14 301.00 37.00
C 308.22 27.61 281.66 24.65 289.00 34.00 Z"/>
</g>
<g fill="None" fill-opacity="0.0" stroke="#000000" stroke-opacity="0.00" stroke-width="0.3"><path d="
M 115.00 31.00 
C 114.24 30.44 112.69 29.36 112.00 29.00
C 109.33 29.00 106.67 29.00 104.00 29.00
C 95.57 45.96 126.87 42.56 115.00 31.00 Z"/>
</g>
<g fill="None" fill-opacity="0.0" stroke="#000000" stroke-opacity="0.00" stroke-width="0.3"><path d="
M 138.00 34.00 
C 136.80 37.71 137.75 41.09 138.00 45.00
C 138.44 51.81 139.78 67.92 150.00 67.00
C 150.00 67.00 150.50 67.05 151.00 67.00
C 152.12 65.80 153.64 63.23 154.00 62.00
C 154.86 57.86 154.21 54.53 154.00 51.00
C 153.88 49.01 154.13 46.99 154.00 45.00
C 153.71 40.49 151.78 37.86 150.00 34.00
C 146.36 28.53 141.09 27.74 138.00 34.00 Z"/>
</g>
<g fill="None" fill-opacity="0.0" stroke="#cbd5e1f7" stroke-opacity="0.24" stroke-width="0.3"><path d="
M 206.00 34.00 
C 206.12 33.17 207.56 30.17 208.00 29.00
C 207.02 30.86 206.17 31.49 206.00 34.00 Z"/>
</g>
<g fill="None" fill-opacity="0.0" stroke="#000000" stroke-opacity="0.00" stroke-width="0.3"><path d="
M 250.00 30.00 
C 249.22 30.86 248.35 34.73 248.00 36.00
C 247.48 37.91 247.13 40.04 247.00 42.00
C 246.94 42.93 246.89 44.07 247.00 45.00
C 247.22 46.91 247.57 49.11 248.00 51.00
C 248.82 54.58 250.00 58.82 252.00 62.00
C 252.00 62.00 251.80 62.60 252.00 63.00
C 259.12 67.98 263.81 66.98 264.00 57.00
C 264.03 55.67 264.00 54.33 264.00 53.00
C 264.00 46.84 263.30 41.51 261.00 36.00
C 260.74 35.76 260.17 35.33 260.00 35.00
C 258.55 32.09 256.00 28.17 252.00 29.00
C 252.63 28.87 249.50 30.32 250.00 30.00 Z"/>
</g>
<g fill="None" fill-opacity="0.0" stroke="#000000" stroke-opacity="0.00" stroke-width="0.3"><path d="
M 289.00 34.00 
C 289.00 34.00 288.91 34.52 289.00 35.00
C 289.65 36.02 291.91 39.36 293.00 40.00
C 293.45 40.15 294.50 39.98 295.00 40.00
C 297.01 40.10 299.74 39.79 301.00 38.00
C 301.00 38.00 300.96 37.50 301.00 37.00
C 301.71 29.14 287.54 25.33 289.00 34.00 Z"/>
</g>
<g fill="None" fill-opacity="0.0" stroke="#cbd5e1f7" stroke-opacity="0.25" stroke-width="0.3"><path d="
M 67.00 31.00 
C 66.85 31.35 66.83 33.66 67.00 34.00
C 69.22 32.01 68.69 31.10 67.00 31.00 Z"/>
</g>
<g fill="None" fill-opacity="0.0" stroke="#cbd5e1f7" stroke-opacity="0.14" stroke-width="0.3"><path d="
M 248.00 36.00 
C 248.35 34.73 249.22 30.86 250.00 30.00
C 247.42 31.64 248.21 34.45 248.00 36.00 Z"/>
</g>
<g fill="None" fill-opacity="0.0" stroke="#cbd5e1f7" stroke-opacity="0.39" stroke-width="0.3"><path d="
M 302.00 46.00 
C 303.27 44.26 308.42 44.28 309.69 40.69 C 310.97 37.11 311.08 34.43 310.00 31.00
C 310.54 34.23 309.28 36.83 308.92 39.92 C 308.56 43.00 303.14 43.88 302.00 46.00 Z"/>
</g>
<g fill="None" fill-opacity="0.0" stroke="#cbd5e1f7" stroke-opacity="0.50" stroke-width="0.3"><path d="
M 193.00 37.00 
C 194.75 33.77 193.94 35.12 193.00 32.00
C 193.09 33.24 193.07 36.65 193.00 37.00 Z"/>
</g>
<g fill="None" fill-opacity="0.0" stroke="#cbd5e1f7" stroke-opacity="0.30" stroke-width="0.3"><path d="
M 163.00 40.00 
C 162.49 37.64 161.81 35.95 161.00 34.00
C 161.52 36.16 162.44 38.21 163.00 40.00 Z"/>
</g>
<g fill="None" fill-opacity="0.0" stroke="#cbd5e1f7" stroke-opacity="0.20" stroke-width="0.3"><path d="
M 178.00 36.00 
C 184.81 38.46 187.13 46.52 190.00 52.00
C 189.93 48.44 186.59 42.81 184.75 40.25 C 182.91 37.69 176.92 32.10 178.00 36.00 Z"/>
</g>
<g fill="None" fill-opacity="0.0" stroke="#cbd5e1f7" stroke-opacity="0.26" stroke-width="0.3"><path d="
M 274.00 45.00 
C 273.74 41.55 273.08 36.56 271.00 34.00
C 269.65 36.21 273.54 42.35 274.00 45.00 Z"/>
</g>
<g fill="None" fill-opacity="0.0" stroke="#cbd5e1f7" stroke-opacity="0.12" stroke-width="0.3"><path d="
M 293.00 40.00 
C 291.91 39.36 289.65 36.02 289.00 35.00
C 289.38 36.97 290.86 39.26 293.00 40.00 Z"/>
</g>
<g fill="None" fill-opacity="0.0" stroke="#cbd5e1f7" stroke-opacity="0.25" stroke-width="0.3"><path d="
M 48.00 43.00 
C 47.36 40.31 49.66 37.36 49.00 36.00
C 46.98 37.98 46.34 40.83 48.00 43.00 Z"/>
</g>
<g fill="None" fill-opacity="0.0" stroke="#cbd5e1f7" stroke-opacity="0.35" stroke-width="0.3"><path d="
M 169.00 69.00 
C 167.64 69.42 166.67 70.80 166.00 72.00
C 170.15 73.59 175.84 73.62 180.00 72.00
C 175.65 61.79 175.95 47.63 177.00 36.00
C 175.34 47.20 175.25 60.92 177.00 72.00
C 174.21 72.76 171.23 70.72 169.00 72.00
C 169.76 70.92 168.99 69.37 169.00 69.00 Z"/>
</g>
<g fill="None" fill-opacity="0.0" stroke="#cbd5e1f7" stroke-opacity="0.13" stroke-width="0.3"><path d="
M 264.00 53.00 
C 264.69 47.95 265.58 40.24 261.00 36.00
C 263.30 41.51 264.00 46.84 264.00 53.00 Z"/>
</g>
<g fill="None" fill-opacity="0.0" stroke="#cbd5e1f7" stroke-opacity="0.16" stroke-width="0.3"><path d="
M 295.00 40.00 
C 296.98 40.99 300.12 41.36 301.00 38.00
C 299.74 39.79 297.01 40.10 295.00 40.00 Z"/>
</g>
<g fill="None" fill-opacity="0.0" stroke="#cbd5e1f7" stroke-opacity="0.20" stroke-width="0.3"><path d="
M 60.00 40.00 
C 62.22 39.29 63.93 40.95 66.00 41.00
C 64.50 38.36 62.13 38.73 60.00 40.00 Z"/>
</g>
<g fill="None" fill-opacity="0.0" stroke="#000000" stroke-opacity="0.04" stroke-width="0.3"><path d="
M 66.00 41.00 
C 63.93 40.95 62.22 39.29 60.00 40.00
C 57.49 40.54 58.36 43.49 57.00 45.00
C 59.79 48.15 68.83 45.98 66.00 41.00 Z"/>
</g>
<g fill="None" fill-opacity="0.0" stroke="#cbd5e1f7" stroke-opacity="0.29" stroke-width="0.3"><path d="
M 87.00 48.00 
C 85.74 45.42 81.64 41.29 79.00 40.00
C 81.05 42.94 84.01 45.91 87.00 48.00 Z"/>
</g>
<g fill="None" fill-opacity="0.0" stroke="#cbd5e1f7" stroke-opacity="0.05" stroke-width="0.3"><path d="
M 169.00 68.00 
C 172.14 63.75 171.00 44.70 169.00 40.00
C 169.00 49.33 169.00 58.67 169.00 68.00 Z"/>
</g>
<g fill="None" fill-opacity="0.0" stroke="#cbd5e1f7" stroke-opacity="0.19" stroke-width="0.3"><path d="
M 213.00 47.00 
C 211.28 45.19 208.02 42.15 207.00 40.00
C 208.10 42.98 210.24 45.10 213.00 47.00 Z"/>
</g>
<g fill="None" fill-opacity="0.0" stroke="#cbd5e1f7" stroke-opacity="0.36" stroke-width="0.3"><path d="
M 224.00 44.00 
C 222.97 43.39 219.90 41.71 219.00 41.00
C 220.38 42.31 222.14 43.12 224.00 44.00 Z"/>
</g>
<g fill="None" fill-opacity="0.0" stroke="#cbd5e1f7" stroke-opacity="0.75" stroke-width="0.3"><path d="
M 247.00 45.00 
C 246.89 44.07 246.94 42.93 247.00 42.00
C 246.54 43.25 245.36 41.96 245.36 44.29 C 245.35 46.61 246.90 44.78 247.00 45.00 Z"/>
</g>
<g fill="None" fill-opacity="0.0" stroke="#cbd5e1f7" stroke-opacity="0.18" stroke-width="0.3"><path d="
M 49.00 44.00 
C 49.34 45.69 47.18 47.48 46.00 48.00
C 48.98 47.88 51.05 45.13 54.00 45.00
C 53.18 43.14 49.80 43.91 49.00 44.00 Z"/>
</g>
<g fill="None" fill-opacity="0.0" stroke="#cbd5e1f7" stroke-opacity="0.20" stroke-width="0.3"><path d="
M 288.00 46.00 
C 289.38 45.99 290.94 45.98 292.00 47.00
C 290.87 44.19 289.17 41.62 288.00 46.00 Z"/>
</g>
<g fill="None" fill-opacity="0.0" stroke="#000000" stroke-opacity="0.02" stroke-width="0.3"><path d="
M 69.00 48.00 
C 73.34 48.10 74.56 53.76 77.00 56.00
C 77.52 59.86 78.08 55.13 79.00 54.00
C 76.26 53.17 76.65 50.85 76.00 49.00
C 75.57 48.25 73.78 45.55 73.00 45.00
C 71.69 44.46 70.56 43.59 69.00 44.00
C 70.63 45.37 68.51 46.53 69.00 48.00 Z"/>
</g>
<g fill="None" fill-opacity="0.0" stroke="#cbd5e1f7" stroke-opacity="0.16" stroke-width="0.3"><path d="
M 76.00 49.00 
C 75.67 48.08 75.46 46.12 73.00 45.00
C 73.78 45.55 75.57 48.25 76.00 49.00 Z"/>
</g>
<g fill="None" fill-opacity="0.0" stroke="#cbd5e1f7" stroke-opacity="0.33" stroke-width="0.3"><path d="
M 150.00 67.00 
C 139.78 67.92 138.44 51.81 138.00 45.00
C 134.18 50.14 141.17 56.86 139.00 62.00
C 143.36 62.14 145.41 70.67 150.00 67.00 Z"/>
</g>
<g fill="None" fill-opacity="0.0" stroke="#cbd5e1f7" stroke-opacity="0.08" stroke-width="0.3"><path d="
M 154.00 51.00 
C 154.03 49.32 154.32 46.93 154.00 45.00
C 154.13 46.99 153.88 49.01 154.00 51.00 Z"/>
</g>
<g fill="None" fill-opacity="0.0" stroke="#cbd5e1f7" stroke-opacity="0.16" stroke-width="0.3"><path d="
M 94.00 73.00 
C 98.28 72.52 103.13 74.06 107.00 72.00
C 101.95 65.47 104.00 55.23 104.00 47.00
C 102.01 54.34 102.79 64.22 104.00 72.00
C 100.81 70.94 96.44 72.98 94.00 73.00 Z"/>
</g>
<g fill="None" fill-opacity="0.0" stroke="#cbd5e1f7" stroke-opacity="0.27" stroke-width="0.3"><path d="
M 38.00 54.00 
C 39.97 51.98 42.95 50.93 45.00 48.00
C 42.26 49.70 39.92 51.27 38.00 54.00 Z"/>
</g>
<g fill="None" fill-opacity="0.0" stroke="#cbd5e1f7" stroke-opacity="0.37" stroke-width="0.3"><path d="
M 77.00 56.00 
C 74.56 53.76 73.34 48.10 69.00 48.00
C 69.53 49.59 75.29 54.92 77.00 56.00 Z"/>
</g>
<g fill="None" fill-opacity="0.0" stroke="#cbd5e1f7" stroke-opacity="0.08" stroke-width="0.3"><path d="
M 128.00 53.00 
C 129.86 50.88 128.13 49.86 128.00 48.00
C 127.99 49.67 128.00 51.33 128.00 53.00 Z"/>
</g>
<g fill="None" fill-opacity="0.0" stroke="#cbd5e1f7" stroke-opacity="0.24" stroke-width="0.3"><path d="
M 227.00 60.00 
C 230.13 55.22 218.80 49.42 215.00 48.00
C 219.35 50.98 225.67 54.22 227.00 60.00 Z"/>
</g>
<g fill="None" fill-opacity="0.0" stroke="#cbd5e1f7" stroke-opacity="0.22" stroke-width="0.3"><path d="
M 235.00 63.00 
C 238.48 58.30 234.74 51.33 231.00 48.00
C 234.90 52.30 235.00 57.35 235.00 63.00 Z"/>
</g>
<g fill="None" fill-opacity="0.0" stroke="#cbd5e1f7" stroke-opacity="0.41" stroke-width="0.3"><path d="
M 89.00 53.00 
C 88.51 51.26 88.27 50.23 87.00 49.00
C 87.04 51.82 88.57 51.91 89.00 53.00 Z"/>
</g>
<g fill="None" fill-opacity="0.0" stroke="#cbd5e1f7" stroke-opacity="0.18" stroke-width="0.3"><path d="
M 297.00 56.00 
C 296.27 52.92 294.99 51.23 293.00 49.00
C 294.25 51.45 295.36 53.96 297.00 56.00 Z"/>
</g>
<g fill="None" fill-opacity="0.0" stroke="#cbd5e1f7" stroke-opacity="0.13" stroke-width="0.3"><path d="
M 53.00 52.00 
C 54.46 51.17 58.35 50.08 60.00 51.00
C 58.25 49.25 54.19 49.38 53.00 52.00 Z"/>
</g>
<g fill="None" fill-opacity="0.0" stroke="#cbd5e1f7" stroke-opacity="0.05" stroke-width="0.3"><path d="
M 94.00 62.00 
C 94.31 58.78 96.45 53.32 94.00 50.00
C 94.00 54.00 94.00 58.00 94.00 62.00 Z"/>
</g>
<g fill="None" fill-opacity="0.0" stroke="#cbd5e1f7" stroke-opacity="0.22" stroke-width="0.3"><path d="
M 46.00 68.00 
C 42.87 63.13 48.31 54.36 52.00 52.00
C 48.19 49.57 42.12 64.35 46.00 68.00 Z"/>
</g>
<g fill="None" fill-opacity="0.0" stroke="#000000" stroke-opacity="0.00" stroke-width="0.3"><path d="
M 53.00 52.00 
C 53.00 52.00 52.35 51.77 52.00 52.00
C 48.31 54.36 42.87 63.13 46.00 68.00
C 47.25 69.17 49.02 67.71 50.00 67.00
C 51.04 66.04 53.88 62.37 55.00 61.00
C 56.13 59.38 61.24 52.24 60.00 51.00
C 58.35 50.08 54.46 51.17 53.00 52.00 Z"/>
</g>
<g fill="None" fill-opacity="0.0" stroke="#cbd5e1f7" stroke-opacity="0.21" stroke-width="0.3"><path d="
M 252.00 62.00 
C 250.00 58.82 248.82 54.58 248.00 51.00
C 248.30 53.91 248.20 59.63 252.00 62.00 Z"/>
</g>
<g fill="None" fill-opacity="0.0" stroke="#cbd5e1f7" stroke-opacity="0.23" stroke-width="0.3"><path d="
M 272.00 60.00 
C 272.78 57.49 273.78 54.61 274.00 52.00
C 273.64 53.94 272.26 58.33 272.00 60.00 Z"/>
</g>
<g fill="None" fill-opacity="0.0" stroke="#cbd5e1f7" stroke-opacity="0.28" stroke-width="0.3"><path d="
M 60.00 59.00 
C 62.90 58.18 63.17 54.11 66.00 54.00
C 63.91 51.88 59.83 58.70 60.00 59.00 Z"/>
</g>
<g fill="None" fill-opacity="0.0" stroke="#cbd5e1f7" stroke-opacity="0.20" stroke-width="0.3"><path d="
M 192.00 66.00 
C 194.05 63.23 192.90 55.22 190.00 53.00
C 190.71 57.33 192.49 61.43 192.00 66.00 Z"/>
</g>
<g fill="None" fill-opacity="0.0" stroke="#000000" stroke-opacity="0.00" stroke-width="0.3"><path d="
M 60.00 59.00 
C 63.02 64.23 70.07 58.14 66.00 54.00
C 63.17 54.11 62.90 58.18 60.00 59.00 Z"/>
</g>
<g fill="None" fill-opacity="0.0" stroke="#cbd5e1f7" stroke-opacity="0.18" stroke-width="0.3"><path d="
M 130.00 61.00 
C 131.26 59.09 130.16 55.55 128.00 54.00
C 128.74 56.33 129.55 58.61 130.00 61.00 Z"/>
</g>
<g fill="None" fill-opacity="0.0" stroke="#cbd5e1f7" stroke-opacity="0.38" stroke-width="0.3"><path d="
M 206.00 63.00 
C 207.52 61.83 207.31 59.39 209.00 58.00
C 209.70 58.30 210.73 59.44 211.00 60.00
C 210.59 57.90 209.97 55.91 209.00 54.00
C 206.69 56.09 206.46 59.98 206.00 63.00 Z"/>
</g>
<g fill="None" fill-opacity="0.0" stroke="#cbd5e1f7" stroke-opacity="0.17" stroke-width="0.3"><path d="
M 39.00 76.00 
C 39.66 73.59 35.73 68.66 35.93 66.08 C 36.13 63.49 35.19 58.83 36.00 57.00
C 32.68 62.86 34.88 71.39 39.00 76.00 Z"/>
</g>
<g fill="None" fill-opacity="0.0" stroke="#cbd5e1f7" stroke-opacity="0.22" stroke-width="0.3"><path d="
M 252.00 63.00 
C 257.25 73.74 264.98 64.29 264.00 57.00
C 263.81 66.98 259.12 67.98 252.00 63.00 Z"/>
</g>
<g fill="None" fill-opacity="0.0" stroke="#cbd5e1f7" stroke-opacity="0.21" stroke-width="0.3"><path d="
M 300.00 69.00 
C 302.17 66.17 299.15 59.51 297.00 57.00
C 297.69 61.22 299.90 64.59 300.00 69.00 Z"/>
</g>
<g fill="None" fill-opacity="0.0" stroke="#cbd5e1f7" stroke-opacity="0.31" stroke-width="0.3"><path d="
M 309.00 64.00 
C 308.02 61.54 307.15 59.28 306.00 57.00
C 306.89 59.42 307.88 61.90 309.00 64.00 Z"/>
</g>
<g fill="None" fill-opacity="0.0" stroke="#000000" stroke-opacity="0.00" stroke-width="0.3"><path d="
M 78.00 60.00 
C 76.18 62.50 76.49 64.88 74.00 67.00
C 72.75 68.07 71.82 68.79 70.00 69.00
C 65.07 69.56 63.92 67.09 61.00 64.00
C 60.44 62.98 60.01 61.55 59.00 61.00
C 58.18 62.34 57.05 63.77 56.00 65.00
C 54.73 66.49 51.91 68.55 51.00 70.00
C 50.67 70.70 50.24 72.20 50.00 73.00
C 50.24 79.76 64.38 79.29 68.00 78.00
C 68.00 78.00 68.68 78.24 69.00 78.00
C 69.85 77.36 70.76 76.30 72.00 76.00
C 72.00 76.00 72.60 76.20 73.00 76.00
C 75.12 74.01 76.35 71.06 78.00 69.00
C 78.00 69.00 77.84 68.44 78.00 68.00
C 78.74 65.91 79.75 62.34 79.00 60.00
C 78.20 59.05 78.89 59.35 78.00 60.00 Z"/>
</g>
<g fill="None" fill-opacity="0.0" stroke="#cbd5e1f7" stroke-opacity="0.68" stroke-width="0.3"><path d="
M 200.00 65.00 
C 200.00 63.03 199.82 60.96 200.00 59.00
C 199.58 61.19 199.79 62.87 200.00 65.00 Z"/>
</g>
<g fill="None" fill-opacity="0.0" stroke="#cbd5e1f7" stroke-opacity="0.27" stroke-width="0.3"><path d="
M 74.00 67.00 
C 76.49 64.88 76.18 62.50 78.00 60.00
C 75.48 61.85 76.03 64.73 74.00 67.00 Z"/>
</g>
<g fill="None" fill-opacity="0.0" stroke="#cbd5e1f7" stroke-opacity="0.18" stroke-width="0.3"><path d="
M 78.00 68.00 
C 80.27 66.27 80.81 62.14 79.00 60.00
C 79.75 62.34 78.74 65.91 78.00 68.00 Z"/>
</g>
<g fill="None" fill-opacity="0.0" stroke="#cbd5e1f7" stroke-opacity="0.35" stroke-width="0.3"><path d="
M 154.00 71.00 
C 158.35 68.05 160.27 65.06 162.00 60.00
C 160.27 63.66 157.02 68.18 154.00 71.00 Z"/>
</g>
<g fill="None" fill-opacity="0.0" stroke="#cbd5e1f7" stroke-opacity="0.22" stroke-width="0.3"><path d="
M 50.00 67.00 
C 51.68 65.77 53.67 62.90 55.00 61.00
C 53.88 62.37 51.04 66.04 50.00 67.00 Z"/>
</g>
<g fill="None" fill-opacity="0.0" stroke="#cbd5e1f7" stroke-opacity="0.45" stroke-width="0.3"><path d="
M 217.00 66.00 
C 215.21 65.49 212.77 62.24 211.00 61.00
C 212.18 64.02 213.64 65.41 217.00 66.00 Z"/>
</g>
<g fill="None" fill-opacity="0.0" stroke="#cbd5e1f7" stroke-opacity="0.22" stroke-width="0.3"><path d="
M 224.00 66.00 
C 226.06 65.39 228.08 62.76 227.00 61.00
C 226.61 62.08 225.14 65.54 224.00 66.00 Z"/>
</g>
<g fill="None" fill-opacity="0.0" stroke="#cbd5e1f7" stroke-opacity="0.11" stroke-width="0.3"><path d="
M 149.00 74.00 
C 139.10 74.84 136.07 65.84 130.00 62.00
C 132.92 69.43 140.50 75.57 149.00 74.00 Z"/>
</g>
<g fill="None" fill-opacity="0.0" stroke="#cbd5e1f7" stroke-opacity="0.36" stroke-width="0.3"><path d="
M 151.00 67.00 
C 154.21 66.69 153.54 64.21 154.00 62.00
C 153.64 63.23 152.12 65.80 151.00 67.00 Z"/>
</g>
<g fill="None" fill-opacity="0.0" stroke="#cbd5e1f7" stroke-opacity="0.25" stroke-width="0.3"><path d="
M 252.00 73.00 
C 248.14 71.45 243.08 66.78 241.00 63.00
C 243.20 68.47 246.50 71.51 252.00 73.00 Z"/>
</g>
<g fill="None" fill-opacity="0.0" stroke="#cbd5e1f7" stroke-opacity="0.33" stroke-width="0.3"><path d="
M 260.00 73.00 
C 264.78 71.51 268.82 67.66 271.00 63.00
C 268.59 66.45 263.67 71.40 260.00 73.00 Z"/>
</g>
<g fill="None" fill-opacity="0.0" stroke="#cbd5e1f7" stroke-opacity="0.37" stroke-width="0.3"><path d="
M 288.00 73.00 
C 289.60 73.43 290.46 71.63 292.00 72.00
C 288.72 70.33 288.52 66.39 288.00 63.00
C 288.05 64.35 289.04 71.59 288.00 73.00 Z"/>
</g>
<g fill="None" fill-opacity="0.0" stroke="#cbd5e1f7" stroke-opacity="0.28" stroke-width="0.3"><path d="
M 70.00 69.00 
C 67.70 69.07 63.26 65.82 61.00 64.00
C 63.92 67.09 65.07 69.56 70.00 69.00 Z"/>
</g>
<g fill="None" fill-opacity="0.0" stroke="#cbd5e1f7" stroke-opacity="0.23" stroke-width="0.3"><path d="
M 232.00 69.00 
C 233.36 67.60 234.55 66.03 235.00 64.00
C 233.64 65.39 233.09 67.63 232.00 69.00 Z"/>
</g>
<g fill="None" fill-opacity="0.0" stroke="#cbd5e1f7" stroke-opacity="0.20" stroke-width="0.3"><path d="
M 51.00 70.00 
C 51.91 68.55 54.73 66.49 56.00 65.00
C 54.40 66.60 52.07 67.74 51.00 70.00 Z"/>
</g>
<g fill="None" fill-opacity="0.0" stroke="#cbd5e1f7" stroke-opacity="0.27" stroke-width="0.3"><path d="
M 200.00 70.00 
C 198.65 72.05 196.60 72.34 194.00 72.00
C 195.52 70.23 193.19 68.21 192.00 67.00
C 192.02 71.59 195.33 74.27 200.00 73.00
C 200.16 72.03 199.80 70.96 200.00 70.00 Z"/>
</g>
<g fill="None" fill-opacity="0.0" stroke="#cbd5e1f7" stroke-opacity="0.20" stroke-width="0.3"><path d="
M 217.00 74.00 
C 215.76 73.67 206.84 69.20 206.00 68.00
C 207.50 71.06 213.82 73.53 217.00 74.00 Z"/>
</g>
<g fill="None" fill-opacity="0.0" stroke="#cbd5e1f7" stroke-opacity="0.29" stroke-width="0.3"><path d="
M 300.00 70.00 
C 298.97 70.13 298.41 71.17 298.00 72.00
C 302.93 73.26 309.12 73.87 314.00 72.00
C 313.36 70.44 311.80 69.52 311.00 68.00
C 310.00 68.79 310.33 70.73 311.00 72.00
C 307.24 71.13 301.23 73.38 300.00 70.00 Z"/>
</g>
<g fill="None" fill-opacity="0.0" stroke="#cbd5e1f7" stroke-opacity="0.24" stroke-width="0.3"><path d="
M 73.00 76.00 
C 75.57 74.74 77.74 71.80 78.00 69.00
C 76.35 71.06 75.12 74.01 73.00 76.00 Z"/>
</g>
<g fill="None" fill-opacity="0.0" stroke="#cbd5e1f7" stroke-opacity="0.43" stroke-width="0.3"><path d="
M 92.00 72.00 
C 91.95 71.34 93.84 70.26 94.00 69.00
C 93.61 70.22 90.28 70.35 92.00 72.00 Z"/>
</g>
<g fill="None" fill-opacity="0.0" stroke="#cbd5e1f7" stroke-opacity="0.47" stroke-width="0.3"><path d="
M 280.00 73.00 
C 279.70 72.64 278.04 70.19 278.00 70.00
C 277.44 71.85 275.27 73.13 280.00 73.00 Z"/>
</g>
<g fill="None" fill-opacity="0.0" stroke="#cbd5e1f7" stroke-opacity="0.16" stroke-width="0.3"><path d="
M 221.00 74.00 
C 223.26 73.79 225.97 72.98 228.00 72.00
C 227.48 72.19 222.27 73.71 221.00 74.00 Z"/>
</g>
<g fill="None" fill-opacity="0.0" stroke="#cbd5e1f7" stroke-opacity="0.17" stroke-width="0.3"><path d="
M 81.00 79.00 
C 83.89 77.01 85.33 74.73 87.00 72.00
C 85.35 74.17 83.05 76.85 81.00 79.00 Z"/>
</g>
<g fill="None" fill-opacity="0.0" stroke="#cbd5e1f7" stroke-opacity="0.03" stroke-width="0.3"><path d="
M 281.00 73.00 
C 283.00 73.00 285.00 73.00 287.00 73.00
C 285.22 71.61 282.81 71.59 281.00 73.00 Z"/>
</g>
<g fill="None" fill-opacity="0.0" stroke="#cbd5e1f7" stroke-opacity="0.43" stroke-width="0.3"><path d="
M 68.00 78.00 
C 64.38 79.29 50.24 79.76 50.00 73.00
C 48.27 78.81 64.28 82.86 68.00 78.00 Z"/>
</g>
<g fill="None" fill-opacity="0.0" stroke="#cbd5e1f7" stroke-opacity="0.46" stroke-width="0.3"><path d="
M 69.00 78.00 
C 70.55 79.32 71.45 77.53 72.00 76.00
C 70.76 76.30 69.85 77.36 69.00 78.00 Z"/>
</g>
<g fill="None" fill-opacity="0.0" stroke="#cbd5e1f7" stroke-opacity="0.25" stroke-width="0.3"><path d="
M 13.00 80.00 
C 15.66 80.31 18.69 77.79 22.00 79.00
C 19.45 77.33 15.20 77.51 13.00 80.00 Z"/>
</g>
<g fill="None" fill-opacity="0.0" stroke="#cbd5e1f7" stroke-opacity="0.27" stroke-width="0.3"><path d="
M 22.00 83.00 
C 27.26 85.92 32.47 82.53 36.00 79.00
C 31.99 81.87 27.15 83.57 22.00 83.00 Z"/>
</g>
<g fill="None" fill-opacity="0.0" stroke="#cbd5e1f7" stroke-opacity="0.23" stroke-width="0.3"><path d="
M 28.00 89.00 
C 32.22 87.34 37.88 80.49 42.00 80.00
C 39.99 79.87 29.73 86.23 28.00 89.00 Z"/>
</g>
<g fill="None" fill-opacity="0.0" stroke="#cbd5e1f7" stroke-opacity="0.25" stroke-width="0.3"><path d="
M 72.00 83.00 
C 74.87 82.21 76.54 81.27 79.00 80.00
C 76.52 80.73 74.15 82.17 72.00 83.00 Z"/>
</g>
<g fill="None" fill-opacity="0.0" stroke="#cbd5e1f7" stroke-opacity="0.22" stroke-width="0.3"><path d="
M 27.00 89.00 
C 22.91 88.77 15.39 89.90 12.00 86.00
C 12.97 83.95 12.25 82.31 12.00 81.00
C 6.64 89.11 22.48 92.34 27.00 89.00 Z"/>
</g>
<g fill="None" fill-opacity="0.0" stroke="#cbd5e1f7" stroke-opacity="0.39" stroke-width="0.3"><path d="
M 50.00 83.00 
C 52.53 83.71 55.69 83.68 58.00 85.00
C 57.02 81.34 51.99 83.33 50.00 83.00 Z"/>
</g>
<g fill="None" fill-opacity="0.0" stroke="#cbd5e1f7" stroke-opacity="0.33" stroke-width="0.3"><path d="
M 59.00 85.00 
C 61.86 85.00 64.78 84.32 67.00 84.00
C 65.68 83.92 62.42 83.51 59.00 85.00 Z"/>
</g>
<g fill="#000000" fill-opacity="0.00" stroke="None">
<path d="
M 0.00 98.00 
L 330.00 98.00
L 330.00 0.00
L 0.00 0.00
L 0.00 98.00
M 74.00 12.00 
C 75.25 12.51 78.02 13.78 79.00 14.00
C 79.88 14.04 81.14 14.18 82.00 14.00
C 82.53 13.89 83.84 12.18 85.00 13.00
C 83.69 17.10 81.76 21.01 80.00 25.00
C 79.79 25.30 79.26 25.75 79.00 26.00
C 76.93 30.96 74.10 35.53 78.00 40.00
C 78.41 40.19 79.00 40.00 79.00 40.00
C 81.64 41.29 85.74 45.42 87.00 48.00
C 87.20 48.40 87.00 49.00 87.00 49.00
C 88.27 50.23 88.51 51.26 89.00 53.00
C 90.77 59.26 91.52 66.05 87.00 72.00
C 85.33 74.73 83.89 77.01 81.00 79.00
C 80.16 79.88 80.25 79.63 79.00 80.00
C 76.54 81.27 74.87 82.21 72.00 83.00
C 70.41 83.62 69.03 83.71 67.00 84.00
C 64.78 84.32 61.86 85.00 59.00 85.00
C 58.50 85.00 58.00 85.00 58.00 85.00
C 55.69 83.68 52.53 83.71 50.00 83.00
C 47.37 82.27 44.76 80.18 42.00 80.00
C 37.88 80.49 32.22 87.34 28.00 89.00
C 27.57 89.17 27.00 89.00 27.00 89.00
C 22.48 92.34 6.64 89.11 12.00 81.00
C 12.20 80.69 12.77 80.26 13.00 80.00
C 15.20 77.51 19.45 77.33 22.00 79.00
C 24.25 80.47 24.35 80.94 22.00 83.00
C 27.15 83.57 31.99 81.87 36.00 79.00
C 36.91 78.09 38.60 77.48 39.00 76.00
C 34.88 71.39 32.68 62.86 36.00 57.00
C 36.49 56.13 37.41 54.84 38.00 54.00
C 39.92 51.27 42.26 49.70 45.00 48.00
C 45.36 47.78 46.00 48.00 46.00 48.00
C 47.18 47.48 49.34 45.69 49.00 44.00
C 48.69 44.04 48.22 43.29 48.00 43.00
C 46.34 40.83 46.98 37.98 49.00 36.00
C 49.25 35.75 49.00 35.00 49.00 35.00
C 46.25 33.21 43.12 28.32 43.00 25.00
C 42.94 23.22 43.50 22.55 44.00 21.00
C 45.73 15.67 48.51 12.82 54.00 11.00
C 55.84 10.39 56.96 10.15 59.00 10.00
C 62.30 9.76 66.75 9.40 70.00 10.00
C 71.46 10.27 72.93 11.41 74.00 12.00
M 149.00 23.00 
C 149.50 23.00 150.00 23.00 150.00 23.00
C 154.58 23.34 158.12 26.97 160.00 31.00
C 160.53 32.15 160.70 32.76 161.00 34.00
C 161.81 35.95 162.49 37.64 163.00 40.00
C 164.50 46.87 164.25 53.41 162.00 60.00
C 160.27 65.06 158.35 68.05 154.00 71.00
C 152.64 71.92 150.85 73.66 149.00 74.00
C 140.50 75.57 132.92 69.43 130.00 62.00
C 129.83 61.57 130.00 61.00 130.00 61.00
C 129.55 58.61 128.74 56.33 128.00 54.00
C 127.85 53.55 128.00 53.00 128.00 53.00
C 128.00 51.33 127.99 49.67 128.00 48.00
C 128.02 44.99 128.52 42.72 129.00 40.00
C 130.09 33.81 132.98 23.71 141.00 23.00
C 141.50 22.96 142.50 23.00 143.00 23.00
C 145.07 22.02 146.95 21.40 149.00 23.00
M 171.00 23.00 
C 173.38 23.21 174.82 23.30 177.00 24.00
C 181.14 25.32 184.26 27.53 187.00 31.00
C 189.17 33.75 191.48 36.49 192.00 40.00
C 193.39 39.74 192.78 37.95 193.00 37.00
C 193.07 36.65 193.09 33.24 193.00 32.00
C 192.88 30.25 192.15 28.02 192.00 26.00
C 191.68 25.04 188.75 24.58 189.00 23.00
C 190.39 23.54 192.25 20.70 193.00 23.00
C 195.42 22.93 198.65 22.48 201.00 23.00
C 201.95 23.21 203.04 22.83 204.00 23.00
C 200.69 25.24 201.67 29.38 200.00 32.00
C 199.64 41.33 200.83 49.97 200.00 59.00
C 199.82 60.96 200.00 63.03 200.00 65.00
C 200.00 66.55 200.31 68.48 200.00 70.00
C 199.80 70.96 200.16 72.03 200.00 73.00
C 195.33 74.27 192.02 71.59 192.00 67.00
C 191.92 66.51 192.00 66.00 192.00 66.00
C 192.49 61.43 190.71 57.33 190.00 53.00
C 189.92 52.51 190.00 52.00 190.00 52.00
C 187.13 46.52 184.81 38.46 178.00 36.00
C 177.56 35.84 177.00 36.00 177.00 36.00
C 175.95 47.63 175.65 61.79 180.00 72.00
C 175.84 73.62 170.15 73.59 166.00 72.00
C 166.67 70.80 167.64 69.42 169.00 69.00
C 169.01 68.50 169.00 68.00 169.00 68.00
C 169.00 58.67 169.00 49.33 169.00 40.00
C 169.00 39.50 169.00 38.50 169.00 38.00
C 169.00 32.75 169.97 26.95 166.00 23.00
C 167.51 21.59 169.45 22.00 171.00 23.00
M 217.00 23.00 
C 220.85 22.86 224.50 22.79 228.00 24.00
C 229.19 24.41 230.78 23.68 232.00 24.00
C 232.00 26.00 232.00 28.00 232.00 30.00
C 232.06 31.48 232.58 34.66 232.00 36.00
C 231.67 36.75 224.26 30.01 223.00 29.00
C 222.64 29.22 222.00 29.00 222.00 29.00
C 218.30 28.67 214.75 30.99 215.00 35.00
C 215.59 36.98 217.53 39.60 219.00 41.00
C 219.90 41.71 222.97 43.39 224.00 44.00
C 226.52 45.19 228.78 46.02 231.00 48.00
C 234.74 51.33 238.48 58.30 235.00 63.00
C 235.00 63.50 235.00 64.00 235.00 64.00
C 234.55 66.03 233.36 67.60 232.00 69.00
C 231.02 70.01 229.39 71.33 228.00 72.00
C 225.97 72.98 223.26 73.79 221.00 74.00
C 219.79 74.11 218.20 74.18 217.00 74.00
C 213.82 73.53 207.50 71.06 206.00 68.00
C 204.80 65.56 205.64 65.33 206.00 63.00
C 206.46 59.98 206.69 56.09 209.00 54.00
C 209.97 55.91 210.59 57.90 211.00 60.00
C 211.08 60.49 211.00 61.00 211.00 61.00
C 212.77 62.24 215.21 65.49 217.00 66.00
C 218.70 66.30 222.36 66.49 224.00 66.00
C 225.14 65.54 226.61 62.08 227.00 61.00
C 227.16 60.56 227.00 60.00 227.00 60.00
C 225.67 54.22 219.35 50.98 215.00 48.00
C 213.76 47.54 213.98 47.68 213.00 47.00
C 210.24 45.10 208.10 42.98 207.00 40.00
C 206.23 37.93 205.84 36.37 206.00 34.00
C 206.17 31.49 207.02 30.86 208.00 29.00
C 208.66 27.24 208.66 27.26 210.00 26.00
C 212.40 23.74 214.66 23.09 217.00 23.00
M 259.00 23.00 
C 259.50 23.00 260.00 23.00 260.00 23.00
C 264.93 23.46 269.41 28.58 271.00 33.00
C 271.16 33.44 271.00 34.00 271.00 34.00
C 273.08 36.56 273.74 41.55 274.00 45.00
C 274.17 47.23 274.19 49.77 274.00 52.00
C 273.78 54.61 272.78 57.49 272.00 60.00
C 271.67 61.08 271.50 61.93 271.00 63.00
C 268.82 67.66 264.78 71.51 260.00 73.00
C 256.69 74.03 254.92 73.79 252.00 73.00
C 246.50 71.51 243.20 68.47 241.00 63.00
C 240.39 61.49 240.28 60.64 240.00 59.00
C 237.37 49.90 235.68 24.36 251.00 23.00
C 251.50 22.96 252.50 23.00 253.00 23.00
C 255.07 22.02 256.95 21.40 259.00 23.00
M 118.00 24.00 
C 118.30 23.76 119.00 24.00 119.00 24.00
C 126.77 25.52 129.74 36.28 125.08 43.08 C 120.41 49.87 111.00 50.01 104.00 46.00
C 103.75 46.26 104.00 47.00 104.00 47.00
C 104.00 55.23 101.95 65.47 107.00 72.00
C 103.13 74.06 98.28 72.52 94.00 73.00
C 93.73 72.94 92.15 72.15 92.00 72.00
C 90.28 70.35 93.61 70.22 94.00 69.00
C 94.29 66.75 94.00 64.27 94.00 62.00
C 94.00 58.00 94.00 54.00 94.00 50.00
C 94.00 49.50 94.00 49.00 94.00 49.00
C 94.00 40.40 95.94 30.09 91.00 23.00
C 98.33 23.00 105.67 23.00 113.00 23.00
C 113.50 23.00 114.00 23.00 114.00 23.00
C 115.75 22.77 116.89 22.86 118.00 24.00
M 302.00 24.00 
C 306.47 25.21 308.55 26.40 310.00 31.00
C 311.08 34.43 310.97 37.11 309.69 40.69 C 308.42 44.28 303.27 44.26 302.00 46.00
C 300.95 47.95 305.02 54.36 306.00 57.00
C 307.15 59.28 308.02 61.54 309.00 64.00
C 309.60 65.13 310.29 66.65 311.00 68.00
C 311.80 69.52 313.36 70.44 314.00 72.00
C 309.12 73.87 302.93 73.26 298.00 72.00
C 298.41 71.17 298.97 70.13 300.00 70.00
C 300.21 69.88 300.00 69.00 300.00 69.00
C 299.90 64.59 297.69 61.22 297.00 57.00
C 296.92 56.51 297.00 56.00 297.00 56.00
C 295.36 53.96 294.25 51.45 293.00 49.00
C 292.63 48.27 292.30 47.75 292.00 47.00
C 290.94 45.98 289.38 45.99 288.00 46.00
C 286.72 50.79 287.33 58.64 288.00 63.00
C 288.52 66.39 288.72 70.33 292.00 72.00
C 290.46 71.63 289.60 73.43 288.00 73.00
C 287.51 73.07 287.00 73.00 287.00 73.00
C 285.00 73.00 283.00 73.00 281.00 73.00
C 280.50 73.00 280.00 73.00 280.00 73.00
C 275.27 73.13 277.44 71.85 278.00 70.00
C 278.33 68.91 278.82 67.13 279.00 66.00
C 279.72 61.59 278.29 55.26 279.00 51.00 C 279.71 46.74 277.87 38.57 279.00 35.00 C 280.13 31.43 275.18 23.73 277.00 23.00
C 277.96 22.62 279.95 23.00 281.00 23.00
C 283.00 23.00 285.00 23.00 287.00 23.00
C 288.67 23.00 290.33 23.00 292.00 23.00
C 295.63 23.00 299.04 23.20 302.00 24.00 Z"/>
</g>
<g fill="#cbd5e1f7" fill-opacity="0.90" stroke="None">
<path d="
M 54.00 11.00 
C 49.84 13.00 45.73 17.71 44.00 21.00
C 43.50 22.55 42.94 23.22 43.00 25.00
C 43.21 26.33 49.94 33.52 49.00 35.00
C 49.00 35.00 49.25 35.75 49.00 36.00
C 49.66 37.36 47.36 40.31 48.00 43.00
C 48.22 43.29 48.69 44.04 49.00 44.00
C 49.80 43.91 53.18 43.14 54.00 45.00
C 51.05 45.13 48.98 47.88 46.00 48.00
C 46.00 48.00 45.36 47.78 45.00 48.00
C 42.95 50.93 39.97 51.98 38.00 54.00
C 37.41 54.84 36.49 56.13 36.00 57.00
C 35.19 58.83 36.13 63.49 35.93 66.08 C 35.73 68.66 39.66 73.59 39.00 76.00
C 38.60 77.48 36.91 78.09 36.00 79.00
C 32.47 82.53 27.26 85.92 22.00 83.00
C 24.35 80.94 24.25 80.47 22.00 79.00
C 18.69 77.79 15.66 80.31 13.00 80.00
C 12.77 80.26 12.20 80.69 12.00 81.00
C 12.25 82.31 12.97 83.95 12.00 86.00
C 15.39 89.90 22.91 88.77 27.00 89.00
C 27.00 89.00 27.57 89.17 28.00 89.00
C 29.73 86.23 39.99 79.87 42.00 80.00
C 44.76 80.18 47.37 82.27 50.00 83.00
C 51.99 83.33 57.02 81.34 58.00 85.00
C 58.00 85.00 58.50 85.00 59.00 85.00
C 62.42 83.51 65.68 83.92 67.00 84.00
C 69.03 83.71 70.41 83.62 72.00 83.00
C 74.15 82.17 76.52 80.73 79.00 80.00
C 80.25 79.63 80.16 79.88 81.00 79.00
C 83.05 76.85 85.35 74.17 87.00 72.00
C 91.52 66.05 90.77 59.26 89.00 53.00
C 88.57 51.91 87.04 51.82 87.00 49.00
C 87.00 49.00 87.20 48.40 87.00 48.00
C 84.01 45.91 81.05 42.94 79.00 40.00
C 79.00 40.00 78.41 40.19 78.00 40.00
C 71.96 37.26 75.55 29.30 79.00 26.00
C 79.26 25.75 79.79 25.30 80.00 25.00
C 79.34 22.47 84.94 14.46 82.00 14.00
C 81.14 14.18 79.88 14.04 79.00 14.00
C 76.49 13.89 75.84 13.02 74.00 12.00
C 72.93 11.41 71.46 10.27 70.00 10.00
C 67.87 9.81 61.25 10.05 59.00 10.00
C 56.96 10.15 55.84 10.39 54.00 11.00
M 72.00 29.00 
C 71.62 30.32 69.00 38.05 67.00 34.00
C 66.83 33.66 66.85 31.35 67.00 31.00
C 64.71 30.86 62.63 32.45 60.00 32.00
C 55.59 31.25 50.48 21.48 56.00 20.00
C 56.16 19.56 56.00 19.00 56.00 19.00
C 54.34 16.39 64.31 11.00 68.07 14.93 C 71.83 18.85 73.55 23.67 72.00 29.00
M 66.00 41.00 
C 68.83 45.98 59.79 48.15 57.00 45.00
C 58.36 43.49 57.49 40.54 60.00 40.00
C 62.13 38.73 64.50 38.36 66.00 41.00
M 73.00 45.00 
C 75.46 46.12 75.67 48.08 76.00 49.00
C 76.65 50.85 76.26 53.17 79.00 54.00
C 78.08 55.13 77.52 59.86 77.00 56.00
C 75.29 54.92 69.53 49.59 69.00 48.00
C 68.51 46.53 70.63 45.37 69.00 44.00
C 70.56 43.59 71.69 44.46 73.00 45.00
M 60.00 51.00 
C 61.24 52.24 56.13 59.38 55.00 61.00
C 53.67 62.90 51.68 65.77 50.00 67.00
C 49.02 67.71 47.25 69.17 46.00 68.00
C 42.12 64.35 48.19 49.57 52.00 52.00
C 52.35 51.77 53.00 52.00 53.00 52.00
C 54.19 49.38 58.25 49.25 60.00 51.00
M 66.00 54.00 
C 70.07 58.14 63.02 64.23 60.00 59.00
C 59.83 58.70 63.91 51.88 66.00 54.00
M 79.00 60.00 
C 80.81 62.14 80.27 66.27 78.00 68.00
C 77.84 68.44 78.00 69.00 78.00 69.00
C 77.74 71.80 75.57 74.74 73.00 76.00
C 72.60 76.20 72.00 76.00 72.00 76.00
C 71.45 77.53 70.55 79.32 69.00 78.00
C 68.68 78.24 68.00 78.00 68.00 78.00
C 64.28 82.86 48.27 78.81 50.00 73.00
C 50.24 72.20 50.67 70.70 51.00 70.00
C 52.07 67.74 54.40 66.60 56.00 65.00
C 57.05 63.77 58.18 62.34 59.00 61.00
C 60.01 61.55 60.44 62.98 61.00 64.00
C 63.26 65.82 67.70 69.07 70.00 69.00
C 71.82 68.79 72.75 68.07 74.00 67.00
C 76.03 64.73 75.48 61.85 78.00 60.00
C 78.89 59.35 78.20 59.05 79.00 60.00 Z"/>
</g>
<g fill="#cbd5e1f7" fill-opacity="0.81" stroke="None">
<path d="
M 70.00 10.00 
C 66.75 9.40 62.30 9.76 59.00 10.00
C 61.25 10.05 67.87 9.81 70.00 10.00 Z"/>
</g>
<g fill="#cbd5e1f7" fill-opacity="0.40" stroke="None">
<path d="
M 44.00 21.00 
C 45.73 17.71 49.84 13.00 54.00 11.00
C 48.51 12.82 45.73 15.67 44.00 21.00 Z"/>
</g>
<g fill="#cbd5e1f7" fill-opacity="0.36" stroke="None">
<path d="
M 79.00 14.00 
C 78.02 13.78 75.25 12.51 74.00 12.00
C 75.84 13.02 76.49 13.89 79.00 14.00 Z"/>
</g>
<g fill="#cbd5e1f7" fill-opacity="0.22" stroke="None">
<path d="
M 82.00 14.00 
C 84.94 14.46 79.34 22.47 80.00 25.00
C 81.76 21.01 83.69 17.10 85.00 13.00
C 83.84 12.18 82.53 13.89 82.00 14.00 Z"/>
</g>
<g fill="#cbd5e1f7" fill-opacity="0.18" stroke="None">
<path d="
M 56.00 19.00 
C 64.68 12.86 73.65 17.16 72.00 29.00
C 73.55 23.67 71.83 18.85 68.07 14.93 C 64.31 11.00 54.34 16.39 56.00 19.00 Z"/>
</g>
<g fill="#000000" fill-opacity="0.00" stroke="None">
<path d="
M 56.00 19.00 
C 56.00 19.00 56.16 19.56 56.00 20.00
C 54.64 23.83 54.98 30.73 60.00 32.00
C 62.63 32.45 64.71 30.86 67.00 31.00
C 68.69 31.10 69.22 32.01 67.00 34.00
C 69.00 38.05 71.62 30.32 72.00 29.00
C 73.65 17.16 64.68 12.86 56.00 19.00 Z"/>
</g>
<g fill="#cbd5e1f7" fill-opacity="0.18" stroke="None">
<path d="
M 60.00 32.00 
C 54.98 30.73 54.64 23.83 56.00 20.00
C 50.48 21.48 55.59 31.25 60.00 32.00 Z"/>
</g>
<g fill="#cbd5e1f7" fill-opacity="0.06" stroke="None">
<path d="
M 143.00 23.00 
C 145.00 23.00 147.00 23.00 149.00 23.00
C 146.95 21.40 145.07 22.02 143.00 23.00 Z"/>
</g>
<g fill="#cbd5e1f7" fill-opacity="0.32" stroke="None">
<path d="
M 169.00 38.00 
C 170.92 33.49 171.20 27.02 168.00 23.00
C 169.16 22.21 170.53 24.96 171.00 23.00
C 169.45 22.00 167.51 21.59 166.00 23.00
C 169.97 26.95 169.00 32.75 169.00 38.00 Z"/>
</g>
<g fill="#cbd5e1f7" fill-opacity="0.23" stroke="None">
<path d="
M 192.00 26.00 
C 191.89 24.55 190.83 23.69 193.00 23.00
C 192.25 20.70 190.39 23.54 189.00 23.00
C 188.75 24.58 191.68 25.04 192.00 26.00 Z"/>
</g>
<g fill="#cbd5e1f7" fill-opacity="0.33" stroke="None">
<path d="
M 210.00 26.00 
C 211.29 25.13 215.37 23.33 217.00 23.00
C 214.66 23.09 212.40 23.74 210.00 26.00 Z"/>
</g>
<g fill="#cbd5e1f7" fill-opacity="0.06" stroke="None">
<path d="
M 253.00 23.00 
C 255.00 23.00 257.00 23.00 259.00 23.00
C 256.95 21.40 255.07 22.02 253.00 23.00 Z"/>
</g>
<g fill="#cbd5e1f7" fill-opacity="0.37" stroke="None">
<path d="
M 94.00 49.00 
C 98.02 43.57 93.81 31.21 94.00 25.00
C 99.68 22.15 107.73 25.89 113.00 23.00
C 105.67 23.00 98.33 23.00 91.00 23.00
C 95.94 30.09 94.00 40.40 94.00 49.00 Z"/>
</g>
<g fill="#cbd5e1f7" fill-opacity="0.96" stroke="None">
<path d="
M 94.00 49.00 
C 94.00 49.00 94.00 49.50 94.00 50.00
C 96.45 53.32 94.31 58.78 94.00 62.00
C 94.00 64.27 94.29 66.75 94.00 69.00
C 93.84 70.26 91.95 71.34 92.00 72.00
C 92.15 72.15 93.73 72.94 94.00 73.00
C 96.44 72.98 100.81 70.94 104.00 72.00
C 102.79 64.22 102.01 54.34 104.00 47.00
C 104.00 47.00 103.75 46.26 104.00 46.00
C 106.04 43.88 112.55 49.76 116.70 47.65 C 120.84 45.54 126.10 43.02 125.99 36.99 C 125.89 30.96 123.97 26.96 119.00 24.00
C 119.00 24.00 118.30 23.76 118.00 24.00
C 116.84 24.94 115.23 23.95 114.00 23.00
C 114.00 23.00 113.50 23.00 113.00 23.00
C 107.73 25.89 99.68 22.15 94.00 25.00
C 93.81 31.21 98.02 43.57 94.00 49.00
M 112.00 29.00 
C 112.69 29.36 114.24 30.44 115.00 31.00
C 122.14 36.26 114.60 46.37 107.31 41.69 C 100.01 37.01 101.95 23.81 112.00 29.00 Z"/>
</g>
<g fill="#cbd5e1f7" fill-opacity="0.44" stroke="None">
<path d="
M 118.00 24.00 
C 116.89 22.86 115.75 22.77 114.00 23.00
C 115.23 23.95 116.84 24.94 118.00 24.00 Z"/>
</g>
<g fill="#cbd5e1f7" fill-opacity="0.27" stroke="None">
<path d="
M 129.00 40.00 
C 130.76 33.95 134.52 25.30 141.00 23.00
C 132.98 23.71 130.09 33.81 129.00 40.00 Z"/>
</g>
<g fill="#cbd5e1f7" fill-opacity="0.92" stroke="None">
<path d="
M 129.00 40.00 
C 128.52 42.72 128.02 44.99 128.00 48.00
C 128.13 49.86 129.86 50.88 128.00 53.00
C 128.00 53.00 127.85 53.55 128.00 54.00
C 130.16 55.55 131.26 59.09 130.00 61.00
C 130.00 61.00 129.83 61.57 130.00 62.00
C 136.07 65.84 139.10 74.84 149.00 74.00
C 150.85 73.66 152.64 71.92 154.00 71.00
C 157.02 68.18 160.27 63.66 162.00 60.00
C 164.25 53.41 164.50 46.87 163.00 40.00
C 162.44 38.21 161.52 36.16 161.00 34.00
C 160.70 32.76 160.53 32.15 160.00 31.00
C 157.53 27.47 153.18 25.55 150.00 23.00
C 150.00 23.00 149.50 23.00 149.00 23.00
C 147.00 23.00 145.00 23.00 143.00 23.00
C 142.50 23.00 141.50 22.96 141.00 23.00
C 134.52 25.30 130.76 33.95 129.00 40.00
M 150.00 34.00 
C 151.78 37.86 153.71 40.49 154.00 45.00
C 154.32 46.93 154.03 49.32 154.00 51.00
C 154.21 54.53 154.86 57.86 154.00 62.00
C 153.54 64.21 154.21 66.69 151.00 67.00
C 150.50 67.05 150.00 67.00 150.00 67.00
C 145.41 70.67 143.36 62.14 139.00 62.00
C 141.17 56.86 134.18 50.14 138.00 45.00
C 137.75 41.09 136.80 37.71 138.00 34.00
C 140.94 24.89 147.46 28.50 150.00 34.00 Z"/>
</g>
<g fill="#cbd5e1f7" fill-opacity="0.29" stroke="None">
<path d="
M 160.00 31.00 
C 158.12 26.97 154.58 23.34 150.00 23.00
C 153.18 25.55 157.53 27.47 160.00 31.00 Z"/>
</g>
<g fill="#cbd5e1f7" fill-opacity="0.93" stroke="None">
<path d="
M 169.00 38.00 
C 169.00 38.50 169.00 39.50 169.00 40.00
C 171.00 44.70 172.14 63.75 169.00 68.00
C 169.00 68.00 169.01 68.50 169.00 69.00
C 168.99 69.37 169.76 70.92 169.00 72.00
C 171.23 70.72 174.21 72.76 177.00 72.00
C 175.25 60.92 175.34 47.20 177.00 36.00
C 177.00 36.00 177.56 35.84 178.00 36.00
C 176.92 32.10 182.91 37.69 184.75 40.25 C 186.59 42.81 189.93 48.44 190.00 52.00
C 190.00 52.00 189.92 52.51 190.00 53.00
C 192.90 55.22 194.05 63.23 192.00 66.00
C 192.00 66.00 191.92 66.51 192.00 67.00
C 193.19 68.21 195.52 70.23 194.00 72.00
C 196.60 72.34 198.65 72.05 200.00 70.00
C 200.31 68.48 200.00 66.55 200.00 65.00
C 199.79 62.87 199.58 61.19 200.00 59.00
C 200.83 49.97 199.64 41.33 200.00 32.00
C 200.12 28.77 200.31 26.07 201.00 23.00
C 198.65 22.48 195.42 22.93 193.00 23.00
C 190.83 23.69 191.89 24.55 192.00 26.00
C 192.15 28.02 192.88 30.25 193.00 32.00
C 193.94 35.12 194.75 33.77 193.00 37.00
C 192.78 37.95 193.39 39.74 192.00 40.00
C 191.48 36.49 189.17 33.75 187.00 31.00
C 184.54 28.54 179.94 25.20 177.00 24.00
C 174.82 23.30 173.38 23.21 171.00 23.00
C 170.53 24.96 169.16 22.21 168.00 23.00
C 171.20 27.02 170.92 33.49 169.00 38.00 Z"/>
</g>
<g fill="#cbd5e1f7" fill-opacity="0.28" stroke="None">
<path d="
M 200.00 32.00 
C 201.67 29.38 200.69 25.24 204.00 23.00
C 203.04 22.83 201.95 23.21 201.00 23.00
C 200.31 26.07 200.12 28.77 200.00 32.00 Z"/>
</g>
<g fill="#cbd5e1f7" fill-opacity="0.93" stroke="None">
<path d="
M 210.00 26.00 
C 208.66 27.26 208.66 27.24 208.00 29.00
C 207.56 30.17 206.12 33.17 206.00 34.00
C 205.84 36.37 206.23 37.93 207.00 40.00
C 208.02 42.15 211.28 45.19 213.00 47.00
C 213.98 47.68 213.76 47.54 215.00 48.00
C 218.80 49.42 230.13 55.22 227.00 60.00
C 227.00 60.00 227.16 60.56 227.00 61.00
C 228.08 62.76 226.06 65.39 224.00 66.00
C 222.36 66.49 218.70 66.30 217.00 66.00
C 213.64 65.41 212.18 64.02 211.00 61.00
C 211.00 61.00 211.08 60.49 211.00 60.00
C 210.73 59.44 209.70 58.30 209.00 58.00
C 207.31 59.39 207.52 61.83 206.00 63.00
C 205.64 65.33 204.80 65.56 206.00 68.00
C 206.84 69.20 215.76 73.67 217.00 74.00
C 218.20 74.18 219.79 74.11 221.00 74.00
C 222.27 73.71 227.48 72.19 228.00 72.00
C 229.39 71.33 231.02 70.01 232.00 69.00
C 233.09 67.63 233.64 65.39 235.00 64.00
C 235.00 64.00 235.00 63.50 235.00 63.00
C 235.00 57.35 234.90 52.30 231.00 48.00
C 228.78 46.02 226.52 45.19 224.00 44.00
C 222.14 43.12 220.38 42.31 219.00 41.00
C 217.53 39.60 215.59 36.98 215.00 35.00
C 214.02 31.69 217.78 25.62 222.00 29.00
C 222.00 29.00 222.64 29.22 223.00 29.00
C 225.82 27.25 229.78 34.55 232.00 36.00
C 232.58 34.66 232.06 31.48 232.00 30.00
C 231.60 27.28 230.41 25.27 228.00 24.00
C 224.50 22.79 220.85 22.86 217.00 23.00
C 215.37 23.33 211.29 25.13 210.00 26.00 Z"/>
</g>
<g fill="#cbd5e1f7" fill-opacity="0.24" stroke="None">
<path d="
M 240.00 59.00 
C 237.82 46.04 238.00 29.37 251.00 23.00
C 235.68 24.36 237.37 49.90 240.00 59.00 Z"/>
</g>
<g fill="#cbd5e1f7" fill-opacity="0.94" stroke="None">
<path d="
M 240.00 59.00 
C 240.28 60.64 240.39 61.49 241.00 63.00
C 243.08 66.78 248.14 71.45 252.00 73.00
C 254.92 73.79 256.69 74.03 260.00 73.00
C 263.67 71.40 268.59 66.45 271.00 63.00
C 271.50 61.93 271.67 61.08 272.00 60.00
C 272.26 58.33 273.64 53.94 274.00 52.00
C 274.19 49.77 274.17 47.23 274.00 45.00
C 273.54 42.35 269.65 36.21 271.00 34.00
C 271.00 34.00 271.16 33.44 271.00 33.00
C 267.42 29.57 263.77 26.03 260.00 23.00
C 260.00 23.00 259.50 23.00 259.00 23.00
C 257.00 23.00 255.00 23.00 253.00 23.00
C 252.50 23.00 251.50 22.96 251.00 23.00
C 238.00 29.37 237.82 46.04 240.00 59.00
M 260.00 35.00 
C 260.17 35.33 260.74 35.76 261.00 36.00
C 265.58 40.24 264.69 47.95 264.00 53.00
C 264.00 54.33 264.03 55.67 264.00 57.00
C 264.98 64.29 257.25 73.74 252.00 63.00
C 251.80 62.60 252.00 62.00 252.00 62.00
C 248.20 59.63 248.30 53.91 248.00 51.00
C 247.57 49.11 247.22 46.91 247.00 45.00
C 246.90 44.78 245.35 46.61 245.36 44.29 C 245.36 41.96 246.54 43.25 247.00 42.00
C 247.13 40.04 247.48 37.91 248.00 36.00
C 248.21 34.45 247.42 31.64 250.00 30.00
C 249.50 30.32 252.63 28.87 252.00 29.00
C 254.40 25.93 260.22 31.16 260.00 35.00 Z"/>
</g>
<g fill="#cbd5e1f7" fill-opacity="0.30" stroke="None">
<path d="
M 271.00 33.00 
C 269.41 28.58 264.93 23.46 260.00 23.00
C 263.77 26.03 267.42 29.57 271.00 33.00 Z"/>
</g>
<g fill="#cbd5e1f7" fill-opacity="0.29" stroke="None">
<path d="
M 279.00 66.00 
C 282.88 53.51 280.20 35.07 277.00 23.00
C 275.18 23.73 280.13 31.43 279.00 35.00 C 277.87 38.57 279.71 46.74 279.00 51.00 C 278.29 55.26 279.72 61.59 279.00 66.00 Z"/>
</g>
<g fill="#cbd5e1f7" fill-opacity="0.94" stroke="None">
<path d="
M 279.00 66.00 
C 278.82 67.13 278.33 68.91 278.00 70.00
C 278.04 70.19 279.70 72.64 280.00 73.00
C 280.00 73.00 280.50 73.00 281.00 73.00
C 282.81 71.59 285.22 71.61 287.00 73.00
C 287.00 73.00 287.51 73.07 288.00 73.00
C 289.04 71.59 288.05 64.35 288.00 63.00
C 287.33 58.64 286.72 50.79 288.00 46.00
C 289.17 41.62 290.87 44.19 292.00 47.00
C 292.30 47.75 292.63 48.27 293.00 49.00
C 294.99 51.23 296.27 52.92 297.00 56.00
C 297.00 56.00 296.92 56.51 297.00 57.00
C 299.15 59.51 302.17 66.17 300.00 69.00
C 300.00 69.00 300.21 69.88 300.00 70.00
C 301.23 73.38 307.24 71.13 311.00 72.00
C 310.33 70.73 310.00 68.79 311.00 68.00
C 310.29 66.65 309.60 65.13 309.00 64.00
C 307.88 61.90 306.89 59.42 306.00 57.00
C 305.02 54.36 300.95 47.95 302.00 46.00
C 303.14 43.88 308.56 43.00 308.92 39.92 C 309.28 36.83 310.54 34.23 310.00 31.00
C 308.55 26.40 306.47 25.21 302.00 24.00
C 299.58 23.71 293.37 23.22 292.00 23.00
C 290.33 23.00 288.67 23.00 287.00 23.00
C 284.98 23.20 283.01 23.28 281.00 23.00
C 279.95 23.00 277.96 22.62 277.00 23.00
C 280.20 35.07 282.88 53.51 279.00 66.00
M 301.00 37.00 
C 300.96 37.50 301.00 38.00 301.00 38.00
C 300.12 41.36 296.98 40.99 295.00 40.00
C 294.50 39.98 293.45 40.15 293.00 40.00
C 290.86 39.26 289.38 36.97 289.00 35.00
C 288.91 34.52 289.00 34.00 289.00 34.00
C 281.66 24.65 308.22 27.61 301.00 37.00 Z"/>
</g>
<g fill="#cbd5e1f7" fill-opacity="0.61" stroke="None">
<path d="
M 287.00 23.00 
C 285.00 23.00 283.00 23.00 281.00 23.00
C 283.01 23.28 284.98 23.20 287.00 23.00 Z"/>
</g>
<g fill="#cbd5e1f7" fill-opacity="0.62" stroke="None">
<path d="
M 302.00 24.00 
C 299.04 23.20 295.63 23.00 292.00 23.00
C 293.37 23.22 299.58 23.71 302.00 24.00 Z"/>
</g>
<g fill="#cbd5e1f7" fill-opacity="0.25" stroke="None">
<path d="
M 104.00 46.00 
C 111.00 50.01 120.41 49.87 125.08 43.08 C 129.74 36.28 126.77 25.52 119.00 24.00
C 123.97 26.96 125.89 30.96 125.99 36.99 C 126.10 43.02 120.84 45.54 116.70 47.65 C 112.55 49.76 106.04 43.88 104.00 46.00 Z"/>
</g>
<g fill="#cbd5e1f7" fill-opacity="0.17" stroke="None">
<path d="
M 187.00 31.00 
C 184.26 27.53 181.14 25.32 177.00 24.00
C 179.94 25.20 184.54 28.54 187.00 31.00 Z"/>
</g>
<g fill="#cbd5e1f7" fill-opacity="0.26" stroke="None">
<path d="
M 232.00 30.00 
C 232.00 28.00 232.00 26.00 232.00 24.00
C 230.78 23.68 229.19 24.41 228.00 24.00
C 230.41 25.27 231.60 27.28 232.00 30.00 Z"/>
</g>
<g fill="#cbd5e1f7" fill-opacity="0.18" stroke="None">
<path d="
M 49.00 35.00 
C 49.94 33.52 43.21 26.33 43.00 25.00
C 43.12 28.32 46.25 33.21 49.00 35.00 Z"/>
</g>
<g fill="#cbd5e1f7" fill-opacity="0.15" stroke="None">
<path d="
M 78.00 40.00 
C 74.10 35.53 76.93 30.96 79.00 26.00
C 75.55 29.30 71.96 37.26 78.00 40.00 Z"/>
</g>
<g fill="#cbd5e1f7" fill-opacity="0.22" stroke="None">
<path d="
M 115.00 31.00 
C 126.87 42.56 95.57 45.96 104.00 29.00
C 106.67 29.00 109.33 29.00 112.00 29.00
C 101.95 23.81 100.01 37.01 107.31 41.69 C 114.60 46.37 122.14 36.26 115.00 31.00 Z"/>
</g>
<g fill="#cbd5e1f7" fill-opacity="0.21" stroke="None">
<path d="
M 138.00 34.00 
C 141.09 27.74 146.36 28.53 150.00 34.00
C 147.46 28.50 140.94 24.89 138.00 34.00 Z"/>
</g>
<g fill="#cbd5e1f7" fill-opacity="0.19" stroke="None">
<path d="
M 215.00 35.00 
C 214.75 30.99 218.30 28.67 222.00 29.00
C 217.78 25.62 214.02 31.69 215.00 35.00 Z"/>
</g>
<g fill="#cbd5e1f7" fill-opacity="0.19" stroke="None">
<path d="
M 223.00 29.00 
C 224.26 30.01 231.67 36.75 232.00 36.00
C 229.78 34.55 225.82 27.25 223.00 29.00 Z"/>
</g>
<g fill="#cbd5e1f7" fill-opacity="0.21" stroke="None">
<path d="
M 252.00 29.00 
C 256.00 28.17 258.55 32.09 260.00 35.00
C 260.22 31.16 254.40 25.93 252.00 29.00 Z"/>
</g>
<g fill="#cbd5e1f7" fill-opacity="0.12" stroke="None">
<path d="
M 289.00 34.00 
C 287.54 25.33 301.71 29.14 301.00 37.00
C 308.22 27.61 281.66 24.65 289.00 34.00 Z"/>
</g>
<g fill="#000000" fill-opacity="0.00" stroke="None">
<path d="
M 115.00 31.00 
C 114.24 30.44 112.69 29.36 112.00 29.00
C 109.33 29.00 106.67 29.00 104.00 29.00
C 95.57 45.96 126.87 42.56 115.00 31.00 Z"/>
</g>
<g fill="#000000" fill-opacity="0.00" stroke="None">
<path d="
M 138.00 34.00 
C 136.80 37.71 137.75 41.09 138.00 45.00
C 138.44 51.81 139.78 67.92 150.00 67.00
C 150.00 67.00 150.50 67.05 151.00 67.00
C 152.12 65.80 153.64 63.23 154.00 62.00
C 154.86 57.86 154.21 54.53 154.00 51.00
C 153.88 49.01 154.13 46.99 154.00 45.00
C 153.71 40.49 151.78 37.86 150.00 34.00
C 146.36 28.53 141.09 27.74 138.00 34.00 Z"/>
</g>
<g fill="#cbd5e1f7" fill-opacity="0.24" stroke="None">
<path d="
M 206.00 34.00 
C 206.12 33.17 207.56 30.17 208.00 29.00
C 207.02 30.86 206.17 31.49 206.00 34.00 Z"/>
</g>
<g fill="#000000" fill-opacity="0.00" stroke="None">
<path d="
M 250.00 30.00 
C 249.22 30.86 248.35 34.73 248.00 36.00
C 247.48 37.91 247.13 40.04 247.00 42.00
C 246.94 42.93 246.89 44.07 247.00 45.00
C 247.22 46.91 247.57 49.11 248.00 51.00
C 248.82 54.58 250.00 58.82 252.00 62.00
C 252.00 62.00 251.80 62.60 252.00 63.00
C 259.12 67.98 263.81 66.98 264.00 57.00
C 264.03 55.67 264.00 54.33 264.00 53.00
C 264.00 46.84 263.30 41.51 261.00 36.00
C 260.74 35.76 260.17 35.33 260.00 35.00
C 258.55 32.09 256.00 28.17 252.00 29.00
C 252.63 28.87 249.50 30.32 250.00 30.00 Z"/>
</g>
<g fill="#000000" fill-opacity="0.00" stroke="None">
<path d="
M 289.00 34.00 
C 289.00 34.00 288.91 34.52 289.00 35.00
C 289.65 36.02 291.91 39.36 293.00 40.00
C 293.45 40.15 294.50 39.98 295.00 40.00
C 297.01 40.10 299.74 39.79 301.00 38.00
C 301.00 38.00 300.96 37.50 301.00 37.00
C 301.71 29.14 287.54 25.33 289.00 34.00 Z"/>
</g>
<g fill="#cbd5e1f7" fill-opacity="0.25" stroke="None">
<path d="
M 67.00 31.00 
C 66.85 31.35 66.83 33.66 67.00 34.00
C 69.22 32.01 68.69 31.10 67.00 31.00 Z"/>
</g>
<g fill="#cbd5e1f7" fill-opacity="0.14" stroke="None">
<path d="
M 248.00 36.00 
C 248.35 34.73 249.22 30.86 250.00 30.00
C 247.42 31.64 248.21 34.45 248.00 36.00 Z"/>
</g>
<g fill="#cbd5e1f7" fill-opacity="0.39" stroke="None">
<path d="
M 302.00 46.00 
C 303.27 44.26 308.42 44.28 309.69 40.69 C 310.97 37.11 311.08 34.43 310.00 31.00
C 310.54 34.23 309.28 36.83 308.92 39.92 C 308.56 43.00 303.14 43.88 302.00 46.00 Z"/>
</g>
<g fill="#cbd5e1f7" fill-opacity="0.50" stroke="None">
<path d="
M 193.00 37.00 
C 194.75 33.77 193.94 35.12 193.00 32.00
C 193.09 33.24 193.07 36.65 193.00 37.00 Z"/>
</g>
<g fill="#cbd5e1f7" fill-opacity="0.30" stroke="None">
<path d="
M 163.00 40.00 
C 162.49 37.64 161.81 35.95 161.00 34.00
C 161.52 36.16 162.44 38.21 163.00 40.00 Z"/>
</g>
<g fill="#cbd5e1f7" fill-opacity="0.20" stroke="None">
<path d="
M 178.00 36.00 
C 184.81 38.46 187.13 46.52 190.00 52.00
C 189.93 48.44 186.59 42.81 184.75 40.25 C 182.91 37.69 176.92 32.10 178.00 36.00 Z"/>
</g>
<g fill="#cbd5e1f7" fill-opacity="0.26" stroke="None">
<path d="
M 274.00 45.00 
C 273.74 41.55 273.08 36.56 271.00 34.00
C 269.65 36.21 273.54 42.35 274.00 45.00 Z"/>
</g>
<g fill="#cbd5e1f7" fill-opacity="0.12" stroke="None">
<path d="
M 293.00 40.00 
C 291.91 39.36 289.65 36.02 289.00 35.00
C 289.38 36.97 290.86 39.26 293.00 40.00 Z"/>
</g>
<g fill="#cbd5e1f7" fill-opacity="0.25" stroke="None">
<path d="
M 48.00 43.00 
C 47.36 40.31 49.66 37.36 49.00 36.00
C 46.98 37.98 46.34 40.83 48.00 43.00 Z"/>
</g>
<g fill="#cbd5e1f7" fill-opacity="0.35" stroke="None">
<path d="
M 169.00 69.00 
C 167.64 69.42 166.67 70.80 166.00 72.00
C 170.15 73.59 175.84 73.62 180.00 72.00
C 175.65 61.79 175.95 47.63 177.00 36.00
C 175.34 47.20 175.25 60.92 177.00 72.00
C 174.21 72.76 171.23 70.72 169.00 72.00
C 169.76 70.92 168.99 69.37 169.00 69.00 Z"/>
</g>
<g fill="#cbd5e1f7" fill-opacity="0.13" stroke="None">
<path d="
M 264.00 53.00 
C 264.69 47.95 265.58 40.24 261.00 36.00
C 263.30 41.51 264.00 46.84 264.00 53.00 Z"/>
</g>
<g fill="#cbd5e1f7" fill-opacity="0.16" stroke="None">
<path d="
M 295.00 40.00 
C 296.98 40.99 300.12 41.36 301.00 38.00
C 299.74 39.79 297.01 40.10 295.00 40.00 Z"/>
</g>
<g fill="#cbd5e1f7" fill-opacity="0.20" stroke="None">
<path d="
M 60.00 40.00 
C 62.22 39.29 63.93 40.95 66.00 41.00
C 64.50 38.36 62.13 38.73 60.00 40.00 Z"/>
</g>
<g fill="#000000" fill-opacity="0.04" stroke="None">
<path d="
M 66.00 41.00 
C 63.93 40.95 62.22 39.29 60.00 40.00
C 57.49 40.54 58.36 43.49 57.00 45.00
C 59.79 48.15 68.83 45.98 66.00 41.00 Z"/>
</g>
<g fill="#cbd5e1f7" fill-opacity="0.29" stroke="None">
<path d="
M 87.00 48.00 
C 85.74 45.42 81.64 41.29 79.00 40.00
C 81.05 42.94 84.01 45.91 87.00 48.00 Z"/>
</g>
<g fill="#cbd5e1f7" fill-opacity="0.05" stroke="None">
<path d="
M 169.00 68.00 
C 172.14 63.75 171.00 44.70 169.00 40.00
C 169.00 49.33 169.00 58.67 169.00 68.00 Z"/>
</g>
<g fill="#cbd5e1f7" fill-opacity="0.19" stroke="None">
<path d="
M 213.00 47.00 
C 211.28 45.19 208.02 42.15 207.00 40.00
C 208.10 42.98 210.24 45.10 213.00 47.00 Z"/>
</g>
<g fill="#cbd5e1f7" fill-opacity="0.36" stroke="None">
<path d="
M 224.00 44.00 
C 222.97 43.39 219.90 41.71 219.00 41.00
C 220.38 42.31 222.14 43.12 224.00 44.00 Z"/>
</g>
<g fill="#cbd5e1f7" fill-opacity="0.75" stroke="None">
<path d="
M 247.00 45.00 
C 246.89 44.07 246.94 42.93 247.00 42.00
C 246.54 43.25 245.36 41.96 245.36 44.29 C 245.35 46.61 246.90 44.78 247.00 45.00 Z"/>
</g>
<g fill="#cbd5e1f7" fill-opacity="0.18" stroke="None">
<path d="
M 49.00 44.00 
C 49.34 45.69 47.18 47.48 46.00 48.00
C 48.98 47.88 51.05 45.13 54.00 45.00
C 53.18 43.14 49.80 43.91 49.00 44.00 Z"/>
</g>
<g fill="#cbd5e1f7" fill-opacity="0.20" stroke="None">
<path d="
M 288.00 46.00 
C 289.38 45.99 290.94 45.98 292.00 47.00
C 290.87 44.19 289.17 41.62 288.00 46.00 Z"/>
</g>
<g fill="#000000" fill-opacity="0.02" stroke="None">
<path d="
M 69.00 48.00 
C 73.34 48.10 74.56 53.76 77.00 56.00
C 77.52 59.86 78.08 55.13 79.00 54.00
C 76.26 53.17 76.65 50.85 76.00 49.00
C 75.57 48.25 73.78 45.55 73.00 45.00
C 71.69 44.46 70.56 43.59 69.00 44.00
C 70.63 45.37 68.51 46.53 69.00 48.00 Z"/>
</g>
<g fill="#cbd5e1f7" fill-opacity="0.16" stroke="None">
<path d="
M 76.00 49.00 
C 75.67 48.08 75.46 46.12 73.00 45.00
C 73.78 45.55 75.57 48.25 76.00 49.00 Z"/>
</g>
<g fill="#cbd5e1f7" fill-opacity="0.33" stroke="None">
<path d="
M 150.00 67.00 
C 139.78 67.92 138.44 51.81 138.00 45.00
C 134.18 50.14 141.17 56.86 139.00 62.00
C 143.36 62.14 145.41 70.67 150.00 67.00 Z"/>
</g>
<g fill="#cbd5e1f7" fill-opacity="0.08" stroke="None">
<path d="
M 154.00 51.00 
C 154.03 49.32 154.32 46.93 154.00 45.00
C 154.13 46.99 153.88 49.01 154.00 51.00 Z"/>
</g>
<g fill="#cbd5e1f7" fill-opacity="0.16" stroke="None">
<path d="
M 94.00 73.00 
C 98.28 72.52 103.13 74.06 107.00 72.00
C 101.95 65.47 104.00 55.23 104.00 47.00
C 102.01 54.34 102.79 64.22 104.00 72.00
C 100.81 70.94 96.44 72.98 94.00 73.00 Z"/>
</g>
<g fill="#cbd5e1f7" fill-opacity="0.27" stroke="None">
<path d="
M 38.00 54.00 
C 39.97 51.98 42.95 50.93 45.00 48.00
C 42.26 49.70 39.92 51.27 38.00 54.00 Z"/>
</g>
<g fill="#cbd5e1f7" fill-opacity="0.37" stroke="None">
<path d="
M 77.00 56.00 
C 74.56 53.76 73.34 48.10 69.00 48.00
C 69.53 49.59 75.29 54.92 77.00 56.00 Z"/>
</g>
<g fill="#cbd5e1f7" fill-opacity="0.08" stroke="None">
<path d="
M 128.00 53.00 
C 129.86 50.88 128.13 49.86 128.00 48.00
C 127.99 49.67 128.00 51.33 128.00 53.00 Z"/>
</g>
<g fill="#cbd5e1f7" fill-opacity="0.24" stroke="None">
<path d="
M 227.00 60.00 
C 230.13 55.22 218.80 49.42 215.00 48.00
C 219.35 50.98 225.67 54.22 227.00 60.00 Z"/>
</g>
<g fill="#cbd5e1f7" fill-opacity="0.22" stroke="None">
<path d="
M 235.00 63.00 
C 238.48 58.30 234.74 51.33 231.00 48.00
C 234.90 52.30 235.00 57.35 235.00 63.00 Z"/>
</g>
<g fill="#cbd5e1f7" fill-opacity="0.41" stroke="None">
<path d="
M 89.00 53.00 
C 88.51 51.26 88.27 50.23 87.00 49.00
C 87.04 51.82 88.57 51.91 89.00 53.00 Z"/>
</g>
<g fill="#cbd5e1f7" fill-opacity="0.18" stroke="None">
<path d="
M 297.00 56.00 
C 296.27 52.92 294.99 51.23 293.00 49.00
C 294.25 51.45 295.36 53.96 297.00 56.00 Z"/>
</g>
<g fill="#cbd5e1f7" fill-opacity="0.13" stroke="None">
<path d="
M 53.00 52.00 
C 54.46 51.17 58.35 50.08 60.00 51.00
C 58.25 49.25 54.19 49.38 53.00 52.00 Z"/>
</g>
<g fill="#cbd5e1f7" fill-opacity="0.05" stroke="None">
<path d="
M 94.00 62.00 
C 94.31 58.78 96.45 53.32 94.00 50.00
C 94.00 54.00 94.00 58.00 94.00 62.00 Z"/>
</g>
<g fill="#cbd5e1f7" fill-opacity="0.22" stroke="None">
<path d="
M 46.00 68.00 
C 42.87 63.13 48.31 54.36 52.00 52.00
C 48.19 49.57 42.12 64.35 46.00 68.00 Z"/>
</g>
<g fill="#000000" fill-opacity="0.00" stroke="None">
<path d="
M 53.00 52.00 
C 53.00 52.00 52.35 51.77 52.00 52.00
C 48.31 54.36 42.87 63.13 46.00 68.00
C 47.25 69.17 49.02 67.71 50.00 67.00
C 51.04 66.04 53.88 62.37 55.00 61.00
C 56.13 59.38 61.24 52.24 60.00 51.00
C 58.35 50.08 54.46 51.17 53.00 52.00 Z"/>
</g>
<g fill="#cbd5e1f7" fill-opacity="0.21" stroke="None">
<path d="
M 252.00 62.00 
C 250.00 58.82 248.82 54.58 248.00 51.00
C 248.30 53.91 248.20 59.63 252.00 62.00 Z"/>
</g>
<g fill="#cbd5e1f7" fill-opacity="0.23" stroke="None">
<path d="
M 272.00 60.00 
C 272.78 57.49 273.78 54.61 274.00 52.00
C 273.64 53.94 272.26 58.33 272.00 60.00 Z"/>
</g>
<g fill="#cbd5e1f7" fill-opacity="0.28" stroke="None">
<path d="
M 60.00 59.00 
C 62.90 58.18 63.17 54.11 66.00 54.00
C 63.91 51.88 59.83 58.70 60.00 59.00 Z"/>
</g>
<g fill="#cbd5e1f7" fill-opacity="0.20" stroke="None">
<path d="
M 192.00 66.00 
C 194.05 63.23 192.90 55.22 190.00 53.00
C 190.71 57.33 192.49 61.43 192.00 66.00 Z"/>
</g>
<g fill="#000000" fill-opacity="0.00" stroke="None">
<path d="
M 60.00 59.00 
C 63.02 64.23 70.07 58.14 66.00 54.00
C 63.17 54.11 62.90 58.18 60.00 59.00 Z"/>
</g>
<g fill="#cbd5e1f7" fill-opacity="0.18" stroke="None">
<path d="
M 130.00 61.00 
C 131.26 59.09 130.16 55.55 128.00 54.00
C 128.74 56.33 129.55 58.61 130.00 61.00 Z"/>
</g>
<g fill="#cbd5e1f7" fill-opacity="0.38" stroke="None">
<path d="
M 206.00 63.00 
C 207.52 61.83 207.31 59.39 209.00 58.00
C 209.70 58.30 210.73 59.44 211.00 60.00
C 210.59 57.90 209.97 55.91 209.00 54.00
C 206.69 56.09 206.46 59.98 206.00 63.00 Z"/>
</g>
<g fill="#cbd5e1f7" fill-opacity="0.17" stroke="None">
<path d="
M 39.00 76.00 
C 39.66 73.59 35.73 68.66 35.93 66.08 C 36.13 63.49 35.19 58.83 36.00 57.00
C 32.68 62.86 34.88 71.39 39.00 76.00 Z"/>
</g>
<g fill="#cbd5e1f7" fill-opacity="0.22" stroke="None">
<path d="
M 252.00 63.00 
C 257.25 73.74 264.98 64.29 264.00 57.00
C 263.81 66.98 259.12 67.98 252.00 63.00 Z"/>
</g>
<g fill="#cbd5e1f7" fill-opacity="0.21" stroke="None">
<path d="
M 300.00 69.00 
C 302.17 66.17 299.15 59.51 297.00 57.00
C 297.69 61.22 299.90 64.59 300.00 69.00 Z"/>
</g>
<g fill="#cbd5e1f7" fill-opacity="0.31" stroke="None">
<path d="
M 309.00 64.00 
C 308.02 61.54 307.15 59.28 306.00 57.00
C 306.89 59.42 307.88 61.90 309.00 64.00 Z"/>
</g>
<g fill="#000000" fill-opacity="0.00" stroke="None">
<path d="
M 78.00 60.00 
C 76.18 62.50 76.49 64.88 74.00 67.00
C 72.75 68.07 71.82 68.79 70.00 69.00
C 65.07 69.56 63.92 67.09 61.00 64.00
C 60.44 62.98 60.01 61.55 59.00 61.00
C 58.18 62.34 57.05 63.77 56.00 65.00
C 54.73 66.49 51.91 68.55 51.00 70.00
C 50.67 70.70 50.24 72.20 50.00 73.00
C 50.24 79.76 64.38 79.29 68.00 78.00
C 68.00 78.00 68.68 78.24 69.00 78.00
C 69.85 77.36 70.76 76.30 72.00 76.00
C 72.00 76.00 72.60 76.20 73.00 76.00
C 75.12 74.01 76.35 71.06 78.00 69.00
C 78.00 69.00 77.84 68.44 78.00 68.00
C 78.74 65.91 79.75 62.34 79.00 60.00
C 78.20 59.05 78.89 59.35 78.00 60.00 Z"/>
</g>
<g fill="#cbd5e1f7" fill-opacity="0.68" stroke="None">
<path d="
M 200.00 65.00 
C 200.00 63.03 199.82 60.96 200.00 59.00
C 199.58 61.19 199.79 62.87 200.00 65.00 Z"/>
</g>
<g fill="#cbd5e1f7" fill-opacity="0.27" stroke="None">
<path d="
M 74.00 67.00 
C 76.49 64.88 76.18 62.50 78.00 60.00
C 75.48 61.85 76.03 64.73 74.00 67.00 Z"/>
</g>
<g fill="#cbd5e1f7" fill-opacity="0.18" stroke="None">
<path d="
M 78.00 68.00 
C 80.27 66.27 80.81 62.14 79.00 60.00
C 79.75 62.34 78.74 65.91 78.00 68.00 Z"/>
</g>
<g fill="#cbd5e1f7" fill-opacity="0.35" stroke="None">
<path d="
M 154.00 71.00 
C 158.35 68.05 160.27 65.06 162.00 60.00
C 160.27 63.66 157.02 68.18 154.00 71.00 Z"/>
</g>
<g fill="#cbd5e1f7" fill-opacity="0.22" stroke="None">
<path d="
M 50.00 67.00 
C 51.68 65.77 53.67 62.90 55.00 61.00
C 53.88 62.37 51.04 66.04 50.00 67.00 Z"/>
</g>
<g fill="#cbd5e1f7" fill-opacity="0.45" stroke="None">
<path d="
M 217.00 66.00 
C 215.21 65.49 212.77 62.24 211.00 61.00
C 212.18 64.02 213.64 65.41 217.00 66.00 Z"/>
</g>
<g fill="#cbd5e1f7" fill-opacity="0.22" stroke="None">
<path d="
M 224.00 66.00 
C 226.06 65.39 228.08 62.76 227.00 61.00
C 226.61 62.08 225.14 65.54 224.00 66.00 Z"/>
</g>
<g fill="#cbd5e1f7" fill-opacity="0.11" stroke="None">
<path d="
M 149.00 74.00 
C 139.10 74.84 136.07 65.84 130.00 62.00
C 132.92 69.43 140.50 75.57 149.00 74.00 Z"/>
</g>
<g fill="#cbd5e1f7" fill-opacity="0.36" stroke="None">
<path d="
M 151.00 67.00 
C 154.21 66.69 153.54 64.21 154.00 62.00
C 153.64 63.23 152.12 65.80 151.00 67.00 Z"/>
</g>
<g fill="#cbd5e1f7" fill-opacity="0.25" stroke="None">
<path d="
M 252.00 73.00 
C 248.14 71.45 243.08 66.78 241.00 63.00
C 243.20 68.47 246.50 71.51 252.00 73.00 Z"/>
</g>
<g fill="#cbd5e1f7" fill-opacity="0.33" stroke="None">
<path d="
M 260.00 73.00 
C 264.78 71.51 268.82 67.66 271.00 63.00
C 268.59 66.45 263.67 71.40 260.00 73.00 Z"/>
</g>
<g fill="#cbd5e1f7" fill-opacity="0.37" stroke="None">
<path d="
M 288.00 73.00 
C 289.60 73.43 290.46 71.63 292.00 72.00
C 288.72 70.33 288.52 66.39 288.00 63.00
C 288.05 64.35 289.04 71.59 288.00 73.00 Z"/>
</g>
<g fill="#cbd5e1f7" fill-opacity="0.28" stroke="None">
<path d="
M 70.00 69.00 
C 67.70 69.07 63.26 65.82 61.00 64.00
C 63.92 67.09 65.07 69.56 70.00 69.00 Z"/>
</g>
<g fill="#cbd5e1f7" fill-opacity="0.23" stroke="None">
<path d="
M 232.00 69.00 
C 233.36 67.60 234.55 66.03 235.00 64.00
C 233.64 65.39 233.09 67.63 232.00 69.00 Z"/>
</g>
<g fill="#cbd5e1f7" fill-opacity="0.20" stroke="None">
<path d="
M 51.00 70.00 
C 51.91 68.55 54.73 66.49 56.00 65.00
C 54.40 66.60 52.07 67.74 51.00 70.00 Z"/>
</g>
<g fill="#cbd5e1f7" fill-opacity="0.27" stroke="None">
<path d="
M 200.00 70.00 
C 198.65 72.05 196.60 72.34 194.00 72.00
C 195.52 70.23 193.19 68.21 192.00 67.00
C 192.02 71.59 195.33 74.27 200.00 73.00
C 200.16 72.03 199.80 70.96 200.00 70.00 Z"/>
</g>
<g fill="#cbd5e1f7" fill-opacity="0.20" stroke="None">
<path d="
M 217.00 74.00 
C 215.76 73.67 206.84 69.20 206.00 68.00
C 207.50 71.06 213.82 73.53 217.00 74.00 Z"/>
</g>
<g fill="#cbd5e1f7" fill-opacity="0.29" stroke="None">
<path d="
M 300.00 70.00 
C 298.97 70.13 298.41 71.17 298.00 72.00
C 302.93 73.26 309.12 73.87 314.00 72.00
C 313.36 70.44 311.80 69.52 311.00 68.00
C 310.00 68.79 310.33 70.73 311.00 72.00
C 307.24 71.13 301.23 73.38 300.00 70.00 Z"/>
</g>
<g fill="#cbd5e1f7" fill-opacity="0.24" stroke="None">
<path d="
M 73.00 76.00 
C 75.57 74.74 77.74 71.80 78.00 69.00
C 76.35 71.06 75.12 74.01 73.00 76.00 Z"/>
</g>
<g fill="#cbd5e1f7" fill-opacity="0.43" stroke="None">
<path d="
M 92.00 72.00 
C 91.95 71.34 93.84 70.26 94.00 69.00
C 93.61 70.22 90.28 70.35 92.00 72.00 Z"/>
</g>
<g fill="#cbd5e1f7" fill-opacity="0.47" stroke="None">
<path d="
M 280.00 73.00 
C 279.70 72.64 278.04 70.19 278.00 70.00
C 277.44 71.85 275.27 73.13 280.00 73.00 Z"/>
</g>
<g fill="#cbd5e1f7" fill-opacity="0.16" stroke="None">
<path d="
M 221.00 74.00 
C 223.26 73.79 225.97 72.98 228.00 72.00
C 227.48 72.19 222.27 73.71 221.00 74.00 Z"/>
</g>
<g fill="#cbd5e1f7" fill-opacity="0.17" stroke="None">
<path d="
M 81.00 79.00 
C 83.89 77.01 85.33 74.73 87.00 72.00
C 85.35 74.17 83.05 76.85 81.00 79.00 Z"/>
</g>
<g fill="#cbd5e1f7" fill-opacity="0.03" stroke="None">
<path d="
M 281.00 73.00 
C 283.00 73.00 285.00 73.00 287.00 73.00
C 285.22 71.61 282.81 71.59 281.00 73.00 Z"/>
</g>
<g fill="#cbd5e1f7" fill-opacity="0.43" stroke="None">
<path d="
M 68.00 78.00 
C 64.38 79.29 50.24 79.76 50.00 73.00
C 48.27 78.81 64.28 82.86 68.00 78.00 Z"/>
</g>
<g fill="#cbd5e1f7" fill-opacity="0.46" stroke="None">
<path d="
M 69.00 78.00 
C 70.55 79.32 71.45 77.53 72.00 76.00
C 70.76 76.30 69.85 77.36 69.00 78.00 Z"/>
</g>
<g fill="#cbd5e1f7" fill-opacity="0.25" stroke="None">
<path d="
M 13.00 80.00 
C 15.66 80.31 18.69 77.79 22.00 79.00
C 19.45 77.33 15.20 77.51 13.00 80.00 Z"/>
</g>
<g fill="#cbd5e1f7" fill-opacity="0.27" stroke="None">
<path d="
M 22.00 83.00 
C 27.26 85.92 32.47 82.53 36.00 79.00
C 31.99 81.87 27.15 83.57 22.00 83.00 Z"/>
</g>
<g fill="#cbd5e1f7" fill-opacity="0.23" stroke="None">
<path d="
M 28.00 89.00 
C 32.22 87.34 37.88 80.49 42.00 80.00
C 39.99 79.87 29.73 86.23 28.00 89.00 Z"/>
</g>
<g fill="#cbd5e1f7" fill-opacity="0.25" stroke="None">
<path d="
M 72.00 83.00 
C 74.87 82.21 76.54 81.27 79.00 80.00
C 76.52 80.73 74.15 82.17 72.00 83.00 Z"/>
</g>
<g fill="#cbd5e1f7" fill-opacity="0.22" stroke="None">
<path d="
M 27.00 89.00 
C 22.91 88.77 15.39 89.90 12.00 86.00
C 12.97 83.95 12.25 82.31 12.00 81.00
C 6.64 89.11 22.48 92.34 27.00 89.00 Z"/>
</g>
<g fill="#cbd5e1f7" fill-opacity="0.39" stroke="None">
<path d="
M 50.00 83.00 
C 52.53 83.71 55.69 83.68 58.00 85.00
C 57.02 81.34 51.99 83.33 50.00 83.00 Z"/>
</g>
<g fill="#cbd5e1f7" fill-opacity="0.33" stroke="None">
<path d="
M 59.00 85.00 
C 61.86 85.00 64.78 84.32 67.00 84.00
C 65.68 83.92 62.42 83.51 59.00 85.00 Z"/>
</g>
</svg>