<?xml version="1.0" standalone="no"?>
<!DOCTYPE svg PUBLIC "-//W3C//DTD SVG 20010904//EN"
 "http://www.w3.org/TR/2001/REC-SVG-20010904/DTD/svg10.dtd">
<svg version="1.0" xmlns="http://www.w3.org/2000/svg"
 width="300.000000pt" height="70.000000pt" viewBox="0 0 300.000000 70.000000"
 preserveAspectRatio="xMidYMid meet">
<metadata>
Created by potrace 1.10, written by Peter Selinger 2001-2011
</metadata>
<g transform="translate(0.000000,70.000000) scale(0.100000,-0.100000)"
fill="#cbd5e1f7" stroke="none">
<path d="M195 550 c-60 -7 -106 -30 -135 -67 -18 -23 -21 -38 -18 -80 3 -36 1
-53 -7 -53 -15 0 -4 -97 14 -125 38 -59 146 -92 266 -81 39 4 130 6 203 6
l134 -1 -4 33 -3 32 55 1 c30 1 65 7 78 14 21 11 26 10 46 -12 13 -14 43 -36
67 -48 38 -20 59 -23 154 -23 86 0 117 3 143 17 28 15 32 15 32 2 0 -13 18
-15 113 -15 l113 0 -4 40 c-2 22 -1 40 2 40 3 0 22 -18 42 -40 l37 -41 146 -1
c319 -3 326 -3 365 20 l37 22 42 -22 c36 -19 58 -22 152 -22 86 0 117 3 143
17 28 15 32 15 32 2 0 -13 19 -15 120 -15 l120 0 1 33 1 32 14 -32 14 -33 115
0 c117 0 132 1 128 10 -1 3 -14 38 -28 78 -23 68 -24 76 -10 102 35 67 11 142
-59 182 -38 21 -53 23 -228 26 -166 3 -188 2 -188 -12 0 -20 0 -20 -38 0 -23
11 -61 15 -137 15 -94 0 -110 -3 -153 -26 l-48 -26 -44 25 c-50 28 -62 28
-338 27 l-172 -1 6 -40 c4 -22 2 -40 -3 -40 -5 0 -27 18 -48 40 l-39 40 -103
0 c-85 0 -103 -3 -103 -15 0 -19 0 -19 -38 1 -23 11 -61 15 -137 15 -89 0
-111 -3 -152 -23 l-46 -24 -45 23 c-42 21 -58 23 -224 23 -116 0 -178 -4 -178
-10 0 -7 -6 -7 -17 -2 -26 13 -129 20 -188 12z m149 -51 c43 -12 96 -58 96
-83 0 -23 -125 -23 -134 -1 -6 17 -71 21 -81 4 -11 -17 -1 -21 85 -35 91 -14
127 -32 136 -69 9 -36 -14 -83 -48 -101 -47 -24 -155 -29 -220 -10 -58 17 -98
52 -98 86 0 16 7 17 62 12 35 -3 69 -11 76 -19 16 -16 88 -18 97 -2 11 17 -1
22 -86 35 -45 7 -92 20 -106 29 -47 31 -50 88 -7 127 40 35 152 48 228 27z
m838 -18 c53 -25 78 -67 78 -131 0 -107 -66 -155 -215 -155 -113 0 -174 25
-202 84 l-18 38 -28 -21 c-23 -17 -47 -22 -116 -24 l-87 -4 4 -34 4 -34 -73 0
-74 0 -3 150 -2 150 145 0 c157 0 199 -9 228 -51 l16 -22 27 26 c59 59 222 74
316 28z m803 8 c16 -8 39 -28 50 -45 l20 -30 35 37 c28 29 48 39 95 49 117 24
248 -8 279 -69 20 -38 21 -123 1 -160 -46 -90 -298 -108 -374 -27 l-24 25 -26
-28 c-69 -74 -283 -66 -332 12 l-20 32 3 -42 4 -43 -76 0 -75 0 -78 82 -78 83
3 -82 3 -83 -65 0 -65 0 0 150 0 150 73 0 73 0 80 -82 80 -83 -6 83 -6 82 68
0 68 0 -3 -100 -3 -100 64 0 c46 0 68 -4 77 -15 18 -21 95 -17 95 5 0 8 -7 16
-15 17 -130 18 -165 27 -187 49 -47 47 -17 122 57 143 47 14 168 8 205 -10z
m835 -5 c22 -9 45 -25 50 -35 24 -44 1 -119 -37 -119 -19 0 -16 -18 5 -24 11
-4 24 -26 33 -56 l16 -51 -76 3 c-73 3 -76 4 -79 28 -6 38 -21 50 -63 50 l-39
0 6 -40 7 -40 -77 0 -76 0 0 150 0 150 145 0 c110 0 154 -4 185 -16z"/>
<path d="M599 414 c-1 -2 -1 -16 -2 -31 -1 -26 2 -28 45 -31 37 -2 49 1 57 16
15 28 -2 44 -53 47 -25 2 -46 2 -47 -1z"/>
<path d="M1020 413 c-78 -30 -59 -127 25 -127 90 0 103 109 15 128 -14 2 -32
2 -40 -1z m55 -62 c7 -12 -31 -25 -45 -16 -5 3 -10 10 -10 16 0 12 47 12 55 0z"/>
<path d="M1834 419 c-10 -17 12 -26 82 -34 34 -3 79 -15 98 -25 l36 -18 0 29
c0 29 -1 29 -59 29 -40 0 -63 5 -71 15 -14 17 -76 20 -86 4z"/>
<path d="M2240 413 c-68 -25 -66 -102 4 -127 31 -11 85 12 92 40 10 41 -3 71
-37 83 -35 12 -37 12 -59 4z m50 -68 c0 -15 -43 -12 -48 3 -3 10 4 13 22 10
15 -2 26 -7 26 -13z"/>
<path d="M2636 412 c-3 -3 -6 -18 -6 -34 0 -26 2 -28 43 -28 24 0 48 5 55 12
13 13 16 47 5 49 -30 5 -93 6 -97 1z"/>
</g>
</svg>
