<svg xmlns="http://www.w3.org/2000/svg" xmlns:v="https://svgstorm.com"
viewBox = "0 0 340 117"
width="340"
height="117">
<g fill="None" fill-opacity="0.0" stroke="#ccc9" stroke-opacity="0.00" stroke-width="0.3"><path d="
M 0.00 117.00 
L 340.00 117.00
L 340.00 0.00
L 0.00 0.00
L 0.00 117.00
M 80.00 27.00 
C 80.25 28.02 80.41 33.03 81.00 34.00
C 85.82 39.93 95.62 33.70 101.67 35.33 C 107.72 36.96 114.24 41.35 115.00 48.00
C 123.67 37.74 139.33 30.08 151.00 39.00
C 152.99 40.50 154.38 42.28 156.00 44.00
C 156.88 44.94 156.59 46.63 158.00 47.00
C 158.95 38.66 171.18 30.03 177.00 39.00
C 187.65 29.72 205.01 38.23 204.00 52.00
C 208.08 34.99 237.55 22.94 241.00 46.00
C 246.46 39.66 252.12 37.96 259.67 35.67 C 267.23 33.39 274.83 39.22 280.00 41.00
C 282.44 39.30 283.10 33.80 287.00 32.00
C 296.84 27.45 309.60 33.05 315.00 41.00
C 316.74 43.56 318.17 45.49 318.00 49.00
C 318.05 51.14 315.86 53.70 316.00 56.00
C 329.86 51.23 331.44 65.87 325.22 74.22 C 319.01 82.58 315.52 90.51 304.75 92.20 C 293.99 93.89 286.56 87.62 285.00 78.00
C 276.01 81.44 270.61 86.42 262.25 91.25 C 253.90 96.09 241.98 92.37 236.00 86.00
C 228.44 96.59 212.88 91.79 203.92 89.08 C 194.96 86.37 182.01 101.18 175.00 86.00
C 168.49 96.13 153.32 94.40 149.00 83.00
C 142.88 89.97 132.89 93.90 124.00 93.00 C 115.11 92.10 108.81 76.46 102.25 87.25 C 95.69 98.03 81.63 87.14 78.36 95.70 C 75.08 104.25 70.36 115.48 58.00 110.00
C 56.16 109.17 53.82 106.78 53.00 105.00
C 51.71 102.21 54.00 94.11 47.33 96.33 C 40.66 98.55 34.95 96.32 29.77 94.23 C 24.60 92.13 20.69 88.31 18.43 84.23 C 16.17 80.15 15.38 74.52 15.07 69.92 C 14.76 65.33 16.45 58.21 19.00 54.00
C 20.20 52.02 21.31 50.41 23.00 49.00
C 26.57 46.01 34.73 45.73 37.00 43.00
C 35.72 41.61 36.13 39.73 36.00 38.00
C 35.60 32.57 36.22 27.54 39.00 23.00
C 40.44 20.64 42.77 18.48 45.00 17.00
C 56.83 9.13 76.38 12.37 80.00 27.00 Z"/>
</g>
<g fill="None" fill-opacity="0.0" stroke="#ccc9" stroke-opacity="0.93" stroke-width="0.3"><path d="
M 45.00 17.00 
C 43.49 18.18 40.07 21.52 39.00 23.00
C 36.22 27.54 35.60 32.57 36.00 38.00
C 36.23 39.60 38.24 41.51 37.00 43.00
C 34.73 45.73 26.57 46.01 23.00 49.00
C 21.84 50.20 20.01 52.69 19.00 54.00
C 16.45 58.21 14.76 65.33 15.07 69.92 C 15.38 74.52 16.17 80.15 18.43 84.23 C 20.69 88.31 24.60 92.13 29.77 94.23 C 34.95 96.32 40.66 98.55 47.33 96.33 C 54.00 94.11 51.71 102.21 53.00 105.00
C 53.39 105.67 57.40 109.68 58.00 110.00
C 70.36 115.48 75.08 104.25 78.36 95.70 C 81.63 87.14 95.69 98.03 102.25 87.25 C 108.81 76.46 115.11 92.10 124.00 93.00 C 132.89 93.90 142.88 89.97 149.00 83.00
C 153.32 94.40 168.49 96.13 175.00 86.00
C 182.01 101.18 194.96 86.37 203.92 89.08 C 212.88 91.79 228.44 96.59 236.00 86.00
C 241.98 92.37 253.90 96.09 262.25 91.25 C 270.61 86.42 276.01 81.44 285.00 78.00
C 286.56 87.62 293.99 93.89 304.75 92.20 C 315.52 90.51 319.01 82.58 325.22 74.22 C 331.44 65.87 329.86 51.23 316.00 56.00
C 315.86 53.70 318.05 51.14 318.00 49.00
C 317.97 47.51 315.86 42.68 315.00 41.00
C 309.60 33.05 296.84 27.45 287.00 32.00
C 283.84 33.74 282.99 39.57 280.00 41.00
C 274.83 39.22 267.23 33.39 259.67 35.67 C 252.12 37.96 246.46 39.66 241.00 46.00
C 237.55 22.94 208.08 34.99 204.00 52.00
C 205.01 38.23 187.65 29.72 177.00 39.00
C 171.18 30.03 158.95 38.66 158.00 47.00
C 156.59 46.63 156.88 44.94 156.00 44.00
C 154.28 42.50 152.61 40.42 151.00 39.00
C 139.33 30.08 123.67 37.74 115.00 48.00
C 114.24 41.35 107.72 36.96 101.67 35.33 C 95.62 33.70 85.82 39.93 81.00 34.00
C 79.39 32.02 80.38 29.56 80.00 27.00
C 76.38 12.37 56.83 9.13 45.00 17.00
M 74.00 26.00 
C 74.16 26.44 74.00 27.00 74.00 27.00
C 76.06 29.78 75.47 37.42 73.22 40.22 C 70.98 43.03 67.31 47.67 63.33 45.67 C 59.35 43.66 65.89 35.85 61.00 34.00
C 60.23 33.87 58.77 33.85 58.00 34.00
C 52.29 36.47 55.80 46.92 59.31 50.69 C 62.81 54.47 66.41 62.17 66.00 68.00
C 65.97 68.50 66.16 69.55 66.00 70.00
C 66.59 73.45 70.35 60.93 72.00 59.00
C 72.02 58.50 72.00 58.00 72.00 58.00
C 71.94 55.94 72.49 54.23 74.00 53.00
C 74.07 52.51 74.00 52.00 74.00 52.00
C 75.13 45.09 81.61 35.71 88.00 44.00
C 90.92 43.77 92.68 40.25 96.00 41.00
C 96.50 40.98 97.50 41.03 98.00 41.00
C 103.94 40.58 109.87 44.62 110.00 51.00
C 110.01 51.50 110.00 52.00 110.00 52.00
C 111.53 54.07 111.50 57.97 110.00 60.00
C 110.00 60.50 110.00 61.00 110.00 61.00
C 109.86 62.32 110.11 63.68 110.00 65.00
C 119.41 58.84 121.24 40.80 136.00 41.00
C 136.50 41.02 137.53 40.89 138.00 41.00
C 140.13 40.31 142.68 40.99 145.00 42.00
C 145.50 41.97 146.00 42.00 146.00 42.00
C 154.88 43.70 153.70 59.32 152.00 65.00
C 152.05 65.35 152.70 65.79 153.00 66.00
C 156.91 65.92 158.74 59.40 160.00 57.00
C 160.01 56.50 160.00 56.00 160.00 56.00
C 161.30 48.06 170.65 32.87 175.00 47.00
C 180.00 42.27 189.37 37.01 195.75 43.25 C 202.12 49.50 190.94 59.73 197.00 66.00
C 197.73 66.12 199.29 66.18 200.00 66.00
C 207.85 62.52 209.83 47.26 216.77 42.77 C 223.71 38.28 223.87 36.54 232.07 39.93 C 240.28 43.31 229.64 48.59 228.00 51.00
C 227.85 51.45 227.92 52.51 228.00 53.00
C 229.29 55.64 231.26 57.86 232.00 61.00
C 232.11 61.47 232.00 62.00 232.00 62.00
C 232.65 63.11 234.40 64.25 234.00 66.00
C 242.72 60.21 243.98 45.01 256.00 42.00
C 256.50 41.95 257.00 42.00 257.00 42.00
C 263.52 39.15 269.00 40.06 274.75 45.25 C 280.50 50.44 274.37 60.74 277.00 66.00
C 277.34 66.23 278.55 66.15 279.00 66.00
C 282.03 64.22 283.99 58.50 286.00 56.00
C 286.11 55.53 286.00 55.00 286.00 55.00
C 288.19 50.09 283.56 46.97 285.78 41.78 C 288.00 36.59 292.55 35.96 297.00 37.00
C 298.56 37.36 300.39 37.60 302.00 38.00
C 306.31 39.08 309.35 41.10 311.75 45.25 C 314.16 49.39 308.44 55.66 308.00 59.00
C 307.93 63.59 309.47 67.26 315.00 66.00
C 314.52 66.16 326.44 55.14 323.97 64.03 C 321.50 72.92 316.77 78.47 309.92 84.92 C 303.07 91.37 284.05 83.73 292.00 73.00
C 292.00 72.50 292.00 72.00 292.00 72.00
C 292.14 68.32 293.84 64.70 296.00 62.00
C 296.08 61.51 296.00 61.00 296.00 61.00
C 297.28 58.05 297.54 53.11 293.00 53.00
C 292.08 56.83 290.58 61.10 288.00 64.00
C 287.89 64.47 288.00 65.00 288.00 65.00
C 285.57 71.18 280.15 77.48 273.00 77.00
C 272.50 76.97 272.00 77.00 272.00 77.00
C 269.78 79.32 266.80 82.13 264.00 84.00
C 262.03 85.32 261.21 85.38 259.00 86.00
C 255.87 86.88 250.01 88.23 247.00 86.00
C 246.50 86.00 246.00 86.00 246.00 86.00
C 243.59 85.53 241.11 83.26 240.00 81.00
C 239.80 80.60 240.00 80.00 240.00 80.00
C 239.57 79.06 238.13 77.44 237.00 77.00
C 233.95 81.08 230.06 85.14 225.00 86.00
C 224.53 86.11 224.00 86.00 224.00 86.00
C 221.58 87.06 217.38 88.83 215.00 87.00
C 214.50 87.01 214.00 87.00 214.00 87.00
C 208.60 87.41 204.22 83.57 202.00 79.00
C 197.60 81.69 194.99 88.04 189.00 87.00
C 186.52 87.13 184.14 87.23 182.00 86.00
C 178.04 83.72 177.65 74.18 180.00 71.00
C 180.00 70.50 180.00 70.00 180.00 70.00
C 180.26 68.10 181.00 66.39 182.00 65.00
C 181.99 64.50 182.00 64.00 182.00 64.00
C 182.00 62.00 182.00 60.00 182.00 58.00
C 181.28 57.66 178.80 57.88 178.00 58.00
C 168.00 60.50 173.36 74.51 170.07 82.07 C 166.79 89.64 151.38 87.60 154.00 76.00
C 153.30 75.91 147.85 76.69 147.00 77.00
C 143.05 78.74 140.61 84.19 136.00 86.00
C 135.57 86.17 135.00 86.00 135.00 86.00
C 131.14 88.86 125.51 86.39 120.93 86.07 C 116.35 85.75 116.03 77.85 114.00 76.00
C 112.37 75.05 112.14 75.75 110.00 76.00
C 103.37 77.51 99.92 82.41 93.92 85.92 C 87.93 89.44 76.30 86.90 78.00 78.00
C 76.02 78.47 78.11 81.60 76.00 82.00
C 76.07 82.49 76.00 83.00 76.00 83.00
C 75.93 85.98 75.26 88.69 74.00 91.00
C 74.03 91.50 74.00 92.00 74.00 92.00
C 73.84 96.12 72.14 100.85 68.75 103.75 C 65.36 106.65 58.00 105.57 58.00 100.00
C 58.00 99.50 58.02 98.50 58.00 98.00
C 57.79 92.39 60.82 88.21 62.00 83.00
C 58.96 85.89 55.38 88.96 51.00 90.00
C 50.50 90.04 49.50 90.00 49.00 90.00
C 45.98 91.29 38.87 92.13 36.00 90.00
C 35.50 90.00 35.00 90.00 35.00 90.00
C 22.90 89.76 14.54 65.26 24.00 58.00
C 24.11 57.53 24.00 57.00 24.00 57.00
C 24.94 54.56 26.81 53.08 29.00 52.00
C 30.39 51.31 35.37 49.64 37.00 50.00
C 44.69 51.71 32.23 62.10 40.10 65.90 C 47.98 69.70 52.64 62.20 49.22 55.78 C 45.80 49.36 42.14 44.44 42.00 37.00
C 41.97 35.67 41.95 34.32 42.00 33.00
C 42.20 27.67 45.96 20.56 52.00 20.00
C 52.50 19.95 53.00 20.00 53.00 20.00
C 58.65 15.82 71.55 19.20 74.00 26.00 Z"/>
</g>
<g fill="None" fill-opacity="0.0" stroke="#ccc9" stroke-opacity="0.09" stroke-width="0.3"><path d="
M 39.00 23.00 
C 40.07 21.52 43.49 18.18 45.00 17.00
C 42.77 18.48 40.44 20.64 39.00 23.00 Z"/>
</g>
<g fill="None" fill-opacity="0.0" stroke="#ccc9" stroke-opacity="1.00" stroke-width="0.3"><path d="
M 53.00 20.00 
C 62.47 20.00 67.45 19.73 74.00 26.00
C 71.55 19.20 58.65 15.82 53.00 20.00 Z"/>
</g>
<g fill="None" fill-opacity="0.0" stroke="#ccc9" stroke-opacity="1.00" stroke-width="0.3"><path d="
M 42.00 33.00 
C 43.13 27.14 47.69 23.46 52.00 20.00
C 45.96 20.56 42.20 27.67 42.00 33.00 Z"/>
</g>
<g fill="None" fill-opacity="0.0" stroke="#cbd5e1f7" stroke-opacity="1.00" stroke-width="0.3"><path d="
M 42.00 33.00 
C 41.95 34.32 41.97 35.67 42.00 37.00
C 42.97 43.95 46.67 48.30 49.92 55.08 C 53.18 61.85 50.30 69.54 40.78 67.22 C 31.25 64.90 41.88 51.75 37.00 50.00
C 35.37 49.64 30.39 51.31 29.00 52.00
C 27.31 53.03 25.76 55.77 24.00 57.00
C 24.00 57.00 24.11 57.53 24.00 58.00
C 20.71 72.01 21.58 82.97 35.00 90.00
C 35.00 90.00 35.50 90.00 36.00 90.00
C 40.33 90.00 44.67 90.00 49.00 90.00
C 49.50 90.00 50.50 90.04 51.00 90.00
C 59.45 84.11 62.63 79.67 66.00 70.00
C 66.16 69.55 65.97 68.50 66.00 68.00
C 64.50 63.02 62.14 54.70 58.25 50.75 C 54.36 46.81 51.51 35.30 58.00 34.00
C 58.77 33.85 60.23 33.87 61.00 34.00
C 66.19 34.84 62.82 41.59 63.00 45.00
C 72.34 45.58 75.33 34.60 74.00 27.00
C 74.00 27.00 74.16 26.44 74.00 26.00
C 67.45 19.73 62.47 20.00 53.00 20.00
C 53.00 20.00 52.50 19.95 52.00 20.00
C 47.69 23.46 43.13 27.14 42.00 33.00 Z"/>
</g>
<g fill="None" fill-opacity="0.0" stroke="#ccc9" stroke-opacity="1.00" stroke-width="0.3"><path d="
M 61.00 34.00 
C 65.89 35.85 59.35 43.66 63.33 45.67 C 67.31 47.67 70.98 43.03 73.22 40.22 C 75.47 37.42 76.06 29.78 74.00 27.00
C 75.33 34.60 72.34 45.58 63.00 45.00
C 62.82 41.59 66.19 34.84 61.00 34.00 Z"/>
</g>
<g fill="None" fill-opacity="0.0" stroke="#ccc9" stroke-opacity="0.32" stroke-width="0.3"><path d="
M 81.00 34.00 
C 80.41 33.03 80.25 28.02 80.00 27.00
C 80.38 29.56 79.39 32.02 81.00 34.00 Z"/>
</g>
<g fill="None" fill-opacity="0.0" stroke="#ccc9" stroke-opacity="0.33" stroke-width="0.3"><path d="
M 280.00 41.00 
C 282.99 39.57 283.84 33.74 287.00 32.00
C 283.10 33.80 282.44 39.30 280.00 41.00 Z"/>
</g>
<g fill="None" fill-opacity="0.0" stroke="#ccc9" stroke-opacity="1.00" stroke-width="0.3"><path d="
M 66.00 68.00 
C 66.41 62.17 62.81 54.47 59.31 50.69 C 55.80 46.92 52.29 36.47 58.00 34.00
C 51.51 35.30 54.36 46.81 58.25 50.75 C 62.14 54.70 64.50 63.02 66.00 68.00 Z"/>
</g>
<g fill="None" fill-opacity="0.0" stroke="#ccc9" stroke-opacity="1.00" stroke-width="0.3"><path d="
M 286.00 55.00 
C 291.21 52.25 284.37 47.54 286.00 43.00 C 287.63 38.46 292.14 36.56 297.00 37.00
C 292.55 35.96 288.00 36.59 285.78 41.78 C 283.56 46.97 288.19 50.09 286.00 55.00 Z"/>
</g>
<g fill="None" fill-opacity="0.0" stroke="#ccc9" stroke-opacity="1.00" stroke-width="0.3"><path d="
M 37.00 50.00 
C 41.88 51.75 31.25 64.90 40.78 67.22 C 50.30 69.54 53.18 61.85 49.92 55.08 C 46.67 48.30 42.97 43.95 42.00 37.00
C 42.14 44.44 45.80 49.36 49.22 55.78 C 52.64 62.20 47.98 69.70 40.10 65.90 C 32.23 62.10 44.69 51.71 37.00 50.00 Z"/>
</g>
<g fill="None" fill-opacity="0.0" stroke="#cbd5e1f7" stroke-opacity="1.00" stroke-width="0.3"><path d="
M 286.00 55.00 
C 286.00 55.00 286.11 55.53 286.00 56.00
C 285.22 59.34 282.74 64.71 279.00 66.00
C 278.55 66.15 277.34 66.23 277.00 66.00
C 272.82 63.14 279.26 52.83 274.69 47.31 C 270.13 41.78 264.75 42.00 257.00 42.00
C 257.00 42.00 256.50 41.95 256.00 42.00
C 248.22 50.13 240.67 58.64 234.00 67.00
C 233.29 65.32 231.99 63.92 232.00 62.00
C 232.00 62.00 232.11 61.47 232.00 61.00
C 230.25 58.82 228.51 55.92 228.00 53.00
C 227.92 52.51 227.85 51.45 228.00 51.00
C 228.86 48.38 239.00 43.74 231.25 40.75 C 223.49 37.77 223.98 40.22 217.23 44.23 C 210.48 48.25 208.33 63.88 200.00 66.00
C 199.29 66.18 197.73 66.12 197.00 66.00
C 188.00 64.54 200.94 49.94 195.22 44.78 C 189.50 39.62 179.84 43.12 174.00 48.00
C 170.91 33.99 161.83 50.26 160.00 56.00
C 160.00 56.00 160.01 56.50 160.00 57.00
C 159.94 59.87 156.38 68.34 153.00 66.00
C 152.70 65.79 152.05 65.35 152.00 65.00
C 150.49 54.54 152.05 50.66 146.00 42.00
C 146.00 42.00 145.50 41.97 145.00 42.00
C 142.35 42.18 140.43 41.56 138.00 41.00
C 137.53 40.89 136.50 41.02 136.00 41.00
C 122.66 45.65 119.14 59.71 109.00 66.00
C 109.39 64.43 108.06 61.78 110.00 61.00
C 110.00 61.00 110.00 60.50 110.00 60.00
C 110.00 57.33 110.00 54.67 110.00 52.00
C 110.00 52.00 110.01 51.50 110.00 51.00
C 106.80 44.88 104.41 42.93 98.00 41.00
C 97.50 41.03 96.50 40.98 96.00 41.00
C 93.05 41.98 90.29 45.04 87.00 46.00
C 82.75 36.08 75.41 46.51 74.00 52.00
C 74.00 52.00 74.07 52.51 74.00 53.00
C 73.74 54.90 73.00 56.61 72.00 58.00
C 72.00 58.00 72.02 58.50 72.00 59.00
C 71.55 70.97 61.85 86.94 58.00 98.00
C 58.02 98.50 58.00 99.50 58.00 100.00
C 59.71 104.03 65.26 105.46 68.74 102.74 C 72.23 100.02 70.79 94.45 74.00 92.00
C 74.00 92.00 74.03 91.50 74.00 91.00
C 73.80 88.02 74.29 85.11 76.00 83.00
C 76.00 83.00 76.07 82.49 76.00 82.00
C 75.70 79.98 75.57 76.68 78.00 76.00
C 77.52 84.93 86.02 87.71 93.22 85.22 C 100.42 82.73 101.70 74.66 110.00 76.00
C 112.14 75.75 112.37 75.05 114.00 76.00
C 117.23 77.89 116.19 82.86 120.25 84.75 C 124.30 86.64 130.37 86.00 135.00 86.00
C 135.00 86.00 135.57 86.17 136.00 86.00
C 137.23 84.03 144.55 77.89 147.00 77.00
C 147.85 76.69 153.30 75.91 154.00 76.00
C 157.55 76.43 154.64 86.67 163.00 86.00 C 171.37 85.33 169.60 77.59 170.00 72.00 C 170.40 66.41 172.14 58.90 178.00 58.00
C 178.80 57.88 181.28 57.66 182.00 58.00
C 184.09 59.00 182.91 62.83 182.00 64.00
C 182.00 64.00 181.99 64.50 182.00 65.00
C 182.06 67.06 181.51 68.77 180.00 70.00
C 180.00 70.00 180.00 70.50 180.00 71.00
C 180.00 74.88 178.67 83.37 182.00 86.00
C 184.14 87.23 186.52 87.13 189.00 87.00
C 194.36 86.09 198.09 79.92 203.00 78.00
C 204.62 83.03 209.82 85.66 214.00 87.00
C 214.00 87.00 214.50 87.01 215.00 87.00
C 218.19 86.93 220.71 85.78 224.00 86.00
C 224.00 86.00 224.53 86.11 225.00 86.00
C 229.20 82.63 234.60 79.09 239.00 76.00
C 238.63 77.54 240.43 78.40 240.00 80.00
C 240.00 80.00 239.80 80.60 240.00 81.00
C 241.81 82.93 244.25 84.17 246.00 86.00
C 246.00 86.00 246.50 86.00 247.00 86.00
C 250.85 86.00 255.20 86.58 259.00 86.00
C 261.21 85.38 262.03 85.32 264.00 84.00
C 266.86 81.75 268.12 77.76 272.00 77.00
C 272.00 77.00 272.50 76.97 273.00 77.00
C 275.93 75.72 278.89 75.01 281.75 72.75 C 284.60 70.48 285.14 66.79 288.00 65.00
C 288.00 65.00 287.89 64.47 288.00 64.00
C 288.98 59.81 291.15 55.93 293.00 52.00
C 297.71 52.09 299.91 58.21 296.00 61.00
C 296.00 61.00 296.08 61.51 296.00 62.00
C 295.46 65.33 294.11 69.54 292.00 72.00
C 292.00 72.00 292.00 72.50 292.00 73.00
C 292.00 85.04 301.24 89.77 310.69 83.69 C 320.15 77.62 318.90 70.32 323.00 62.00
C 319.30 60.77 317.66 64.60 315.00 66.00
C 309.47 67.26 307.93 63.59 308.00 59.00
C 308.12 50.51 314.03 42.04 302.00 38.00
C 300.39 37.60 298.56 37.36 297.00 37.00
C 292.14 36.56 287.63 38.46 286.00 43.00 C 284.37 47.54 291.21 52.25 286.00 55.00
M 93.00 55.00 
C 95.95 56.32 96.35 57.31 96.00 61.00
C 95.70 64.23 93.42 67.45 90.00 68.00
C 89.51 68.08 88.50 68.04 88.00 68.00
C 79.69 67.36 85.75 51.76 93.00 55.00
M 137.00 55.00 
C 137.50 55.02 138.00 55.00 138.00 55.00
C 141.32 55.87 141.60 59.96 140.00 62.00
C 139.93 62.49 140.00 63.00 140.00 63.00
C 139.50 65.55 137.64 67.62 135.00 68.00
C 134.17 68.12 132.82 68.13 132.00 68.00
C 124.30 66.75 131.82 50.97 137.00 55.00
M 218.00 55.00 
C 217.98 55.00 218.00 56.00 218.00 56.00
C 223.02 58.28 219.67 67.25 215.00 68.00
C 214.51 68.08 213.50 68.04 213.00 68.00
C 210.55 67.81 208.53 65.95 210.00 64.00
C 209.96 63.50 210.00 63.00 210.00 63.00
C 210.86 60.63 215.72 52.65 218.00 55.00
M 264.00 63.00 
C 263.81 63.42 264.00 64.00 264.00 64.00
C 263.05 65.93 261.16 67.88 259.00 68.00
C 254.37 68.25 253.27 63.94 254.00 60.00
C 256.09 48.71 271.03 57.36 264.00 63.00 Z"/>
</g>
<g fill="None" fill-opacity="0.0" stroke="#ccc9" stroke-opacity="0.32" stroke-width="0.3"><path d="
M 37.00 43.00 
C 38.24 41.51 36.23 39.60 36.00 38.00
C 36.13 39.73 35.72 41.61 37.00 43.00 Z"/>
</g>
<g fill="None" fill-opacity="0.0" stroke="#ccc9" stroke-opacity="1.00" stroke-width="0.3"><path d="
M 308.00 59.00 
C 308.44 55.66 314.16 49.39 311.75 45.25 C 309.35 41.10 306.31 39.08 302.00 38.00
C 314.03 42.04 308.12 50.51 308.00 59.00 Z"/>
</g>
<g fill="None" fill-opacity="0.0" stroke="#ccc9" stroke-opacity="0.20" stroke-width="0.3"><path d="
M 156.00 44.00 
C 154.38 42.28 152.99 40.50 151.00 39.00
C 152.61 40.42 154.28 42.50 156.00 44.00 Z"/>
</g>
<g fill="None" fill-opacity="0.0" stroke="#ccc9" stroke-opacity="1.00" stroke-width="0.3"><path d="
M 200.00 66.00 
C 208.33 63.88 210.48 48.25 217.23 44.23 C 223.98 40.22 223.49 37.77 231.25 40.75 C 239.00 43.74 228.86 48.38 228.00 51.00
C 229.64 48.59 240.28 43.31 232.07 39.93 C 223.87 36.54 223.71 38.28 216.77 42.77 C 209.83 47.26 207.85 62.52 200.00 66.00 Z"/>
</g>
<g fill="None" fill-opacity="0.0" stroke="#ccc9" stroke-opacity="1.00" stroke-width="0.3"><path d="
M 138.00 41.00 
C 140.43 41.56 142.35 42.18 145.00 42.00
C 142.68 40.99 140.13 40.31 138.00 41.00 Z"/>
</g>
<g fill="None" fill-opacity="0.0" stroke="#ccc9" stroke-opacity="1.00" stroke-width="0.3"><path d="
M 257.00 42.00 
C 264.75 42.00 270.13 41.78 274.69 47.31 C 279.26 52.83 272.82 63.14 277.00 66.00
C 274.37 60.74 280.50 50.44 274.75 45.25 C 269.00 40.06 263.52 39.15 257.00 42.00 Z"/>
</g>
<g fill="None" fill-opacity="0.0" stroke="#ccc9" stroke-opacity="1.00" stroke-width="0.3"><path d="
M 74.00 52.00 
C 75.41 46.51 82.75 36.08 87.00 46.00
C 90.29 45.04 93.05 41.98 96.00 41.00
C 92.68 40.25 90.92 43.77 88.00 44.00
C 81.61 35.71 75.13 45.09 74.00 52.00 Z"/>
</g>
<g fill="None" fill-opacity="0.0" stroke="#ccc9" stroke-opacity="1.00" stroke-width="0.3"><path d="
M 110.00 51.00 
C 109.87 44.62 103.94 40.58 98.00 41.00
C 104.41 42.93 106.80 44.88 110.00 51.00 Z"/>
</g>
<g fill="None" fill-opacity="0.0" stroke="#ccc9" stroke-opacity="1.00" stroke-width="0.3"><path d="
M 110.00 61.00 
C 108.06 61.78 109.39 64.43 109.00 66.00
C 119.14 59.71 122.66 45.65 136.00 41.00
C 121.24 40.80 119.41 58.84 110.00 65.00
C 110.11 63.68 109.86 62.32 110.00 61.00 Z"/>
</g>
<g fill="None" fill-opacity="0.0" stroke="#ccc9" stroke-opacity="1.00" stroke-width="0.3"><path d="
M 160.00 56.00 
C 161.83 50.26 170.91 33.99 174.00 48.00
C 179.84 43.12 189.50 39.62 195.22 44.78 C 200.94 49.94 188.00 64.54 197.00 66.00
C 190.94 59.73 202.12 49.50 195.75 43.25 C 189.37 37.01 180.00 42.27 175.00 47.00
C 170.65 32.87 161.30 48.06 160.00 56.00 Z"/>
</g>
<g fill="None" fill-opacity="0.0" stroke="#ccc9" stroke-opacity="0.21" stroke-width="0.3"><path d="
M 318.00 49.00 
C 318.17 45.49 316.74 43.56 315.00 41.00
C 315.86 42.68 317.97 47.51 318.00 49.00 Z"/>
</g>
<g fill="None" fill-opacity="0.0" stroke="#ccc9" stroke-opacity="1.00" stroke-width="0.3"><path d="
M 152.00 65.00 
C 153.70 59.32 154.88 43.70 146.00 42.00
C 152.05 50.66 150.49 54.54 152.00 65.00 Z"/>
</g>
<g fill="None" fill-opacity="0.0" stroke="#ccc9" stroke-opacity="1.00" stroke-width="0.3"><path d="
M 232.00 62.00 
C 231.99 63.92 233.29 65.32 234.00 67.00
C 240.67 58.64 248.22 50.13 256.00 42.00
C 243.98 45.01 242.72 60.21 234.00 66.00
C 234.40 64.25 232.65 63.11 232.00 62.00 Z"/>
</g>
<g fill="None" fill-opacity="0.0" stroke="#ccc9" stroke-opacity="0.22" stroke-width="0.3"><path d="
M 19.00 54.00 
C 20.01 52.69 21.84 50.20 23.00 49.00
C 21.31 50.41 20.20 52.02 19.00 54.00 Z"/>
</g>
<g fill="None" fill-opacity="0.0" stroke="#ccc9" stroke-opacity="1.00" stroke-width="0.3"><path d="
M 24.00 57.00 
C 25.76 55.77 27.31 53.03 29.00 52.00
C 26.81 53.08 24.94 54.56 24.00 57.00 Z"/>
</g>
<g fill="None" fill-opacity="0.0" stroke="#ccc9" stroke-opacity="1.00" stroke-width="0.3"><path d="
M 110.00 60.00 
C 111.50 57.97 111.53 54.07 110.00 52.00
C 110.00 54.67 110.00 57.33 110.00 60.00 Z"/>
</g>
<g fill="None" fill-opacity="0.0" stroke="#ccc9" stroke-opacity="1.00" stroke-width="0.3"><path d="
M 288.00 64.00 
C 290.58 61.10 292.08 56.83 293.00 53.00
C 297.54 53.11 297.28 58.05 296.00 61.00
C 299.91 58.21 297.71 52.09 293.00 52.00
C 291.15 55.93 288.98 59.81 288.00 64.00 Z"/>
</g>
<g fill="None" fill-opacity="0.0" stroke="#ccc9" stroke-opacity="1.00" stroke-width="0.3"><path d="
M 72.00 58.00 
C 73.00 56.61 73.74 54.90 74.00 53.00
C 72.49 54.23 71.94 55.94 72.00 58.00 Z"/>
</g>
<g fill="None" fill-opacity="0.0" stroke="#ccc9" stroke-opacity="1.00" stroke-width="0.3"><path d="
M 232.00 61.00 
C 231.26 57.86 229.29 55.64 228.00 53.00
C 228.51 55.92 230.25 58.82 232.00 61.00 Z"/>
</g>
<g fill="None" fill-opacity="0.0" stroke="#ccc9" stroke-opacity="1.00" stroke-width="0.3"><path d="
M 88.00 68.00 
C 81.77 65.49 86.39 53.52 93.00 55.00
C 85.75 51.76 79.69 67.36 88.00 68.00 Z"/>
</g>
<g fill="None" fill-opacity="0.0" stroke="#ccc9" stroke-opacity="1.00" stroke-width="0.3"><path d="
M 132.00 68.00 
C 125.85 65.67 131.76 54.82 137.00 55.00
C 131.82 50.97 124.30 66.75 132.00 68.00 Z"/>
</g>
<g fill="None" fill-opacity="0.0" stroke="#ccc9" stroke-opacity="1.00" stroke-width="0.3"><path d="
M 210.00 63.00 
C 212.96 61.07 214.40 55.11 218.00 55.00
C 215.72 52.65 210.86 60.63 210.00 63.00 Z"/>
</g>
<g fill="None" fill-opacity="0.0" stroke="#ccc9" stroke-opacity="1.00" stroke-width="0.3"><path d="
M 254.00 60.00 
C 255.93 52.82 267.81 54.45 264.00 63.00
C 271.03 57.36 256.09 48.71 254.00 60.00 Z"/>
</g>
<g fill="None" fill-opacity="0.0" stroke="#ccc9" stroke-opacity="1.00" stroke-width="0.3"><path d="
M 88.00 68.00 
C 88.50 68.04 89.51 68.08 90.00 68.00
C 92.14 67.09 95.67 63.08 96.00 61.00
C 96.35 57.31 95.95 56.32 93.00 55.00
C 86.39 53.52 81.77 65.49 88.00 68.00 Z"/>
</g>
<g fill="None" fill-opacity="0.0" stroke="#ccc9" stroke-opacity="1.00" stroke-width="0.3"><path d="
M 132.00 68.00 
C 132.82 68.13 134.17 68.12 135.00 68.00
C 136.64 67.52 139.15 64.32 140.00 63.00
C 140.00 63.00 139.93 62.49 140.00 62.00
C 140.33 59.77 139.98 56.39 138.00 55.00
C 138.00 55.00 137.50 55.02 137.00 55.00
C 131.76 54.82 125.85 65.67 132.00 68.00 Z"/>
</g>
<g fill="None" fill-opacity="0.0" stroke="#ccc9" stroke-opacity="1.00" stroke-width="0.3"><path d="
M 140.00 62.00 
C 141.60 59.96 141.32 55.87 138.00 55.00
C 139.98 56.39 140.33 59.77 140.00 62.00 Z"/>
</g>
<g fill="None" fill-opacity="0.0" stroke="#ccc9" stroke-opacity="1.00" stroke-width="0.3"><path d="
M 210.00 63.00 
C 210.00 63.00 209.96 63.50 210.00 64.00
C 210.13 65.56 211.61 67.58 213.00 68.00
C 213.50 68.04 214.51 68.08 215.00 68.00
C 219.67 66.10 219.41 59.98 218.00 56.00
C 218.00 56.00 217.98 55.00 218.00 55.00
C 214.40 55.11 212.96 61.07 210.00 63.00 Z"/>
</g>
<g fill="None" fill-opacity="0.0" stroke="#ccc9" stroke-opacity="1.00" stroke-width="0.3"><path d="
M 254.00 60.00 
C 253.27 63.94 254.37 68.25 259.00 68.00
C 259.85 67.88 263.28 64.77 264.00 64.00
C 264.00 64.00 263.81 63.42 264.00 63.00
C 267.81 54.45 255.93 52.82 254.00 60.00 Z"/>
</g>
<g fill="None" fill-opacity="0.0" stroke="#ccc9" stroke-opacity="1.00" stroke-width="0.3"><path d="
M 215.00 68.00 
C 219.67 67.25 223.02 58.28 218.00 56.00
C 219.41 59.98 219.67 66.10 215.00 68.00 Z"/>
</g>
<g fill="None" fill-opacity="0.0" stroke="#ccc9" stroke-opacity="1.00" stroke-width="0.3"><path d="
M 279.00 66.00 
C 282.74 64.71 285.22 59.34 286.00 56.00
C 283.99 58.50 282.03 64.22 279.00 66.00 Z"/>
</g>
<g fill="None" fill-opacity="0.0" stroke="#ccc9" stroke-opacity="1.00" stroke-width="0.3"><path d="
M 153.00 66.00 
C 156.38 68.34 159.94 59.87 160.00 57.00
C 158.74 59.40 156.91 65.92 153.00 66.00 Z"/>
</g>
<g fill="None" fill-opacity="0.0" stroke="#ccc9" stroke-opacity="1.00" stroke-width="0.3"><path d="
M 35.00 90.00 
C 21.58 82.97 20.71 72.01 24.00 58.00
C 14.54 65.26 22.90 89.76 35.00 90.00 Z"/>
</g>
<g fill="None" fill-opacity="0.0" stroke="#ccc9" stroke-opacity="1.00" stroke-width="0.3"><path d="
M 154.00 76.00 
C 151.38 87.60 166.79 89.64 170.07 82.07 C 173.36 74.51 168.00 60.50 178.00 58.00
C 172.14 58.90 170.40 66.41 170.00 72.00 C 169.60 77.59 171.37 85.33 163.00 86.00 C 154.64 86.67 157.55 76.43 154.00 76.00 Z"/>
</g>
<g fill="None" fill-opacity="0.0" stroke="#ccc9" stroke-opacity="1.00" stroke-width="0.3"><path d="
M 182.00 64.00 
C 182.91 62.83 184.09 59.00 182.00 58.00
C 182.00 60.00 182.00 62.00 182.00 64.00 Z"/>
</g>
<g fill="None" fill-opacity="0.0" stroke="#ccc9" stroke-opacity="1.00" stroke-width="0.3"><path d="
M 66.00 70.00 
C 62.63 79.67 59.45 84.11 51.00 90.00
C 55.38 88.96 58.96 85.89 62.00 83.00
C 60.82 88.21 57.79 92.39 58.00 98.00
C 61.85 86.94 71.55 70.97 72.00 59.00
C 70.35 60.93 66.59 73.45 66.00 70.00 Z"/>
</g>
<g fill="None" fill-opacity="0.0" stroke="#ccc9" stroke-opacity="1.00" stroke-width="0.3"><path d="
M 90.00 68.00 
C 93.42 67.45 95.70 64.23 96.00 61.00
C 95.67 63.08 92.14 67.09 90.00 68.00 Z"/>
</g>
<g fill="None" fill-opacity="0.0" stroke="#ccc9" stroke-opacity="1.00" stroke-width="0.3"><path d="
M 315.00 66.00 
C 317.66 64.60 319.30 60.77 323.00 62.00
C 318.90 70.32 320.15 77.62 310.69 83.69 C 301.24 89.77 292.00 85.04 292.00 73.00
C 284.05 83.73 303.07 91.37 309.92 84.92 C 316.77 78.47 321.50 72.92 323.97 64.03 C 326.44 55.14 314.52 66.16 315.00 66.00 Z"/>
</g>
<g fill="None" fill-opacity="0.0" stroke="#ccc9" stroke-opacity="1.00" stroke-width="0.3"><path d="
M 292.00 72.00 
C 294.11 69.54 295.46 65.33 296.00 62.00
C 293.84 64.70 292.14 68.32 292.00 72.00 Z"/>
</g>
<g fill="None" fill-opacity="0.0" stroke="#ccc9" stroke-opacity="1.00" stroke-width="0.3"><path d="
M 135.00 68.00 
C 137.64 67.62 139.50 65.55 140.00 63.00
C 139.15 64.32 136.64 67.52 135.00 68.00 Z"/>
</g>
<g fill="None" fill-opacity="0.0" stroke="#ccc9" stroke-opacity="1.00" stroke-width="0.3"><path d="
M 213.00 68.00 
C 211.61 67.58 210.13 65.56 210.00 64.00
C 208.53 65.95 210.55 67.81 213.00 68.00 Z"/>
</g>
<g fill="None" fill-opacity="0.0" stroke="#ccc9" stroke-opacity="1.00" stroke-width="0.3"><path d="
M 259.00 68.00 
C 261.16 67.88 263.05 65.93 264.00 64.00
C 263.28 64.77 259.85 67.88 259.00 68.00 Z"/>
</g>
<g fill="None" fill-opacity="0.0" stroke="#ccc9" stroke-opacity="1.00" stroke-width="0.3"><path d="
M 180.00 70.00 
C 181.51 68.77 182.06 67.06 182.00 65.00
C 181.00 66.39 180.26 68.10 180.00 70.00 Z"/>
</g>
<g fill="None" fill-opacity="0.0" stroke="#ccc9" stroke-opacity="1.00" stroke-width="0.3"><path d="
M 273.00 77.00 
C 280.15 77.48 285.57 71.18 288.00 65.00
C 285.14 66.79 284.60 70.48 281.75 72.75 C 278.89 75.01 275.93 75.72 273.00 77.00 Z"/>
</g>
<g fill="None" fill-opacity="0.0" stroke="#ccc9" stroke-opacity="1.00" stroke-width="0.3"><path d="
M 182.00 86.00 
C 178.67 83.37 180.00 74.88 180.00 71.00
C 177.65 74.18 178.04 83.72 182.00 86.00 Z"/>
</g>
<g fill="None" fill-opacity="0.0" stroke="#ccc9" stroke-opacity="1.00" stroke-width="0.3"><path d="
M 76.00 82.00 
C 78.11 81.60 76.02 78.47 78.00 78.00
C 76.30 86.90 87.93 89.44 93.92 85.92 C 99.92 82.41 103.37 77.51 110.00 76.00
C 101.70 74.66 100.42 82.73 93.22 85.22 C 86.02 87.71 77.52 84.93 78.00 76.00
C 75.57 76.68 75.70 79.98 76.00 82.00 Z"/>
</g>
<g fill="None" fill-opacity="0.0" stroke="#ccc9" stroke-opacity="1.00" stroke-width="0.3"><path d="
M 135.00 86.00 
C 130.37 86.00 124.30 86.64 120.25 84.75 C 116.19 82.86 117.23 77.89 114.00 76.00
C 116.03 77.85 116.35 85.75 120.93 86.07 C 125.51 86.39 131.14 88.86 135.00 86.00 Z"/>
</g>
<g fill="None" fill-opacity="0.0" stroke="#ccc9" stroke-opacity="1.00" stroke-width="0.3"><path d="
M 225.00 86.00 
C 230.06 85.14 233.95 81.08 237.00 77.00
C 238.13 77.44 239.57 79.06 240.00 80.00
C 240.43 78.40 238.63 77.54 239.00 76.00
C 234.60 79.09 229.20 82.63 225.00 86.00 Z"/>
</g>
<g fill="None" fill-opacity="0.0" stroke="#ccc9" stroke-opacity="1.00" stroke-width="0.3"><path d="
M 136.00 86.00 
C 140.61 84.19 143.05 78.74 147.00 77.00
C 144.55 77.89 137.23 84.03 136.00 86.00 Z"/>
</g>
<g fill="None" fill-opacity="0.0" stroke="#ccc9" stroke-opacity="1.00" stroke-width="0.3"><path d="
M 264.00 84.00 
C 266.80 82.13 269.78 79.32 272.00 77.00
C 268.12 77.76 266.86 81.75 264.00 84.00 Z"/>
</g>
<g fill="None" fill-opacity="0.0" stroke="#ccc9" stroke-opacity="1.00" stroke-width="0.3"><path d="
M 189.00 87.00 
C 194.99 88.04 197.60 81.69 202.00 79.00
C 204.22 83.57 208.60 87.41 214.00 87.00
C 209.82 85.66 204.62 83.03 203.00 78.00
C 198.09 79.92 194.36 86.09 189.00 87.00 Z"/>
</g>
<g fill="None" fill-opacity="0.0" stroke="#ccc9" stroke-opacity="1.00" stroke-width="0.3"><path d="
M 246.00 86.00 
C 244.25 84.17 241.81 82.93 240.00 81.00
C 241.11 83.26 243.59 85.53 246.00 86.00 Z"/>
</g>
<g fill="None" fill-opacity="0.0" stroke="#ccc9" stroke-opacity="1.00" stroke-width="0.3"><path d="
M 74.00 91.00 
C 75.26 88.69 75.93 85.98 76.00 83.00
C 74.29 85.11 73.80 88.02 74.00 91.00 Z"/>
</g>
<g fill="None" fill-opacity="0.0" stroke="#ccc9" stroke-opacity="1.00" stroke-width="0.3"><path d="
M 215.00 87.00 
C 217.38 88.83 221.58 87.06 224.00 86.00
C 220.71 85.78 218.19 86.93 215.00 87.00 Z"/>
</g>
<g fill="None" fill-opacity="0.0" stroke="#ccc9" stroke-opacity="1.00" stroke-width="0.3"><path d="
M 259.00 86.00 
C 255.20 86.58 250.85 86.00 247.00 86.00
C 250.01 88.23 255.87 86.88 259.00 86.00 Z"/>
</g>
<g fill="None" fill-opacity="0.0" stroke="#ccc9" stroke-opacity="1.00" stroke-width="0.3"><path d="
M 49.00 90.00 
C 44.67 90.00 40.33 90.00 36.00 90.00
C 38.87 92.13 45.98 91.29 49.00 90.00 Z"/>
</g>
<g fill="None" fill-opacity="0.0" stroke="#ccc9" stroke-opacity="1.00" stroke-width="0.3"><path d="
M 58.00 100.00 
C 58.00 105.57 65.36 106.65 68.75 103.75 C 72.14 100.85 73.84 96.12 74.00 92.00
C 70.79 94.45 72.23 100.02 68.74 102.74 C 65.26 105.46 59.71 104.03 58.00 100.00 Z"/>
</g>
<g fill="None" fill-opacity="0.0" stroke="#ccc9" stroke-opacity="0.15" stroke-width="0.3"><path d="
M 58.00 110.00 
C 57.40 109.68 53.39 105.67 53.00 105.00
C 53.82 106.78 56.16 109.17 58.00 110.00 Z"/>
</g>
<g fill="#000000" fill-opacity="0.00" stroke="None">
<path d="
M 0.00 117.00 
L 340.00 117.00
L 340.00 0.00
L 0.00 0.00
L 0.00 117.00
M 80.00 27.00 
C 80.25 28.02 80.41 33.03 81.00 34.00
C 85.82 39.93 95.62 33.70 101.67 35.33 C 107.72 36.96 114.24 41.35 115.00 48.00
C 123.67 37.74 139.33 30.08 151.00 39.00
C 152.99 40.50 154.38 42.28 156.00 44.00
C 156.88 44.94 156.59 46.63 158.00 47.00
C 158.95 38.66 171.18 30.03 177.00 39.00
C 187.65 29.72 205.01 38.23 204.00 52.00
C 208.08 34.99 237.55 22.94 241.00 46.00
C 246.46 39.66 252.12 37.96 259.67 35.67 C 267.23 33.39 274.83 39.22 280.00 41.00
C 282.44 39.30 283.10 33.80 287.00 32.00
C 296.84 27.45 309.60 33.05 315.00 41.00
C 316.74 43.56 318.17 45.49 318.00 49.00
C 318.05 51.14 315.86 53.70 316.00 56.00
C 329.86 51.23 331.44 65.87 325.22 74.22 C 319.01 82.58 315.52 90.51 304.75 92.20 C 293.99 93.89 286.56 87.62 285.00 78.00
C 276.01 81.44 270.61 86.42 262.25 91.25 C 253.90 96.09 241.98 92.37 236.00 86.00
C 228.44 96.59 212.88 91.79 203.92 89.08 C 194.96 86.37 182.01 101.18 175.00 86.00
C 168.49 96.13 153.32 94.40 149.00 83.00
C 142.88 89.97 132.89 93.90 124.00 93.00 C 115.11 92.10 108.81 76.46 102.25 87.25 C 95.69 98.03 81.63 87.14 78.36 95.70 C 75.08 104.25 70.36 115.48 58.00 110.00
C 56.16 109.17 53.82 106.78 53.00 105.00
C 51.71 102.21 54.00 94.11 47.33 96.33 C 40.66 98.55 34.95 96.32 29.77 94.23 C 24.60 92.13 20.69 88.31 18.43 84.23 C 16.17 80.15 15.38 74.52 15.07 69.92 C 14.76 65.33 16.45 58.21 19.00 54.00
C 20.20 52.02 21.31 50.41 23.00 49.00
C 26.57 46.01 34.73 45.73 37.00 43.00
C 35.72 41.61 36.13 39.73 36.00 38.00
C 35.60 32.57 36.22 27.54 39.00 23.00
C 40.44 20.64 42.77 18.48 45.00 17.00
C 56.83 9.13 76.38 12.37 80.00 27.00 Z"/>
</g>
<g fill="#ccc9" fill-opacity="0.93" stroke="None">
<path d="
M 45.00 17.00 
C 43.49 18.18 40.07 21.52 39.00 23.00
C 36.22 27.54 35.60 32.57 36.00 38.00
C 36.23 39.60 38.24 41.51 37.00 43.00
C 34.73 45.73 26.57 46.01 23.00 49.00
C 21.84 50.20 20.01 52.69 19.00 54.00
C 16.45 58.21 14.76 65.33 15.07 69.92 C 15.38 74.52 16.17 80.15 18.43 84.23 C 20.69 88.31 24.60 92.13 29.77 94.23 C 34.95 96.32 40.66 98.55 47.33 96.33 C 54.00 94.11 51.71 102.21 53.00 105.00
C 53.39 105.67 57.40 109.68 58.00 110.00
C 70.36 115.48 75.08 104.25 78.36 95.70 C 81.63 87.14 95.69 98.03 102.25 87.25 C 108.81 76.46 115.11 92.10 124.00 93.00 C 132.89 93.90 142.88 89.97 149.00 83.00
C 153.32 94.40 168.49 96.13 175.00 86.00
C 182.01 101.18 194.96 86.37 203.92 89.08 C 212.88 91.79 228.44 96.59 236.00 86.00
C 241.98 92.37 253.90 96.09 262.25 91.25 C 270.61 86.42 276.01 81.44 285.00 78.00
C 286.56 87.62 293.99 93.89 304.75 92.20 C 315.52 90.51 319.01 82.58 325.22 74.22 C 331.44 65.87 329.86 51.23 316.00 56.00
C 315.86 53.70 318.05 51.14 318.00 49.00
C 317.97 47.51 315.86 42.68 315.00 41.00
C 309.60 33.05 296.84 27.45 287.00 32.00
C 283.84 33.74 282.99 39.57 280.00 41.00
C 274.83 39.22 267.23 33.39 259.67 35.67 C 252.12 37.96 246.46 39.66 241.00 46.00
C 237.55 22.94 208.08 34.99 204.00 52.00
C 205.01 38.23 187.65 29.72 177.00 39.00
C 171.18 30.03 158.95 38.66 158.00 47.00
C 156.59 46.63 156.88 44.94 156.00 44.00
C 154.28 42.50 152.61 40.42 151.00 39.00
C 139.33 30.08 123.67 37.74 115.00 48.00
C 114.24 41.35 107.72 36.96 101.67 35.33 C 95.62 33.70 85.82 39.93 81.00 34.00
C 79.39 32.02 80.38 29.56 80.00 27.00
C 76.38 12.37 56.83 9.13 45.00 17.00
M 74.00 26.00 
C 74.16 26.44 74.00 27.00 74.00 27.00
C 76.06 29.78 75.47 37.42 73.22 40.22 C 70.98 43.03 67.31 47.67 63.33 45.67 C 59.35 43.66 65.89 35.85 61.00 34.00
C 60.23 33.87 58.77 33.85 58.00 34.00
C 52.29 36.47 55.80 46.92 59.31 50.69 C 62.81 54.47 66.41 62.17 66.00 68.00
C 65.97 68.50 66.16 69.55 66.00 70.00
C 66.59 73.45 70.35 60.93 72.00 59.00
C 72.02 58.50 72.00 58.00 72.00 58.00
C 71.94 55.94 72.49 54.23 74.00 53.00
C 74.07 52.51 74.00 52.00 74.00 52.00
C 75.13 45.09 81.61 35.71 88.00 44.00
C 90.92 43.77 92.68 40.25 96.00 41.00
C 96.50 40.98 97.50 41.03 98.00 41.00
C 103.94 40.58 109.87 44.62 110.00 51.00
C 110.01 51.50 110.00 52.00 110.00 52.00
C 111.53 54.07 111.50 57.97 110.00 60.00
C 110.00 60.50 110.00 61.00 110.00 61.00
C 109.86 62.32 110.11 63.68 110.00 65.00
C 119.41 58.84 121.24 40.80 136.00 41.00
C 136.50 41.02 137.53 40.89 138.00 41.00
C 140.13 40.31 142.68 40.99 145.00 42.00
C 145.50 41.97 146.00 42.00 146.00 42.00
C 154.88 43.70 153.70 59.32 152.00 65.00
C 152.05 65.35 152.70 65.79 153.00 66.00
C 156.91 65.92 158.74 59.40 160.00 57.00
C 160.01 56.50 160.00 56.00 160.00 56.00
C 161.30 48.06 170.65 32.87 175.00 47.00
C 180.00 42.27 189.37 37.01 195.75 43.25 C 202.12 49.50 190.94 59.73 197.00 66.00
C 197.73 66.12 199.29 66.18 200.00 66.00
C 207.85 62.52 209.83 47.26 216.77 42.77 C 223.71 38.28 223.87 36.54 232.07 39.93 C 240.28 43.31 229.64 48.59 228.00 51.00
C 227.85 51.45 227.92 52.51 228.00 53.00
C 229.29 55.64 231.26 57.86 232.00 61.00
C 232.11 61.47 232.00 62.00 232.00 62.00
C 232.65 63.11 234.40 64.25 234.00 66.00
C 242.72 60.21 243.98 45.01 256.00 42.00
C 256.50 41.95 257.00 42.00 257.00 42.00
C 263.52 39.15 269.00 40.06 274.75 45.25 C 280.50 50.44 274.37 60.74 277.00 66.00
C 277.34 66.23 278.55 66.15 279.00 66.00
C 282.03 64.22 283.99 58.50 286.00 56.00
C 286.11 55.53 286.00 55.00 286.00 55.00
C 288.19 50.09 283.56 46.97 285.78 41.78 C 288.00 36.59 292.55 35.96 297.00 37.00
C 298.56 37.36 300.39 37.60 302.00 38.00
C 306.31 39.08 309.35 41.10 311.75 45.25 C 314.16 49.39 308.44 55.66 308.00 59.00
C 307.93 63.59 309.47 67.26 315.00 66.00
C 314.52 66.16 326.44 55.14 323.97 64.03 C 321.50 72.92 316.77 78.47 309.92 84.92 C 303.07 91.37 284.05 83.73 292.00 73.00
C 292.00 72.50 292.00 72.00 292.00 72.00
C 292.14 68.32 293.84 64.70 296.00 62.00
C 296.08 61.51 296.00 61.00 296.00 61.00
C 297.28 58.05 297.54 53.11 293.00 53.00
C 292.08 56.83 290.58 61.10 288.00 64.00
C 287.89 64.47 288.00 65.00 288.00 65.00
C 285.57 71.18 280.15 77.48 273.00 77.00
C 272.50 76.97 272.00 77.00 272.00 77.00
C 269.78 79.32 266.80 82.13 264.00 84.00
C 262.03 85.32 261.21 85.38 259.00 86.00
C 255.87 86.88 250.01 88.23 247.00 86.00
C 246.50 86.00 246.00 86.00 246.00 86.00
C 243.59 85.53 241.11 83.26 240.00 81.00
C 239.80 80.60 240.00 80.00 240.00 80.00
C 239.57 79.06 238.13 77.44 237.00 77.00
C 233.95 81.08 230.06 85.14 225.00 86.00
C 224.53 86.11 224.00 86.00 224.00 86.00
C 221.58 87.06 217.38 88.83 215.00 87.00
C 214.50 87.01 214.00 87.00 214.00 87.00
C 208.60 87.41 204.22 83.57 202.00 79.00
C 197.60 81.69 194.99 88.04 189.00 87.00
C 186.52 87.13 184.14 87.23 182.00 86.00
C 178.04 83.72 177.65 74.18 180.00 71.00
C 180.00 70.50 180.00 70.00 180.00 70.00
C 180.26 68.10 181.00 66.39 182.00 65.00
C 181.99 64.50 182.00 64.00 182.00 64.00
C 182.00 62.00 182.00 60.00 182.00 58.00
C 181.28 57.66 178.80 57.88 178.00 58.00
C 168.00 60.50 173.36 74.51 170.07 82.07 C 166.79 89.64 151.38 87.60 154.00 76.00
C 153.30 75.91 147.85 76.69 147.00 77.00
C 143.05 78.74 140.61 84.19 136.00 86.00
C 135.57 86.17 135.00 86.00 135.00 86.00
C 131.14 88.86 125.51 86.39 120.93 86.07 C 116.35 85.75 116.03 77.85 114.00 76.00
C 112.37 75.05 112.14 75.75 110.00 76.00
C 103.37 77.51 99.92 82.41 93.92 85.92 C 87.93 89.44 76.30 86.90 78.00 78.00
C 76.02 78.47 78.11 81.60 76.00 82.00
C 76.07 82.49 76.00 83.00 76.00 83.00
C 75.93 85.98 75.26 88.69 74.00 91.00
C 74.03 91.50 74.00 92.00 74.00 92.00
C 73.84 96.12 72.14 100.85 68.75 103.75 C 65.36 106.65 58.00 105.57 58.00 100.00
C 58.00 99.50 58.02 98.50 58.00 98.00
C 57.79 92.39 60.82 88.21 62.00 83.00
C 58.96 85.89 55.38 88.96 51.00 90.00
C 50.50 90.04 49.50 90.00 49.00 90.00
C 45.98 91.29 38.87 92.13 36.00 90.00
C 35.50 90.00 35.00 90.00 35.00 90.00
C 22.90 89.76 14.54 65.26 24.00 58.00
C 24.11 57.53 24.00 57.00 24.00 57.00
C 24.94 54.56 26.81 53.08 29.00 52.00
C 30.39 51.31 35.37 49.64 37.00 50.00
C 44.69 51.71 32.23 62.10 40.10 65.90 C 47.98 69.70 52.64 62.20 49.22 55.78 C 45.80 49.36 42.14 44.44 42.00 37.00
C 41.97 35.67 41.95 34.32 42.00 33.00
C 42.20 27.67 45.96 20.56 52.00 20.00
C 52.50 19.95 53.00 20.00 53.00 20.00
C 58.65 15.82 71.55 19.20 74.00 26.00 Z"/>
</g>
<g fill="#ccc9" fill-opacity="0.09" stroke="None">
<path d="
M 39.00 23.00 
C 40.07 21.52 43.49 18.18 45.00 17.00
C 42.77 18.48 40.44 20.64 39.00 23.00 Z"/>
</g>
<g fill="#ccc9" fill-opacity="1.00" stroke="None">
<path d="
M 53.00 20.00 
C 62.47 20.00 67.45 19.73 74.00 26.00
C 71.55 19.20 58.65 15.82 53.00 20.00 Z"/>
</g>
<g fill="#ccc9" fill-opacity="1.00" stroke="None">
<path d="
M 42.00 33.00 
C 43.13 27.14 47.69 23.46 52.00 20.00
C 45.96 20.56 42.20 27.67 42.00 33.00 Z"/>
</g>
<g fill="#cbd5e1f7" fill-opacity="1.00" stroke="None">
<path d="
M 42.00 33.00 
C 41.95 34.32 41.97 35.67 42.00 37.00
C 42.97 43.95 46.67 48.30 49.92 55.08 C 53.18 61.85 50.30 69.54 40.78 67.22 C 31.25 64.90 41.88 51.75 37.00 50.00
C 35.37 49.64 30.39 51.31 29.00 52.00
C 27.31 53.03 25.76 55.77 24.00 57.00
C 24.00 57.00 24.11 57.53 24.00 58.00
C 20.71 72.01 21.58 82.97 35.00 90.00
C 35.00 90.00 35.50 90.00 36.00 90.00
C 40.33 90.00 44.67 90.00 49.00 90.00
C 49.50 90.00 50.50 90.04 51.00 90.00
C 59.45 84.11 62.63 79.67 66.00 70.00
C 66.16 69.55 65.97 68.50 66.00 68.00
C 64.50 63.02 62.14 54.70 58.25 50.75 C 54.36 46.81 51.51 35.30 58.00 34.00
C 58.77 33.85 60.23 33.87 61.00 34.00
C 66.19 34.84 62.82 41.59 63.00 45.00
C 72.34 45.58 75.33 34.60 74.00 27.00
C 74.00 27.00 74.16 26.44 74.00 26.00
C 67.45 19.73 62.47 20.00 53.00 20.00
C 53.00 20.00 52.50 19.95 52.00 20.00
C 47.69 23.46 43.13 27.14 42.00 33.00 Z"/>
</g>
<g fill="#ccc9" fill-opacity="1.00" stroke="None">
<path d="
M 61.00 34.00 
C 65.89 35.85 59.35 43.66 63.33 45.67 C 67.31 47.67 70.98 43.03 73.22 40.22 C 75.47 37.42 76.06 29.78 74.00 27.00
C 75.33 34.60 72.34 45.58 63.00 45.00
C 62.82 41.59 66.19 34.84 61.00 34.00 Z"/>
</g>
<g fill="#ccc9" fill-opacity="0.32" stroke="None">
<path d="
M 81.00 34.00 
C 80.41 33.03 80.25 28.02 80.00 27.00
C 80.38 29.56 79.39 32.02 81.00 34.00 Z"/>
</g>
<g fill="#ccc9" fill-opacity="0.33" stroke="None">
<path d="
M 280.00 41.00 
C 282.99 39.57 283.84 33.74 287.00 32.00
C 283.10 33.80 282.44 39.30 280.00 41.00 Z"/>
</g>
<g fill="#ccc9" fill-opacity="1.00" stroke="None">
<path d="
M 66.00 68.00 
C 66.41 62.17 62.81 54.47 59.31 50.69 C 55.80 46.92 52.29 36.47 58.00 34.00
C 51.51 35.30 54.36 46.81 58.25 50.75 C 62.14 54.70 64.50 63.02 66.00 68.00 Z"/>
</g>
<g fill="#ccc9" fill-opacity="1.00" stroke="None">
<path d="
M 286.00 55.00 
C 291.21 52.25 284.37 47.54 286.00 43.00 C 287.63 38.46 292.14 36.56 297.00 37.00
C 292.55 35.96 288.00 36.59 285.78 41.78 C 283.56 46.97 288.19 50.09 286.00 55.00 Z"/>
</g>
<g fill="#ccc9" fill-opacity="1.00" stroke="None">
<path d="
M 37.00 50.00 
C 41.88 51.75 31.25 64.90 40.78 67.22 C 50.30 69.54 53.18 61.85 49.92 55.08 C 46.67 48.30 42.97 43.95 42.00 37.00
C 42.14 44.44 45.80 49.36 49.22 55.78 C 52.64 62.20 47.98 69.70 40.10 65.90 C 32.23 62.10 44.69 51.71 37.00 50.00 Z"/>
</g>
<g fill="#cbd5e1f7" fill-opacity="1.00" stroke="None">
<path d="
M 286.00 55.00 
C 286.00 55.00 286.11 55.53 286.00 56.00
C 285.22 59.34 282.74 64.71 279.00 66.00
C 278.55 66.15 277.34 66.23 277.00 66.00
C 272.82 63.14 279.26 52.83 274.69 47.31 C 270.13 41.78 264.75 42.00 257.00 42.00
C 257.00 42.00 256.50 41.95 256.00 42.00
C 248.22 50.13 240.67 58.64 234.00 67.00
C 233.29 65.32 231.99 63.92 232.00 62.00
C 232.00 62.00 232.11 61.47 232.00 61.00
C 230.25 58.82 228.51 55.92 228.00 53.00
C 227.92 52.51 227.85 51.45 228.00 51.00
C 228.86 48.38 239.00 43.74 231.25 40.75 C 223.49 37.77 223.98 40.22 217.23 44.23 C 210.48 48.25 208.33 63.88 200.00 66.00
C 199.29 66.18 197.73 66.12 197.00 66.00
C 188.00 64.54 200.94 49.94 195.22 44.78 C 189.50 39.62 179.84 43.12 174.00 48.00
C 170.91 33.99 161.83 50.26 160.00 56.00
C 160.00 56.00 160.01 56.50 160.00 57.00
C 159.94 59.87 156.38 68.34 153.00 66.00
C 152.70 65.79 152.05 65.35 152.00 65.00
C 150.49 54.54 152.05 50.66 146.00 42.00
C 146.00 42.00 145.50 41.97 145.00 42.00
C 142.35 42.18 140.43 41.56 138.00 41.00
C 137.53 40.89 136.50 41.02 136.00 41.00
C 122.66 45.65 119.14 59.71 109.00 66.00
C 109.39 64.43 108.06 61.78 110.00 61.00
C 110.00 61.00 110.00 60.50 110.00 60.00
C 110.00 57.33 110.00 54.67 110.00 52.00
C 110.00 52.00 110.01 51.50 110.00 51.00
C 106.80 44.88 104.41 42.93 98.00 41.00
C 97.50 41.03 96.50 40.98 96.00 41.00
C 93.05 41.98 90.29 45.04 87.00 46.00
C 82.75 36.08 75.41 46.51 74.00 52.00
C 74.00 52.00 74.07 52.51 74.00 53.00
C 73.74 54.90 73.00 56.61 72.00 58.00
C 72.00 58.00 72.02 58.50 72.00 59.00
C 71.55 70.97 61.85 86.94 58.00 98.00
C 58.02 98.50 58.00 99.50 58.00 100.00
C 59.71 104.03 65.26 105.46 68.74 102.74 C 72.23 100.02 70.79 94.45 74.00 92.00
C 74.00 92.00 74.03 91.50 74.00 91.00
C 73.80 88.02 74.29 85.11 76.00 83.00
C 76.00 83.00 76.07 82.49 76.00 82.00
C 75.70 79.98 75.57 76.68 78.00 76.00
C 77.52 84.93 86.02 87.71 93.22 85.22 C 100.42 82.73 101.70 74.66 110.00 76.00
C 112.14 75.75 112.37 75.05 114.00 76.00
C 117.23 77.89 116.19 82.86 120.25 84.75 C 124.30 86.64 130.37 86.00 135.00 86.00
C 135.00 86.00 135.57 86.17 136.00 86.00
C 137.23 84.03 144.55 77.89 147.00 77.00
C 147.85 76.69 153.30 75.91 154.00 76.00
C 157.55 76.43 154.64 86.67 163.00 86.00 C 171.37 85.33 169.60 77.59 170.00 72.00 C 170.40 66.41 172.14 58.90 178.00 58.00
C 178.80 57.88 181.28 57.66 182.00 58.00
C 184.09 59.00 182.91 62.83 182.00 64.00
C 182.00 64.00 181.99 64.50 182.00 65.00
C 182.06 67.06 181.51 68.77 180.00 70.00
C 180.00 70.00 180.00 70.50 180.00 71.00
C 180.00 74.88 178.67 83.37 182.00 86.00
C 184.14 87.23 186.52 87.13 189.00 87.00
C 194.36 86.09 198.09 79.92 203.00 78.00
C 204.62 83.03 209.82 85.66 214.00 87.00
C 214.00 87.00 214.50 87.01 215.00 87.00
C 218.19 86.93 220.71 85.78 224.00 86.00
C 224.00 86.00 224.53 86.11 225.00 86.00
C 229.20 82.63 234.60 79.09 239.00 76.00
C 238.63 77.54 240.43 78.40 240.00 80.00
C 240.00 80.00 239.80 80.60 240.00 81.00
C 241.81 82.93 244.25 84.17 246.00 86.00
C 246.00 86.00 246.50 86.00 247.00 86.00
C 250.85 86.00 255.20 86.58 259.00 86.00
C 261.21 85.38 262.03 85.32 264.00 84.00
C 266.86 81.75 268.12 77.76 272.00 77.00
C 272.00 77.00 272.50 76.97 273.00 77.00
C 275.93 75.72 278.89 75.01 281.75 72.75 C 284.60 70.48 285.14 66.79 288.00 65.00
C 288.00 65.00 287.89 64.47 288.00 64.00
C 288.98 59.81 291.15 55.93 293.00 52.00
C 297.71 52.09 299.91 58.21 296.00 61.00
C 296.00 61.00 296.08 61.51 296.00 62.00
C 295.46 65.33 294.11 69.54 292.00 72.00
C 292.00 72.00 292.00 72.50 292.00 73.00
C 292.00 85.04 301.24 89.77 310.69 83.69 C 320.15 77.62 318.90 70.32 323.00 62.00
C 319.30 60.77 317.66 64.60 315.00 66.00
C 309.47 67.26 307.93 63.59 308.00 59.00
C 308.12 50.51 314.03 42.04 302.00 38.00
C 300.39 37.60 298.56 37.36 297.00 37.00
C 292.14 36.56 287.63 38.46 286.00 43.00 C 284.37 47.54 291.21 52.25 286.00 55.00
M 93.00 55.00 
C 95.95 56.32 96.35 57.31 96.00 61.00
C 95.70 64.23 93.42 67.45 90.00 68.00
C 89.51 68.08 88.50 68.04 88.00 68.00
C 79.69 67.36 85.75 51.76 93.00 55.00
M 137.00 55.00 
C 137.50 55.02 138.00 55.00 138.00 55.00
C 141.32 55.87 141.60 59.96 140.00 62.00
C 139.93 62.49 140.00 63.00 140.00 63.00
C 139.50 65.55 137.64 67.62 135.00 68.00
C 134.17 68.12 132.82 68.13 132.00 68.00
C 124.30 66.75 131.82 50.97 137.00 55.00
M 218.00 55.00 
C 217.98 55.00 218.00 56.00 218.00 56.00
C 223.02 58.28 219.67 67.25 215.00 68.00
C 214.51 68.08 213.50 68.04 213.00 68.00
C 210.55 67.81 208.53 65.95 210.00 64.00
C 209.96 63.50 210.00 63.00 210.00 63.00
C 210.86 60.63 215.72 52.65 218.00 55.00
M 264.00 63.00 
C 263.81 63.42 264.00 64.00 264.00 64.00
C 263.05 65.93 261.16 67.88 259.00 68.00
C 254.37 68.25 253.27 63.94 254.00 60.00
C 256.09 48.71 271.03 57.36 264.00 63.00 Z"/>
</g>
<g fill="#ccc9" fill-opacity="0.32" stroke="None">
<path d="
M 37.00 43.00 
C 38.24 41.51 36.23 39.60 36.00 38.00
C 36.13 39.73 35.72 41.61 37.00 43.00 Z"/>
</g>
<g fill="#ccc9" fill-opacity="1.00" stroke="None">
<path d="
M 308.00 59.00 
C 308.44 55.66 314.16 49.39 311.75 45.25 C 309.35 41.10 306.31 39.08 302.00 38.00
C 314.03 42.04 308.12 50.51 308.00 59.00 Z"/>
</g>
<g fill="#ccc9" fill-opacity="0.20" stroke="None">
<path d="
M 156.00 44.00 
C 154.38 42.28 152.99 40.50 151.00 39.00
C 152.61 40.42 154.28 42.50 156.00 44.00 Z"/>
</g>
<g fill="#ccc9" fill-opacity="1.00" stroke="None">
<path d="
M 200.00 66.00 
C 208.33 63.88 210.48 48.25 217.23 44.23 C 223.98 40.22 223.49 37.77 231.25 40.75 C 239.00 43.74 228.86 48.38 228.00 51.00
C 229.64 48.59 240.28 43.31 232.07 39.93 C 223.87 36.54 223.71 38.28 216.77 42.77 C 209.83 47.26 207.85 62.52 200.00 66.00 Z"/>
</g>
<g fill="#ccc9" fill-opacity="1.00" stroke="None">
<path d="
M 138.00 41.00 
C 140.43 41.56 142.35 42.18 145.00 42.00
C 142.68 40.99 140.13 40.31 138.00 41.00 Z"/>
</g>
<g fill="#ccc9" fill-opacity="1.00" stroke="None">
<path d="
M 257.00 42.00 
C 264.75 42.00 270.13 41.78 274.69 47.31 C 279.26 52.83 272.82 63.14 277.00 66.00
C 274.37 60.74 280.50 50.44 274.75 45.25 C 269.00 40.06 263.52 39.15 257.00 42.00 Z"/>
</g>
<g fill="#ccc9" fill-opacity="1.00" stroke="None">
<path d="
M 74.00 52.00 
C 75.41 46.51 82.75 36.08 87.00 46.00
C 90.29 45.04 93.05 41.98 96.00 41.00
C 92.68 40.25 90.92 43.77 88.00 44.00
C 81.61 35.71 75.13 45.09 74.00 52.00 Z"/>
</g>
<g fill="#ccc9" fill-opacity="1.00" stroke="None">
<path d="
M 110.00 51.00 
C 109.87 44.62 103.94 40.58 98.00 41.00
C 104.41 42.93 106.80 44.88 110.00 51.00 Z"/>
</g>
<g fill="#ccc9" fill-opacity="1.00" stroke="None">
<path d="
M 110.00 61.00 
C 108.06 61.78 109.39 64.43 109.00 66.00
C 119.14 59.71 122.66 45.65 136.00 41.00
C 121.24 40.80 119.41 58.84 110.00 65.00
C 110.11 63.68 109.86 62.32 110.00 61.00 Z"/>
</g>
<g fill="#ccc9" fill-opacity="1.00" stroke="None">
<path d="
M 160.00 56.00 
C 161.83 50.26 170.91 33.99 174.00 48.00
C 179.84 43.12 189.50 39.62 195.22 44.78 C 200.94 49.94 188.00 64.54 197.00 66.00
C 190.94 59.73 202.12 49.50 195.75 43.25 C 189.37 37.01 180.00 42.27 175.00 47.00
C 170.65 32.87 161.30 48.06 160.00 56.00 Z"/>
</g>
<g fill="#ccc9" fill-opacity="0.21" stroke="None">
<path d="
M 318.00 49.00 
C 318.17 45.49 316.74 43.56 315.00 41.00
C 315.86 42.68 317.97 47.51 318.00 49.00 Z"/>
</g>
<g fill="#ccc9" fill-opacity="1.00" stroke="None">
<path d="
M 152.00 65.00 
C 153.70 59.32 154.88 43.70 146.00 42.00
C 152.05 50.66 150.49 54.54 152.00 65.00 Z"/>
</g>
<g fill="#ccc9" fill-opacity="1.00" stroke="None">
<path d="
M 232.00 62.00 
C 231.99 63.92 233.29 65.32 234.00 67.00
C 240.67 58.64 248.22 50.13 256.00 42.00
C 243.98 45.01 242.72 60.21 234.00 66.00
C 234.40 64.25 232.65 63.11 232.00 62.00 Z"/>
</g>
<g fill="#ccc9" fill-opacity="0.22" stroke="None">
<path d="
M 19.00 54.00 
C 20.01 52.69 21.84 50.20 23.00 49.00
C 21.31 50.41 20.20 52.02 19.00 54.00 Z"/>
</g>
<g fill="#ccc9" fill-opacity="1.00" stroke="None">
<path d="
M 24.00 57.00 
C 25.76 55.77 27.31 53.03 29.00 52.00
C 26.81 53.08 24.94 54.56 24.00 57.00 Z"/>
</g>
<g fill="#ccc9" fill-opacity="1.00" stroke="None">
<path d="
M 110.00 60.00 
C 111.50 57.97 111.53 54.07 110.00 52.00
C 110.00 54.67 110.00 57.33 110.00 60.00 Z"/>
</g>
<g fill="#ccc9" fill-opacity="1.00" stroke="None">
<path d="
M 288.00 64.00 
C 290.58 61.10 292.08 56.83 293.00 53.00
C 297.54 53.11 297.28 58.05 296.00 61.00
C 299.91 58.21 297.71 52.09 293.00 52.00
C 291.15 55.93 288.98 59.81 288.00 64.00 Z"/>
</g>
<g fill="#ccc9" fill-opacity="1.00" stroke="None">
<path d="
M 72.00 58.00 
C 73.00 56.61 73.74 54.90 74.00 53.00
C 72.49 54.23 71.94 55.94 72.00 58.00 Z"/>
</g>
<g fill="#ccc9" fill-opacity="1.00" stroke="None">
<path d="
M 232.00 61.00 
C 231.26 57.86 229.29 55.64 228.00 53.00
C 228.51 55.92 230.25 58.82 232.00 61.00 Z"/>
</g>
<g fill="#ccc9" fill-opacity="1.00" stroke="None">
<path d="
M 88.00 68.00 
C 81.77 65.49 86.39 53.52 93.00 55.00
C 85.75 51.76 79.69 67.36 88.00 68.00 Z"/>
</g>
<g fill="#ccc9" fill-opacity="1.00" stroke="None">
<path d="
M 132.00 68.00 
C 125.85 65.67 131.76 54.82 137.00 55.00
C 131.82 50.97 124.30 66.75 132.00 68.00 Z"/>
</g>
<g fill="#ccc9" fill-opacity="1.00" stroke="None">
<path d="
M 210.00 63.00 
C 212.96 61.07 214.40 55.11 218.00 55.00
C 215.72 52.65 210.86 60.63 210.00 63.00 Z"/>
</g>
<g fill="#ccc9" fill-opacity="1.00" stroke="None">
<path d="
M 254.00 60.00 
C 255.93 52.82 267.81 54.45 264.00 63.00
C 271.03 57.36 256.09 48.71 254.00 60.00 Z"/>
</g>
<g fill="#ccc9" fill-opacity="1.00" stroke="None">
<path d="
M 88.00 68.00 
C 88.50 68.04 89.51 68.08 90.00 68.00
C 92.14 67.09 95.67 63.08 96.00 61.00
C 96.35 57.31 95.95 56.32 93.00 55.00
C 86.39 53.52 81.77 65.49 88.00 68.00 Z"/>
</g>
<g fill="#ccc9" fill-opacity="1.00" stroke="None">
<path d="
M 132.00 68.00 
C 132.82 68.13 134.17 68.12 135.00 68.00
C 136.64 67.52 139.15 64.32 140.00 63.00
C 140.00 63.00 139.93 62.49 140.00 62.00
C 140.33 59.77 139.98 56.39 138.00 55.00
C 138.00 55.00 137.50 55.02 137.00 55.00
C 131.76 54.82 125.85 65.67 132.00 68.00 Z"/>
</g>
<g fill="#ccc9" fill-opacity="1.00" stroke="None">
<path d="
M 140.00 62.00 
C 141.60 59.96 141.32 55.87 138.00 55.00
C 139.98 56.39 140.33 59.77 140.00 62.00 Z"/>
</g>
<g fill="#ccc9" fill-opacity="1.00" stroke="None">
<path d="
M 210.00 63.00 
C 210.00 63.00 209.96 63.50 210.00 64.00
C 210.13 65.56 211.61 67.58 213.00 68.00
C 213.50 68.04 214.51 68.08 215.00 68.00
C 219.67 66.10 219.41 59.98 218.00 56.00
C 218.00 56.00 217.98 55.00 218.00 55.00
C 214.40 55.11 212.96 61.07 210.00 63.00 Z"/>
</g>
<g fill="#ccc9" fill-opacity="1.00" stroke="None">
<path d="
M 254.00 60.00 
C 253.27 63.94 254.37 68.25 259.00 68.00
C 259.85 67.88 263.28 64.77 264.00 64.00
C 264.00 64.00 263.81 63.42 264.00 63.00
C 267.81 54.45 255.93 52.82 254.00 60.00 Z"/>
</g>
<g fill="#ccc9" fill-opacity="1.00" stroke="None">
<path d="
M 215.00 68.00 
C 219.67 67.25 223.02 58.28 218.00 56.00
C 219.41 59.98 219.67 66.10 215.00 68.00 Z"/>
</g>
<g fill="#ccc9" fill-opacity="1.00" stroke="None">
<path d="
M 279.00 66.00 
C 282.74 64.71 285.22 59.34 286.00 56.00
C 283.99 58.50 282.03 64.22 279.00 66.00 Z"/>
</g>
<g fill="#ccc9" fill-opacity="1.00" stroke="None">
<path d="
M 153.00 66.00 
C 156.38 68.34 159.94 59.87 160.00 57.00
C 158.74 59.40 156.91 65.92 153.00 66.00 Z"/>
</g>
<g fill="#ccc9" fill-opacity="1.00" stroke="None">
<path d="
M 35.00 90.00 
C 21.58 82.97 20.71 72.01 24.00 58.00
C 14.54 65.26 22.90 89.76 35.00 90.00 Z"/>
</g>
<g fill="#ccc9" fill-opacity="1.00" stroke="None">
<path d="
M 154.00 76.00 
C 151.38 87.60 166.79 89.64 170.07 82.07 C 173.36 74.51 168.00 60.50 178.00 58.00
C 172.14 58.90 170.40 66.41 170.00 72.00 C 169.60 77.59 171.37 85.33 163.00 86.00 C 154.64 86.67 157.55 76.43 154.00 76.00 Z"/>
</g>
<g fill="#ccc9" fill-opacity="1.00" stroke="None">
<path d="
M 182.00 64.00 
C 182.91 62.83 184.09 59.00 182.00 58.00
C 182.00 60.00 182.00 62.00 182.00 64.00 Z"/>
</g>
<g fill="#ccc9" fill-opacity="1.00" stroke="None">
<path d="
M 66.00 70.00 
C 62.63 79.67 59.45 84.11 51.00 90.00
C 55.38 88.96 58.96 85.89 62.00 83.00
C 60.82 88.21 57.79 92.39 58.00 98.00
C 61.85 86.94 71.55 70.97 72.00 59.00
C 70.35 60.93 66.59 73.45 66.00 70.00 Z"/>
</g>
<g fill="#ccc9" fill-opacity="1.00" stroke="None">
<path d="
M 90.00 68.00 
C 93.42 67.45 95.70 64.23 96.00 61.00
C 95.67 63.08 92.14 67.09 90.00 68.00 Z"/>
</g>
<g fill="#ccc9" fill-opacity="1.00" stroke="None">
<path d="
M 315.00 66.00 
C 317.66 64.60 319.30 60.77 323.00 62.00
C 318.90 70.32 320.15 77.62 310.69 83.69 C 301.24 89.77 292.00 85.04 292.00 73.00
C 284.05 83.73 303.07 91.37 309.92 84.92 C 316.77 78.47 321.50 72.92 323.97 64.03 C 326.44 55.14 314.52 66.16 315.00 66.00 Z"/>
</g>
<g fill="#ccc9" fill-opacity="1.00" stroke="None">
<path d="
M 292.00 72.00 
C 294.11 69.54 295.46 65.33 296.00 62.00
C 293.84 64.70 292.14 68.32 292.00 72.00 Z"/>
</g>
<g fill="#ccc9" fill-opacity="1.00" stroke="None">
<path d="
M 135.00 68.00 
C 137.64 67.62 139.50 65.55 140.00 63.00
C 139.15 64.32 136.64 67.52 135.00 68.00 Z"/>
</g>
<g fill="#ccc9" fill-opacity="1.00" stroke="None">
<path d="
M 213.00 68.00 
C 211.61 67.58 210.13 65.56 210.00 64.00
C 208.53 65.95 210.55 67.81 213.00 68.00 Z"/>
</g>
<g fill="#ccc9" fill-opacity="1.00" stroke="None">
<path d="
M 259.00 68.00 
C 261.16 67.88 263.05 65.93 264.00 64.00
C 263.28 64.77 259.85 67.88 259.00 68.00 Z"/>
</g>
<g fill="#ccc9" fill-opacity="1.00" stroke="None">
<path d="
M 180.00 70.00 
C 181.51 68.77 182.06 67.06 182.00 65.00
C 181.00 66.39 180.26 68.10 180.00 70.00 Z"/>
</g>
<g fill="#ccc9" fill-opacity="1.00" stroke="None">
<path d="
M 273.00 77.00 
C 280.15 77.48 285.57 71.18 288.00 65.00
C 285.14 66.79 284.60 70.48 281.75 72.75 C 278.89 75.01 275.93 75.72 273.00 77.00 Z"/>
</g>
<g fill="#ccc9" fill-opacity="1.00" stroke="None">
<path d="
M 182.00 86.00 
C 178.67 83.37 180.00 74.88 180.00 71.00
C 177.65 74.18 178.04 83.72 182.00 86.00 Z"/>
</g>
<g fill="#ccc9" fill-opacity="1.00" stroke="None">
<path d="
M 76.00 82.00 
C 78.11 81.60 76.02 78.47 78.00 78.00
C 76.30 86.90 87.93 89.44 93.92 85.92 C 99.92 82.41 103.37 77.51 110.00 76.00
C 101.70 74.66 100.42 82.73 93.22 85.22 C 86.02 87.71 77.52 84.93 78.00 76.00
C 75.57 76.68 75.70 79.98 76.00 82.00 Z"/>
</g>
<g fill="#ccc9" fill-opacity="1.00" stroke="None">
<path d="
M 135.00 86.00 
C 130.37 86.00 124.30 86.64 120.25 84.75 C 116.19 82.86 117.23 77.89 114.00 76.00
C 116.03 77.85 116.35 85.75 120.93 86.07 C 125.51 86.39 131.14 88.86 135.00 86.00 Z"/>
</g>
<g fill="#ccc9" fill-opacity="1.00" stroke="None">
<path d="
M 225.00 86.00 
C 230.06 85.14 233.95 81.08 237.00 77.00
C 238.13 77.44 239.57 79.06 240.00 80.00
C 240.43 78.40 238.63 77.54 239.00 76.00
C 234.60 79.09 229.20 82.63 225.00 86.00 Z"/>
</g>
<g fill="#ccc9" fill-opacity="1.00" stroke="None">
<path d="
M 136.00 86.00 
C 140.61 84.19 143.05 78.74 147.00 77.00
C 144.55 77.89 137.23 84.03 136.00 86.00 Z"/>
</g>
<g fill="#ccc9" fill-opacity="1.00" stroke="None">
<path d="
M 264.00 84.00 
C 266.80 82.13 269.78 79.32 272.00 77.00
C 268.12 77.76 266.86 81.75 264.00 84.00 Z"/>
</g>
<g fill="#ccc9" fill-opacity="1.00" stroke="None">
<path d="
M 189.00 87.00 
C 194.99 88.04 197.60 81.69 202.00 79.00
C 204.22 83.57 208.60 87.41 214.00 87.00
C 209.82 85.66 204.62 83.03 203.00 78.00
C 198.09 79.92 194.36 86.09 189.00 87.00 Z"/>
</g>
<g fill="#ccc9" fill-opacity="1.00" stroke="None">
<path d="
M 246.00 86.00 
C 244.25 84.17 241.81 82.93 240.00 81.00
C 241.11 83.26 243.59 85.53 246.00 86.00 Z"/>
</g>
<g fill="#ccc9" fill-opacity="1.00" stroke="None">
<path d="
M 74.00 91.00 
C 75.26 88.69 75.93 85.98 76.00 83.00
C 74.29 85.11 73.80 88.02 74.00 91.00 Z"/>
</g>
<g fill="#ccc9" fill-opacity="1.00" stroke="None">
<path d="
M 215.00 87.00 
C 217.38 88.83 221.58 87.06 224.00 86.00
C 220.71 85.78 218.19 86.93 215.00 87.00 Z"/>
</g>
<g fill="#ccc9" fill-opacity="1.00" stroke="None">
<path d="
M 259.00 86.00 
C 255.20 86.58 250.85 86.00 247.00 86.00
C 250.01 88.23 255.87 86.88 259.00 86.00 Z"/>
</g>
<g fill="#ccc9" fill-opacity="1.00" stroke="None">
<path d="
M 49.00 90.00 
C 44.67 90.00 40.33 90.00 36.00 90.00
C 38.87 92.13 45.98 91.29 49.00 90.00 Z"/>
</g>
<g fill="#ccc9" fill-opacity="1.00" stroke="None">
<path d="
M 58.00 100.00 
C 58.00 105.57 65.36 106.65 68.75 103.75 C 72.14 100.85 73.84 96.12 74.00 92.00
C 70.79 94.45 72.23 100.02 68.74 102.74 C 65.26 105.46 59.71 104.03 58.00 100.00 Z"/>
</g>
<g fill="#ccc9" fill-opacity="0.15" stroke="None">
<path d="
M 58.00 110.00 
C 57.40 109.68 53.39 105.67 53.00 105.00
C 53.82 106.78 56.16 109.17 58.00 110.00 Z"/>
</g>
</svg>