<?xml version="1.0" standalone="no"?>
<!DOCTYPE svg PUBLIC "-//W3C//DTD SVG 20010904//EN"
 "http://www.w3.org/TR/2001/REC-SVG-20010904/DTD/svg10.dtd">
<svg version="1.0" xmlns="http://www.w3.org/2000/svg"
 width="300.000000pt" height="163.000000pt" viewBox="0 0 300.000000 163.000000"
 preserveAspectRatio="xMidYMid meet">
<metadata>
Created by potrace 1.10, written by Peter Selinger 2001-2011
</metadata>
<g transform="translate(0.000000,163.000000) scale(0.100000,-0.100000)"
fill="#cbd5e1f7" stroke="none">
<path d="M627 1535 c-179 -45 -439 -223 -526 -361 -44 -69 -55 -115 -38 -156
23 -52 54 -74 195 -132 166 -69 262 -119 296 -155 l26 -27 -87 -70 c-48 -38
-132 -111 -185 -163 -164 -157 -214 -256 -147 -288 81 -39 311 117 400 272 38
66 71 172 65 210 -4 28 2 35 96 105 56 41 112 81 124 88 32 17 39 34 58 124
20 95 20 118 2 118 -17 0 -21 -11 -37 -112 l-12 -77 -126 -93 -126 -93 -37 37
c-43 43 -126 87 -301 159 -134 55 -177 87 -177 131 0 143 381 436 592 456 67
6 88 -6 88 -49 0 -22 5 -29 20 -29 28 0 27 51 -3 85 -28 33 -81 40 -160 20z
m-38 -917 c-18 -83 -77 -185 -147 -256 -101 -100 -243 -175 -274 -144 -18 18
39 100 141 203 105 104 272 248 282 243 4 -2 3 -23 -2 -46z"/>
<path d="M2803 1150 c-36 -21 -57 -55 -49 -76 8 -22 24 -17 38 13 13 27 61 53
74 40 8 -8 -32 -56 -78 -93 -44 -34 -45 -58 -3 -62 61 -6 95 -40 95 -98 0 -69
-91 -153 -193 -178 -20 -5 -27 -12 -25 -24 5 -22 37 -18 107 15 104 50 162
137 146 221 -7 38 -54 92 -79 92 -22 0 -20 17 3 30 47 25 80 99 56 124 -22 21
-53 20 -92 -4z"/>
<path d="M2395 1057 c-49 -49 -73 -113 -55 -148 10 -17 8 -25 -12 -46 -29 -31
-70 -53 -100 -53 -21 0 -23 4 -20 45 6 74 -42 123 -79 79 -7 -9 -23 -20 -35
-24 -20 -8 -201 -208 -223 -247 -11 -21 -7 -27 -64 73 -56 97 -65 130 -43 172
20 39 44 52 95 52 45 0 53 13 20 30 -23 13 -73 5 -107 -16 -12 -8 -36 -44 -54
-80 -40 -82 -89 -140 -110 -131 -9 3 -27 33 -39 67 -37 102 -75 110 -127 24
-15 -24 -34 -44 -44 -44 -27 0 -65 -141 -43 -160 16 -13 26 0 48 60 27 70 83
165 98 165 8 0 23 -25 34 -58 28 -77 55 -104 92 -91 15 5 41 28 58 51 35 49
41 51 50 21 4 -13 27 -55 51 -94 24 -40 44 -77 44 -83 0 -6 -16 -33 -35 -59
-92 -129 -101 -242 -16 -198 58 30 109 145 95 214 -5 25 5 42 83 135 l88 107
6 -35 c13 -77 69 -97 122 -43 18 18 36 31 40 30 22 -7 92 23 125 52 27 24 47
33 74 33 21 1 50 10 67 22 40 29 43 27 26 -16 -52 -135 -71 -304 -37 -322 38
-20 95 34 179 169 81 131 104 190 74 190 -5 0 -34 -47 -66 -104 -57 -105 -138
-216 -164 -224 -22 -7 -8 93 34 237 44 155 41 163 -42 111 -26 -16 -55 -30
-65 -30 -17 0 -16 4 6 39 54 84 70 153 40 165 -24 9 -24 9 -69 -37z m20 -78
c-20 -38 -37 -69 -40 -69 -16 0 -1 63 25 104 45 70 55 46 15 -35z m-235 -121
c0 -30 -9 -35 -28 -16 -13 13 -16 60 -5 72 12 11 33 -25 33 -56z m-66 -13 c4
-14 18 -32 31 -41 24 -16 25 -18 9 -35 -34 -37 -74 -17 -74 37 0 61 22 86 34
39z m-283 -358 c-14 -40 -66 -105 -77 -94 -8 8 12 56 54 127 23 39 27 42 30
22 2 -12 -1 -37 -7 -55z"/>
<path d="M961 992 c-20 -21 -44 -61 -55 -90 -13 -37 -23 -52 -35 -50 -12 2
-20 -12 -32 -61 -12 -50 -21 -67 -42 -78 -34 -17 -35 -33 -1 -33 19 0 25 -4
20 -15 -5 -15 -96 -531 -99 -570 -1 -10 5 -21 13 -22 13 -3 26 49 74 287 71
355 71 357 98 366 33 10 117 94 140 139 27 52 29 116 4 144 -27 30 -44 26 -85
-17z m67 -40 c2 -17 -6 -48 -17 -69 -21 -42 -107 -130 -117 -121 -13 13 54
167 89 206 27 29 41 24 45 -16z"/>
<path d="M1410 933 c-17 -70 -74 -123 -132 -123 -21 0 -23 4 -20 43 3 48 -15
90 -41 95 -9 2 -37 -13 -62 -33 -67 -56 -80 -129 -32 -182 29 -32 63 -29 100
9 18 18 36 31 40 30 5 -1 25 2 45 8 55 15 117 76 136 134 20 62 20 66 -3 66
-14 0 -22 -12 -31 -47z m-184 -59 c3 -19 4 -38 0 -41 -11 -12 -36 20 -36 47 0
53 25 49 36 -6z m-26 -74 c21 -11 21 -12 4 -31 -47 -52 -99 16 -63 83 11 21
12 20 24 -10 8 -17 23 -36 35 -42z"/>
</g>
</svg>
